---
name: Amrl1103 Regular 49
spacing: proportional
bounding-box: 56x49
line-height: 53
encoding: dashen
converter: monobit v0.38
source-name: amrl1103.pft
source-format: dashen
history: label -comment-from=desc


# [ዦ] ETHIOPIC SYLLABLE ZHO
u+12e6:
0x21:
    ....@@@@@@@@....................@@@@@@@@...
    ...@@@@@@@@@@@...............@@@@@@@@@@@@..
    ..@@@@@@@@@@@@@@............@@@@@@@@@@@@@..
    ..@@@@@@@@@@@@@@@...........@@@@@@@@@@@@@..
    .@@@@@@@@@@@@@@@@@.........@@@@@@@@@@@@@@@.
    .@@@@@@@@.@@@@@@@@........@@@@@...@@@@@@@@.
    .@@@@@@@@.@@@@@@@@........@@@@@...@@@@@@@@.
    .@@@@@@@..@@@@@@@@.......@@@@@@....@@@@@@@.
    .@@@@@@@..@@@@@@@@.......@@@@@@.....@@@@@@.
    .@@@@@@...@@@@@@@@.......@@@@@@............
    .@@@@@....@@@@@@@@.......@@@@@@............
    ..........@@@@@@@@.......@@@@@@............
    ..........@@@@@@@@......@@@@@@@............
    ..........@@@@@@@@@@@@@@@@@@@@@............
    ..........@@@@@@@@@@@@@@@@@@@@@............
    ..........@@@@@@@@@@@@@@@@@@@@@............
    ..........@@@@@@@@@....@@@@@@@@............
    ..........@@@@@@@@......@@@@@@@............
    ..........@@@@@@@@......@@@@@@@............
    ..........@@@@@@@@......@@@@@@@............
    ..........@@@@@@@@......@@@@@@@............
    ..........@@@@@@@@......@@@@@@@............
    ..........@@@@@@@@......@@@@@@@............
    ..........@@@@@@@@......@@@@@@@............
    ..........@@@@@@@@......@@@@@@@............
    ..........@@@@@@@@......@@@@@@@............
    ..........@@@@@@@@......@@@@@@@............
    ..........@@@@@@@@......@@@@@@@............
    ..........@@@@@@@@......@@@@@@@............
    ..........@@@@@@@@......@@@@@@@............
    ..........@@@@@@@@......@@@@@@@............
    ..........@@@@@@@@.........................
    ..........@@@@@@@@.........................
    ..........@@@@@@@@.........................
    ..........@@@@@@@@.........................
    ..........@@@@@@@@.........................
    ..........@@@@@@@@.........................

    shift-up: -6



# [ጣ] ETHIOPIC SYLLABLE THAA
u+1323:
0x22:
    ..............@@@@@@@@@@@@@@@@@@.......
    ..........@@@@@@@@@@@@@@@@@@@@@@@@.....
    .........@@@@@@@@@@@@@@@@@@@@@@@@@@....
    ........@@@@@@@@@@@@@@@@@@@@@@@@@@@@...
    ......@@@@@@@@@.@@@@@@@@@.....@@@@@@@..
    .....@@@@@@@@...@@@@@@@@@.....@@@@@@@@.
    ....@@@@@@@@....@@@@@@@@@.....@@@@@@@@.
    ....@@@@@@@.....@@@@@@@@@.....@@@@@@@@.
    ...@@@@@@@@.....@@@@@@@@......@@@@@@@@.
    ...@@@@@@@......@@@@@@@@......@@@@@@@@.
    ..@@@@@@@@.....@@@@@@@@@......@@@@@@@@.
    ..@@@@@@@@.....@@@@@@@@......@@@@@@@@..
    .@@@@@@@@......@@@@@@@@......@@@@@@@@..
    .@@@@@@@@.....@@@@@@@@@......@@@@@@@@..
    .@@@@@@@@.....@@@@@@@@@......@@@@@@@@..
    .@@@@@@@@.....@@@@@@@@.......@@@@@@@@..
    .@@@@@@@@.....@@@@@@@@.......@@@@@@@@..
    .@@@@@@@@.....@@@@@@@@.......@@@@@@@@..
    .@@@@@@@@.....@@@@@@@@.......@@@@@@@...
    ............................@@@@@@@@...
    ............................@@@@@@@@...
    ............................@@@@@@@@...
    ............................@@@@@@@@...
    ............................@@@@@@@@...
    ............................@@@@@@@@...
    ............................@@@@@@@....
    ............................@@@@@@@....
    ...........................@@@@@@@@....
    ...........................@@@@@@@@....
    ...........................@@@@@@@@....
    ..........................@@@@@@@@@....


# [ዬ] ETHIOPIC SYLLABLE YEE
u+12ec:
0x23:
    ..........@@@@@...................
    ........@@@@@@@@@@................
    ......@@@@@@@@@@@@@@..............
    .....@@@@@@@@@@@@@@@@.............
    ....@@@@@@@@@@@@@@@@@@............
    ...@@@@@@@@...@@@@@@@@@...........
    ...@@@@@@@.....@@@@@@@@...........
    ..@@@@@@@@.....@@@@@@@@...........
    ..@@@@@@@.....@@@@@@@@@...........
    .@@@@@@@@.....@@@@@@@@@...........
    .@@@@@@@@....@@@@@@@@@@...........
    .@@@@@@@@....@@@@@@@@@............
    .@@@@@@@@....@@@@@@@@@............
    ..@@@@@@@...@@@@@@@@@.............
    ...@@@@@@@@@@@@@@@@@..............
    ...@@@@@@@@@@@@@@@.......@@@@@....
    ...@@@@@@@@@@@@@@......@@@@@@@@@..
    ...@@@@@@@@@@@@...@@@@@@@@@@@@@@..
    ....@@@@@@@@@@@@@@@@@@@@@@@@@@@@@.
    ....@@@@@@@@@@@@@@@@@@@@@@@@@@@@@.
    .....@@@@@@@@@@@@@@@@@@@...@@@@@@.
    ......@@@@@@@@...@@@@@@....@@@@@@.
    .......@@@@@@@...@@@@@@@..@@@@@@@.
    .......@@@@@@@....@@@@@@@@@@@@@@..
    .......@@@@@@@....@@@@@@@@@@@@@...
    .......@@@@@@@.....@@@@@@@@@@.....
    .......@@@@@@@......@@@@@@@@......
    .......@@@@@@@....................
    .......@@@@@@@....................
    .......@@@@@@@....................
    .......@@@@@@@....................
    .......@@@@@@@....................
    .......@@@@@@@....................


# [ዱ] ETHIOPIC SYLLABLE DU
u+12f1:
0x24:
    ...............@@@@@@@@..................
    .........@@@@@@@@@@@@@@@@@...............
    .........@@@@@@@@@@@@@@@@@@..............
    ........@@@@@@@...@@@@@@@@@..............
    .......@@@@@@@@...@@@@@@@@@..............
    ......@@@@@@@@....@@@@@@@@@..............
    ......@@@@@@@@....@@@@@@@@@..............
    ......@@@@@@@....@@@@@@@@@...............
    ......@@@@@@@....@@@@@@@@@...............
    ......@@@@@@@...@@@@@@@@@@...............
    ......@@@@@@@@.@@@@@@@@@@................
    ......@@@@@@@@@@@@@@@@@@.................
    ......@@@@@@@@@@@@@@@@@..................
    ......@@@@@@@@@@@@@@@@...................
    ......@@@@@@@@@@@@@......................
    .......@@@@@@@@..........................
    .......@@@@@@@@..........................
    .......@@@@@@@@..........................
    .......@@@@@@@@..........................
    ........@@@@@@@@.........................
    .........@@@@@@@@@@@@@@@@@...............
    .........@@@@@@@@@@@@@@@@@@..............
    ......@@@@@@@@@@@@@@@@@@@@@@@@@@@@@@@@@..
    ...@@@@@@@@@@@@@@@@@@@@@@@@@@@@@@@@@@@@@.
    ...@@@@@@@@@@@@@@@@@@@@@@@@@@@@@@@@@@@@@.
    ..@@@@@@@@..........@@@@@@@@@..@@@@@@@@@.
    ..@@@@@@@@...........@@@@@@@@...@@@@@@@@.
    .@@@@@@@@............@@@@@@@@@..@@@@@@@@.
    .@@@@@@@@............@@@@@@@@@...@@@@@@@.
    .@@@@@@@@.............@@@@@@@@....@@@@@@.
    ......................@@@@@@@@...........
    ......................@@@@@@@@...........


# [ሙ] ETHIOPIC SYLLABLE MU
u+1219:
0x25:
    ...............@@@@@@@@@@@@@@@@@@@@@@@@@@................
    ..........@@@@@@@@@@@@@@@@@@@@@@@@@@@@@@@@@@.............
    .........@@@@@@@@@@@@@@@@@@@@@@@@@@@@@@@@@@@@@...........
    ........@@@@@@@@@@@@@@@@@@@@@@@@@@@@@@@@@@@@@@...........
    ......@@@@@@@@@@@@@@@@@@@@@@@@@@@@@@@@@@@@@@@@@..........
    ......@@@@@@@@...@@@@@@@@@@.@@@@@@@@.@@@@@@@@@@..........
    .....@@@@@@@@....@@@@@@@@@..@@@@@@@...@@@@@@@@@@@@@@@@@..
    ....@@@@@@@@.....@@@@@@@@@..@@@@@@@...@@@@@@@@@@@@@@@@@@.
    ....@@@@@@@@.....@@@@@@@@...@@@@@@@...@@@@@@@@@@@@@@@@@@.
    ...@@@@@@@@.....@@@@@@@@@..@@@@@@@@...@@@@@@@@@@@@@@@@@@.
    ..@@@@@@@@.....@@@@@@@@@...@@@@@@@....@@@@@@@@..@@@@@@@@.
    ..@@@@@@@@....@@@@@@@@@....@@@@@@@....@@@@@@@@....@@@@@@.
    .@@@@@@@@@...@@@@@@@@@@....@@@@@@@...@@@@@@@@@.....@@@@..
    .@@@@@@@@@..@@@@@@@@@@....@@@@@@@@@@@@@@@@@@@............
    .@@@@@@@@@..@@@@@@@@@@....@@@@@@@@@@@@@@@@@@@............
    .@@@@@@@@@@@@@@@@@@@@@....@@@@@@@@@@@@@@@@@@@............
    .@@@@@@@@@@@@@@@@@@@@......@@@@@@@@@@@@@@@@..............
    ..@@@@@@@@@@@@@@@@@@........@@@@@@@@@@@@@................
    ....@@@@@@@@@@@@@@@..........@@@@@@@@@@..................
    .....@@@@@@@@@@..........................................

    shift-up: 3



# [ዲ] ETHIOPIC SYLLABLE DI
u+12f2:
0x26:
    ...............@@@@@@@@....................
    ...........@@@@@@@@@@@@@@..................
    .........@@@@@@@@@@@@@@@@@@................
    ........@@@@@@@...@@@@@@@@@................
    .......@@@@@@@@...@@@@@@@@@................
    ......@@@@@@@@....@@@@@@@@@................
    ......@@@@@@@@....@@@@@@@@@................
    ......@@@@@@@....@@@@@@@@@.................
    ......@@@@@@@....@@@@@@@@@.................
    ......@@@@@@@...@@@@@@@@@@.................
    ......@@@@@@@@.@@@@@@@@@@..................
    ......@@@@@@@@@@@@@@@@@@...................
    ......@@@@@@@@@@@@@@@@@....................
    ......@@@@@@@@@@@@@@@@.....................
    ......@@@@@@@@@@@@@........................
    .......@@@@@@@@............................
    .......@@@@@@@@............................
    .......@@@@@@@@............................
    .......@@@@@@@@............................
    ........@@@@@@@@...........................
    ........@@@@@@@@...........................
    .........@@@@@@@@@@@@@@@@@@................
    ......@@@@@@@@@@@@@@@@@@@@@@...............
    ...@@@@@@@@@@@@@@@@@@@@@@@@@...............
    ...@@@@@@@@@@@@@@@@@@@@@@@@@@..............
    ..@@@@@@@@..........@@@@@@@@@..............
    ..@@@@@@@@...........@@@@@@@@..............
    .@@@@@@@@............@@@@@@@@@.............
    .@@@@@@@@............@@@@@@@@@.....@@@@@@..
    .@@@@@@@@.............@@@@@@@@....@@@@@@@@.
    ......................@@@@@@@@@@@@@@@@@@@@.
    ......................@@@@@@@@@@@@@@@@@@@@.
    ......................@@@@@@@@@@@@@@@@@@@@.
    ..................................@@@@@@@@.
    ...................................@@@@@@@.
    .....................................@@@@@.

    shift-up: -3



# [ፌ] ETHIOPIC SYLLABLE FEE
u+134c:
0x27:
    ...............@@@@@@@...............
    ..............@@@@@@@@@..............
    ..............@@@@@@@@@..............
    ..............@@@@@@@@...............
    ..............@@@@@@@@...............
    ..............@@@@@@@@...............
    .............@@@@@@@@@...............
    .............@@@@@@@@................
    ............@@@@@@@@.................
    ...........@@@@@@@@@.................
    ...........@@@@@@@@..................
    ..........@@@@@@@@...................
    .........@@@@@@@@....................
    .........@@@@@@@@....................
    ........@@@@@@@@.....................
    .......@@@@@@@@......................
    ......@@@@@@@@.......................
    ......@@@@@@@@@@@@@..................
    .....@@@@@@@@@@@@@@@@................
    ....@@@@@@@@@@@@@@@@@................
    ...@@@@@@@@@@@@@@@@@@@...............
    ..@@@@@@@@..@@@@@@@@@@......@@@@@@...
    ..@@@@@@@@..@@@@@@@@@@....@@@@@@@@@..
    ..@@@@@@@@..@@@@@@@@@@..@@@@@@@@@@@@.
    .@@@@@@@@@..@@@@@@@@@@@@@@@@@@@@@@@@.
    .@@@@@@@@@.@@@@@@@@@@@@@@@..@@@@@@@@.
    .@@@@@@@@@@@@@@@@@@@@@@@@...@@@@@@@@.
    .@@@@@@@@@@@@@@@@.@@@@@@@...@@@@@@@@.
    ..@@@@@@@@@@@@.......@@@@@..@@@@@@@..
    ...@@@@@@@@..........@@@@@@@@@@@@@@..
    .....@@@@............@@@@@@@@@@@@@...
    .....................@@@@@@@.........
    ......................@@@@@@.........
    .......................@@............

    shift-up: -2



# [ዐ] ETHIOPIC SYLLABLE PHARYNGEAL A
u+12d0:
0x28:
    ...........@@@@@@@@@@....
    .........@@@@@@@@@@@@@...
    ........@@@@@@@@@@@@@@...
    ......@@@@@@@@@@@@@@@@@..
    .....@@@@@@@@@@@@@@@@@@..
    ....@@@@@@....@@@@@@@@@..
    ...@@@@@@.....@@@@@@@@@..
    ...@@@@@@.....@@@@@@@@@..
    ..@@@@@@@......@@@@@@@@..
    .@@@@@@@@......@@@@@@@@..
    .@@@@@@@@......@@@@@@@@..
    .@@@@@@@@......@@@@@@@@..
    .@@@@@@@@......@@@@@@@@..
    .@@@@@@@@......@@@@@@@@..
    .@@@@@@@@......@@@@@@@@..
    .@@@@@@@@......@@@@@@@@..
    .@@@@@@@@......@@@@@@@@..
    .@@@@@@@@.....@@@@@@@@@..
    .@@@@@@@@.....@@@@@@@@@..
    .@@@@@@@@.....@@@@@@@@...
    .@@@@@@@@.....@@@@@@@@...
    .@@@@@@@@.....@@@@@@@@...
    .@@@@@@@@.....@@@@@@@@...
    .@@@@@@@@.....@@@@@@@....
    .@@@@@@@@@..@@@@@@@@@....
    ..@@@@@@@@@@@@@@@@@@.....
    ..@@@@@@@@@@@@@@@@@......
    ..@@@@@@@@@@@@@@@@.......
    ..@@@@@@@@@@@@@@.........
    ...@@@@@@@@@@............
    .....@@@@................


# [ሮ] ETHIOPIC SYLLABLE RO
u+122e:
0x29:
    ......................@@@@@@.....
    ................@@@@@@@@@@@@@@@@.
    .............@@@@@@@@@@@@@@@@@@@.
    .........@@@@@@@@@@@@@@@.@@@@@@@.
    .......@@@@@@@@@@@@@@@....@@@@@@.
    ......@@@@@@@@@@@@@@@@....@@@@@@.
    .....@@@@@@@@.@@@@@@@@....@@@@@@.
    ....@@@@@@@...@@@@@@@@@..@@@@@@@.
    ...@@@@@@@@...@@@@@@@@@@@@@@@@@..
    ...@@@@@@@....@@@@@@@@@@@@@@@@...
    ...@@@@@@@.....@@@@@@@@@@@@@@@...
    ...@@@@@@@......@@@@@@@@@@@@.....
    ..@@@@@@@@........@@@@...........
    ..@@@@@@@@.......................
    ..@@@@@@@@.......................
    ..@@@@@@@........................
    ..@@@@@@@........................
    .@@@@@@@@........................
    .@@@@@@@@........................
    .@@@@@@@@........................
    .@@@@@@@@........................
    .@@@@@@@@........................
    .@@@@@@@@............@@@@@@......
    .@@@@@@@@..........@@@@@@@@......
    .@@@@@@@@.........@@@@@@@@@@.....
    .@@@@@@@@........@@@@@@@@@@@.....
    ..@@@@@@@@......@@@@@@@@@@@@.....
    ..@@@@@@@@@@@@@@@@@@@@@@@@@@.....
    ..@@@@@@@@@@@@@@@@@@@@@@@@@@.....
    ...@@@@@@@@@@@@@@@@@@@@@@@@@.....
    ....@@@@@@@@@@@@@@@@@@@@@@@@.....
    ...................@@@@@@@@@.....


# [ዓ] ETHIOPIC SYLLABLE PHARYNGEAL AA
u+12d3:
0x2a:
    .........@@@@@@@@@@........
    .....@@@@@@@@@@@@@@@@......
    ....@@@@@@@@@@@@@@@@@......
    ...@@@@@@@...@@@@@@@@......
    ...@@@@@@.....@@@@@@@......
    ...@@@@@@.....@@@@@@@......
    ..@@@@@@@.....@@@@@@@......
    ..@@@@@@@.....@@@@@@@......
    .@@@@@@@@....@@@@@@@@......
    .@@@@@@@@....@@@@@@@.......
    .@@@@@@@@...@@@@@@@@.......
    .@@@@@@@@...@@@@@@@@.......
    .@@@@@@@@@@@@@@@@@@@@......
    ..@@@@@@@@@@@@@@@@@@@@@@@..
    ..@@@@@@@@@@@@@@@@@@@@@@@..
    ...@@@@@@@@@@@@@@@@@@@@@@@.
    .......@@@@@......@@@@@@@@.
    ..................@@@@@@@..
    ..................@@@@@@@..
    .................@@@@@@@...
    ................@@@@@@@....
    ................@@@@@@@....
    ................@@@@@@@....
    ...............@@@@@@@.....
    ..............@@@@@@@@.....
    ..............@@@@@@@......
    .............@@@@@@@@......
    .............@@@@@@@@......
    .............@@@@@@@.......
    .............@@@@@@@.......
    .............@@@@@@@.......
    .............@@@@@@@.......


# [ሩ] ETHIOPIC SYLLABLE RU
u+1229:
0x2b:
    ............@@@@@@@@.............
    ............@@@@@@@@@............
    ............@@@@@@@@@@...........
    ............@@@@@@@@@@...........
    ............@@@@@@@@@............
    ...........@@@@@@@@@@............
    ..........@@@@@@@@@@.............
    .........@@@@@@@@@@..............
    ........@@@@@@@@@@...............
    .......@@@@@@@@@@................
    ......@@@@@@@@@@.................
    ....@@@@@@@@@@@..................
    ...@@@@@@@@@@@...................
    ..@@@@@@@@@@@....................
    ..@@@@@@@@@@.....................
    .@@@@@@@@@@@.....................
    .@@@@@@@@@@......................
    .@@@@@@@@........................
    .@@@@@@@@........................
    .@@@@@@@@........................
    .@@@@@@@@@@@@@@@@@@@@@@@@@@@@@...
    ..@@@@@@@@@@@@@@@@@@@@@@@@@@@@@..
    ..@@@@@@@@@@@@@@@@@@@@@@@@@@@@@@.
    ...........@@@@@@@@....@@@@@@@@@.
    ...........@@@@@@@@....@@@@@@@@@.
    ...........@@@@@@@@.....@@@@@@@@.
    ...........@@@@@@@@.....@@@@@@@@.
    ...........@@@@@@@@......@@@@@@@.
    ...........@@@@@@@@........@@@@@.
    ...........@@@@@@@@..............
    ...........@@@@@@@@..............
    ...........@@@@@@@@..............
    ...........@@@@@@@@..............
    ...........@@@@@@@@..............
    ...........@@@@@@@@..............


# [ኃ] ETHIOPIC SYLLABLE XAA
u+1283:
0x2c:
    ...............@@@@@@@@.........
    ..............@@@@@@@@@@........
    ..............@@@@@@@@@@........
    ...............@@@@@@@@@........
    ...............@@@@@@@@@........
    ............@@@@@@@@@@@@........
    ........@@@@@@@@@@@@@@@@........
    ....@@@@@@@@@@@@@@@@@@@@........
    ...@@@@@@@@@@@@@@@@@@@@@@@@@@...
    ...@@@@@@@@@..@@@@@@@@@@@@@@@@..
    ...@@@@@@@@...@@@@@@@@@@@@@@@@..
    ...@@@@@@@.....@@@@@@@@@@@@@@@@.
    ..@@@@@@@@...........@@@@@@@@@@.
    ..@@@@@@@.............@@@@@@@@@.
    ..@@@@@@@.............@@@@@@@@@.
    ..@@@@@...............@@@@@@@@..
    ......................@@@@@@@@..
    ......................@@@@@@@@..
    ......................@@@@@@@@..
    ......................@@@@@@@@..
    .....................@@@@@@@@...
    ....................@@@@@@@@....
    ...................@@@@@@@@@....
    ................@@@@@@@@@@@.....
    ............@@@@@@@@@@@@@.......
    .........@@@@@@@@@@@@@..........
    ....@@@@@@@@@@@@@@@@............
    ..@@@@@@@@@@@@@@................
    .@@@@@@@@@@@....................
    .@@@@@@@@@......................
    .@@@@@@@@@......................
    .@@@@@@@@.......................
    .@@@@@@@@.......................
    .@@@@@@@@.......................
    .@@@@@@@@.......................
    .@@@@@@@........................
    ...@............................

    shift-up: -4



# [ዎ] ETHIOPIC SYLLABLE WO
u+12ce:
0x2d:
    ...........................@@@@......
    .................@@@@@@@@@@@@@@@@....
    ...........@@@@@@@@@@@@@@@@@@@@@@@...
    .........@@@@@@@@@@@@@@@@@@@@@@@@@@..
    ........@@@@@@@..@@@@@@@...@@@@@@@@..
    ........@@@@@@...@@@@@@@...@@@@@@@@..
    .......@@@@@@@...@@@@@@@...@@@@@@@@..
    .......@@@@@@...@@@@@@@@...@@@@@@@@..
    ......@@@@@@@...@@@@@@@@...@@@@@@@@..
    ......@@@@@@....@@@@@@@@...@@@@@@@@..
    ......@@@@@@....@@@@@@@@...@@@@@@@@..
    .....@@@@@@@....@@@@@@@@...@@@@@@@@..
    .....@@@@@@@....@@@@@@@....@@@@@@@@..
    .....@@@@@@@....@@@@@@@....@@@@@@@@..
    .....@@@@@@@....@@@@@@@....@@@@@@@@..
    .....@@@@@@@....@@@@@@@....@@@@@@@...
    .....@@@@@@@....@@@@@@@....@@@@@@@...
    .....@@@@@@@....@@@@@@@....@@@@@@@...
    .....@@@@@@@...@@@@@@@@@@.@@@@@@@....
    .....@@@@@@@@.@@@@@@@@@@@@@@@@@@.....
    .....@@@@@@@@@@@@@@@@@@@@@@@@@@@.....
    ......@@@@@@@@@@@@@@@@...@@@@@@......
    .......@@@@@@@@@@@@@@@...............
    .........@@@@@@@@@@@.................
    .............@@@@@@..................
    ..........@@@@@@@@@..................
    .........@@@@@@@@....................
    .......@@@@@@@@@.....................
    ....@@@@@@@@.........................
    ...@@@@@@@@@.........................
    ..@@@@@@@@...........................
    .@@@@@@@@............................
    .@@@@@@@@............................
    .@@@@@@@@............................
    .@@@@@@@@............................

    shift-up: -3



# [ች] ETHIOPIC SYLLABLE CE
u+127d:
0x2e:
    .......................@@@@.......
    ..@@@@@..............@@@@@@@......
    .@@@@@@@@...........@@@@@@@@......
    .@@@@@@@@...........@@@@@@@@......
    ..@@@@@@@..........@@@@@@@@.......
    ..@@@@@@@@.........@@@@@@@@.......
    ..@@@@@@@@@@@@@@@@@@@@@@@@@.......
    .@@@@@@@@@@@@@@@@@@@@@@@@@@@......
    ..........@@@@@@@.................
    ..........@@@@@@@.................
    ..........@@@@@@@.................
    ..........@@@@@@@@@@..............
    .............@@@@@@@@.............
    .............@@@@@@@@.............
    .............@@@@@@@@.............
    .............@@@@@@@@.............
    .............@@@@@@@@.............
    .............@@@@@@@@.............
    .............@@@@@@@@@@@@@@@@@@...
    ...@@@@@@@@@@@@@@@@@@@@@@@@@@@@@..
    ..@@@@@@@@@@@@@@@@@@@@@@@@@@@@@@..
    ..@@@@@@@@@@@@@@@@@@@@@@@@@@@@@@..
    ..@@@@@@@@@@@@@@@@@@@@@@@@@@@@@@..
    ..@@@@@@@@@..@@@@@@@@...@@@@@@@@..
    ..@@@@@@@@...@@@@@@@@...@@@@@@@@..
    ..@@@@@@@....@@@@@@@@.....@@@@@@..
    ..@@@@@@@....@@@@@@@@......@@@@...
    ...@@@@......@@@@@@@@.............
    .............@@@@@@@@.............
    .............@@@@@@@@.............
    .............@@@@@@@@.............
    .............@@@@@@@@.............
    .............@@@@@@@@.............
    .............@@@@@@@@.............
    .............@@@@@@@@.............
    .............@@@@@@@@.............
    .............@@@@@@@@@............
    ..............@@@@@@@@............


# [ጋ] ETHIOPIC SYLLABLE GAA
u+130b:
0x2f:
    ............@@@@@@@@@@@@@@@@@@..
    ...........@@@@@@@@@@@@@@@@@@@..
    ...........@@@@@@@@@@@@@@@@@@@@.
    ..........@@@@@@@@@@@..@@@@@@@@.
    ..........@@@@@@@@@@...@@@@@@@@.
    ..........@@@@@@@@@....@@@@@@@@.
    ..........@@@@@@@@@.....@@@@@@@.
    ..........@@@@@@@@......@@@@@@@.
    ...........@@@@@@.......@@@@@@@.
    ........................@@@@@@@.
    ........................@@@@@@@.
    ........................@@@@@@@.
    ........................@@@@@@@.
    ........................@@@@@@@.
    .......................@@@@@@@@.
    ......................@@@@@@@@..
    ......................@@@@@@@@..
    ......................@@@@@@@...
    .....................@@@@@@@@...
    ..................@@@@@@@@@@....
    ...............@@@@@@@@@@@@.....
    .........@@@@@@@@@@@@@@@@@......
    ...@@@@@@@@@@@@@@@@@@@@@........
    ..@@@@@@@@@@@@@@@@@@............
    ..@@@@@@@@@@@@@.@...............
    .@@@@@@@@@@.....................
    .@@@@@@@@@@.....................
    .@@@@@@@@@@.....................
    .@@@@@@@@@@.....................
    .@@@@@@@@@......................
    .@@@@@@@@.......................
    ..@@@@@.........................

    shift-up: -1



# [ሆ] ETHIOPIC SYLLABLE HO
u+1206:
0x30:
    ............................@@....
    .....................@@@@@@@@@@@..
    ..............@@@@@@@@@@@@@@@@@@@.
    .@@@@@@@......@@@@@@@@@@@@@@@@@@@.
    .@@@@@@@@.....@@@@@@@@@..@@@@@@@@.
    .@@@@@@@@.....@@@@@@@@@..@@@@@@@@.
    .@@@@@@@@.....@@@@@@@@@..@@@@@@@..
    .@@@@@@@@.....@@@@@@@@...@@@@@@@..
    .@@@@@@@@.....@@@@@@@@@.@@@@@@@@..
    .@@@@@@@@.....@@@@@@@@@@@@@@@@....
    .@@@@@@@@.....@@@@@@@@@@@@@@@.....
    .@@@@@@@@.....@@@@@@@@@@@@@@......
    .@@@@@@@@.....@@@@@@@@@@@@........
    .@@@@@@@@.....@@@@@@@@............
    .@@@@@@@@.....@@@@@@@@............
    .@@@@@@@@.....@@@@@@@@............
    .@@@@@@@@.....@@@@@@@@............
    .@@@@@@@@.....@@@@@@@@............
    .@@@@@@@@.....@@@@@@@.............
    .@@@@@@@@.....@@@@@@@.............
    .@@@@@@@@.....@@@@@@@.............
    .@@@@@@@@.....@@@@@@@.............
    .@@@@@@@@....@@@@@@@..............
    .@@@@@@@@...@@@@@@@@..............
    .@@@@@@@@...@@@@@@@@..............
    .@@@@@@@@...@@@@@@@...............
    .@@@@@@@@@@@@@@@@@................
    ..@@@@@@@@@@@@@@@.................
    ...@@@@@@@@@@@@@..................
    ...@@@@@@@@@@@....................
    ......@@@@@.......................


# [ዣ] ETHIOPIC SYLLABLE ZHAA
u+12e3:
0x31:
    .........@@@@@@@@...............@@@@@@@@@@@@@..
    ......@@@@@@@@@@@@............@@@@@@@@@@@@@@@..
    ...@@@@@@@@@@@@@@@@..........@@@@@@@@@@@@@@@@..
    ..@@@@@@@@@@@@@@@@@@........@@@@@@@@.@@@@@@@@@.
    ..@@@@@@@@@.@@@@@@@@........@@@@@@@...@@@@@@@@.
    ..@@@@@@@@..@@@@@@@@@.......@@@@@@@...@@@@@@@@.
    .@@@@@@@@...@@@@@@@@@......@@@@@@@.....@@@@@@@.
    .@@@@@@@@...@@@@@@@@@......@@@@@@@......@@@@@@.
    .@@@@@@@@...@@@@@@@@@......@@@@@@@.............
    ..@@@@@.....@@@@@@@@@......@@@@@@@.............
    ............@@@@@@@@@......@@@@@@@.............
    ............@@@@@@@@@@@@@@@@@@@@@@.............
    ............@@@@@@@@@@@@@@@@@@@@@@.............
    ............@@@@@@@@@@@@@@@@@@@@@@.............
    ............@@@@@@@@@@@@@@@@@@@@@@.............
    ............@@@@@@@@@@@@@@@@@@@@@@.............
    ............@@@@@@@@.......@@@@@@@.............
    ............@@@@@@@@.......@@@@@@@.............
    ............@@@@@@@@.......@@@@@@@.............
    ............@@@@@@@@.......@@@@@@@.............
    ............@@@@@@@@.......@@@@@@@.............
    ............@@@@@@@@.......@@@@@@@.............
    ............@@@@@@@@.......@@@@@@@.............
    ...........................@@@@@@@.............
    ...........................@@@@@@@.............
    ...........................@@@@@@@.............
    ...........................@@@@@@@.............
    ...........................@@@@@@@.............
    ...........................@@@@@@@.............
    ...........................@@@@@@@.............
    ...........................@@@@@@@.............
    ...........................@@@@@@@.............

    shift-up: -1



# [ኢ] ETHIOPIC SYLLABLE GLOTTAL I
u+12a2:
0x32:
    .......@@@@@@@@.............................
    ......@@@@@@@@@@............................
    ......@@@@@@@@@@............................
    ......@@@@@@@@@@............................
    .......@@@@@@@@@............................
    .......@@@@@@@@@............................
    .......@@@@@@@@@............................
    .......@@@@@@@@@............................
    .......@@@@@@@@@@@@@@.......................
    .......@@@@@@@@@@@@@@@......................
    ........@@@@@@@@@@@@@@......................
    ...........@@@@@@@@@@.......................
    ...........@@@@@@@@@........................
    ..........@@@@@@@@@.........................
    .........@@@@@@@@@@.........................
    .........@@@@@@@@@@.@@@@@@..................
    .........@@@@@@@@@@@@@@@@@@.................
    ........@@@@@@@@@@@@@@@@@@@.................
    .......@@@@@@@@@@@@@@@@@@@@.................
    .......@@@@@@@@@@@@@@@@@@@@.................
    ......@@@@@@@@....@@@@@@@@@@................
    ......@@@@@@@@.....@@@@@@@@@................
    .....@@@@@@@@......@@@@@@@@@@...............
    ....@@@@@@@@@.......@@@@@@@@@...............
    ....@@@@@@@@.........@@@@@@@@...............
    ...@@@@@@@@@.........@@@@@@@@...............
    ...@@@@@@@@@.........@@@@@@@@@..............
    ..@@@@@@@@@..........@@@@@@@@@..............
    ..@@@@@@@@............@@@@@@@@@.............
    ..@@@@@@@@............@@@@@@@@@.............
    .@@@@@@@@@.............@@@@@@@@@....@@@@@@..
    .@@@@@@@@..............@@@@@@@@@...@@@@@@@@.
    .@@@@@@@@..............@@@@@@@@@@@@@@@@@@@@.
    .@@@@@@@@...............@@@@@@@@@@@@@@@@@@@.
    .@@@@@@@@...............@@@@@@@@@@@@@@@@@@@.
    ...................................@@@@@@@@.
    .....................................@@@@@@.
    ......................................@@@@..

    shift-up: -3



# [ሞ] ETHIOPIC SYLLABLE MO
u+121e:
0x33:
    ............@@@@@@@@@@@@@@@@@@@@@@@@......
    ..........@@@@@@@@@@@@@@@@@@@@@@@@@@@@....
    ........@@@@@@@@@@@@@@@@@@@@@@@@@@@@@@@...
    ......@@@@@@@@@@@@@@@@@@@@@@@@@@@@@@@@@@..
    .....@@@@@@@@@@@@@@@@@@@@@@@@..@@@@@@@@@..
    ....@@@@@@@..@@@@@@@@.@@@@@@@...@@@@@@@@..
    ....@@@@@@...@@@@@@@@..@@@@@@...@@@@@@@@..
    ...@@@@@@....@@@@@@@@..@@@@@@....@@@@@@@..
    ..@@@@@@@...@@@@@@@@...@@@@@@....@@@@@@@..
    .@@@@@@@@...@@@@@@@@...@@@@@@....@@@@@@@..
    .@@@@@@@@...@@@@@@@@...@@@@@@....@@@@@@@..
    .@@@@@@@@...@@@@@@@@...@@@@@@....@@@@@@...
    .@@@@@@@@...@@@@@@@....@@@@@@@..@@@@@@@...
    .@@@@@@@@..@@@@@@@@....@@@@@@@@@@@@@@@....
    .@@@@@@@@..@@@@@@@@....@@@@@@@@@@@@@@@....
    .@@@@@@@@@@@@@@@@@@.....@@@@@@@@@@@@@.....
    .@@@@@@@@@@@@@@@@@@.....@@@@@@@...........
    ..@@@@@@@@@@@@@@@@@......@@@..............
    ...@@@@@@@@@@@@@@@@.......................
    ...........@@@@@@@........................
    ...........@@@@@@@........................
    ...........@@@@@@@........................
    ...........@@@@@@@........................
    ..........@@@@@@@@........................
    ..........@@@@@@@@........................
    ..........@@@@@@@@........................
    ..........@@@@@@@@........................
    ..........@@@@@@@@........................
    .........@@@@@@@@@........................
    .........@@@@@@@@@........................
    .........@@@@@@@@@........................
    ..........@@@@@@@@........................
    ...........@@@@@@@........................

    shift-up: 1



# [ፉ] ETHIOPIC SYLLABLE FU
u+1349:
0x34:
    ..............@@@@@@@..............
    ............@@@@@@@@@@.............
    ............@@@@@@@@@@.............
    ............@@@@@@@@@@.............
    .............@@@@@@@@@.............
    ............@@@@@@@@@..............
    ............@@@@@@@@@..............
    ...........@@@@@@@@@@..............
    ..........@@@@@@@@@@...............
    ..........@@@@@@@@@................
    .........@@@@@@@@@.................
    ........@@@@@@@@@..................
    .......@@@@@@@@@...................
    ......@@@@@@@@@@...................
    .....@@@@@@@@@@@@@@@...............
    ....@@@@@@@@@@@@@@@@@..............
    ..@@@@@@@@@@@@@@@@@@@@......@@@....
    ..@@@@@@@@@..@@@@@@@@@....@@@@@@@..
    .@@@@@@@@@...@@@@@@@@@...@@@@@@@@..
    .@@@@@@@@@...@@@@@@@@@@@@@@@@@@@@@.
    .@@@@@@@@@..@@@@@@@@@@@@@@@@@@@@@@.
    ..@@@@@@@@@@@@@@@@@@@@@@@@@@@@@@@@.
    ...@@@@@@@@@@@@@@@@@@@@@@@@@@@@@@@.
    ....@@@@@@@@@@@@@@@@....@@@@@@@@@@.
    ......@@@@@@@@@@@@@.......@@@@@@@..
    ........@@@@@@@@@@.........@@@@@@..
    .........@@@@@@@@..................
    .........@@@@@@@@..................
    .........@@@@@@@...................
    ........@@@@@@@@...................
    ........@@@@@@@@...................
    .......@@@@@@@@....................
    .......@@@@@@@@....................
    .......@@@@@@@@....................
    .......@@@@@@@@....................
    ........@@@@@......................

    shift-up: -6



# [ቶ] ETHIOPIC SYLLABLE TO
u+1276:
0x35:
    ...............@@@@@@@@...........
    .............@@@@@@@@@@@@.........
    ..........@@@@@@@@@@@@@@@@@.......
    ..........@@@@@@@@@@@@@@@@@.......
    .........@@@@@@@...@@@@@@@@.......
    .........@@@@@@@...@@@@@@@........
    .........@@@@@@@..@@@@@@@.........
    .........@@@@@@@@@@@@@@@..........
    ..........@@@@@@@@@@@@@@..........
    ..........@@@@@@@@@@@@@...........
    ..........@@@@@@@@@@@@............
    ...........@@@@@@@@@..............
    ...........@@@@@@@@...............
    ...........@@@@@@@@...............
    ...@@@@@@@@@@@@@@@@@@@@@@@@@@@@...
    .@@@@@@@@@@@@@@@@@@@@@@@@@@@@@@...
    @@@@@@@@@@@@@@@@@@@@@@@@@@@@@@@@..
    @@@@@@@@@..@@@@@@@@@@@@@@@@@@@@@..
    @@@@@@@@...@@@@@@@@@...@@@@@@@@@..
    @@@@@@@@...@@@@@@@@.....@@@@@@@@..
    @@@@@@@@...@@@@@@@@.....@@@@@@@@..
    @@@@@......@@@@@@@@........@@@@...
    @@@@.......@@@@@@@@...............
    ...........@@@@@@@@...............
    ...........@@@@@@@@...............
    ...........@@@@@@@@...............
    ...........@@@@@@@@...............
    ...........@@@@@@@@...............
    ...........@@@@@@@@...............
    ...........@@@@@@@@...............
    ...........@@@@@@@@...............
    ...........@@@@@@@@...............
    ...........@@@@@@@@...............


# [ዩ] ETHIOPIC SYLLABLE YU
u+12e9:
0x36:
    .........@@@@@@@@@........
    .......@@@@@@@@@@@@@......
    .....@@@@@@@@@@@@@@@@.....
    ...@@@@@@@@@@.@@@@@@@@....
    ...@@@@@@@@...@@@@@@@@....
    ..@@@@@@@@@...@@@@@@@@....
    ..@@@@@@@@....@@@@@@@@....
    ..@@@@@@@....@@@@@@@@@....
    .@@@@@@@@....@@@@@@@@@....
    .@@@@@@@@...@@@@@@@@@@....
    .@@@@@@@@..@@@@@@@@@@.....
    .@@@@@@@@.@@@@@@@@@@@.....
    .@@@@@@@@@@@@@@@@@@@......
    .@@@@@@@@@@@@@@@@@@.......
    ..@@@@@@@@@@@@@@@.........
    ..@@@@@@@@@@@@@...........
    ..@@@@@@@@................
    ..@@@@@@@@................
    ...@@@@@@@..@@@@@@........
    ....@@@@@@..@@@@@@@.......
    ....@@@@@@..@@@@@@@.......
    ....@@@@@@@@@@@@@@@.......
    ....@@@@@@@@@@@@@@@@@@@@@.
    ....@@@@@@@@@@@@@@@@@@@@@.
    ....@@@@@@@..@@@@@@@@@@@@.
    ....@@@@@@@.......@@@@@@@.
    ....@@@@@@@.......@@@@@@@.
    ....@@@@@@@.......@@@@@@..
    ....@@@@@@@...............
    ....@@@@@@@...............
    ....@@@@@@@...............
    ....@@@@@@@...............
    ....@@@@@@................


# [ው] ETHIOPIC SYLLABLE WE
u+12cd:
0x37:
    ........................@@@@................
    .............@@@@@@@@@@@@@@@@@..............
    .........@@@@@@@@@@@@@@@@@@@@@@.............
    ........@@@@@@@@@@@@@@@@@@@@@@@.............
    ......@@@@@@@@@@@@@@@@@@@@@@@@@@............
    ....@@@@@@@..@@@@@@@@....@@@@@@@............
    ....@@@@@@...@@@@@@@@....@@@@@@@............
    ...@@@@@@@...@@@@@@@@....@@@@@@@............
    ...@@@@@@...@@@@@@@@@....@@@@@@@............
    ..@@@@@@@...@@@@@@@@@....@@@@@@@............
    ..@@@@@@@...@@@@@@@@@....@@@@@@@............
    ..@@@@@@@...@@@@@@@@@....@@@@@@@....@@@@@...
    .@@@@@@@@...@@@@@@@@@....@@@@@@@@@@@@@@@@@..
    .@@@@@@@@...@@@@@@@@.....@@@@@@@@@@@@@@@@@@.
    .@@@@@@@@...@@@@@@@@.....@@@@@@@@@@@@@@@@@@.
    .@@@@@@@@...@@@@@@@@.....@@@@@@@@@@@@@@@@@@.
    .@@@@@@@@...@@@@@@@@.....@@@@@@.....@@@@@@@.
    .@@@@@@@@...@@@@@@@@....@@@@@@@......@@@@@@.
    .@@@@@@@@...@@@@@@@@....@@@@@@@.......@@@@..
    .@@@@@@@@...@@@@@@@@....@@@@@@..............
    .@@@@@@@@..@@@@@@@@@@..@@@@@@@..............
    .@@@@@@@@..@@@@@@@@@@@@@@@@@@...............
    .@@@@@@@@.@@@@@@@@@@@@@@@@@@@...............
    .@@@@@@@@@@@@@@@@@@@@@@@@@@@@...............
    ..@@@@@@@@@@@@@@@.....@@@@@@................
    ...@@@@@@@@.................................
    .....@@@@...................................

    shift-up: 1



# [ጬ] ETHIOPIC SYLLABLE CHEE
u+132c:
0x38:
    .............@@@@@@@@@@@@@@@@@...........................
    ..........@@@@@@@@@@@@@@@@@@@@@@.........................
    .........@@@@@@@@@@@@@@@@@@@@@@@@........................
    ........@@@@@@@@@@@@@@@@@@@@@@@@@@.......................
    .......@@@@@@@@@@@@@@@@@@@@@@@@@@@.......................
    ......@@@@@@@@@@@@@@@@@@@@@@@@@@@@@............@@@@@@....
    ......@@@@@@@@@@@@@@@@@@@@@@@@@@@@@@@@@@@@@@@@@@@@@@@@@..
    .....@@@@@@@@@@@@@@@@@@@@@@@@@@@@@@@@@@@@@@@@@@@@@@@@@@..
    ....@@@@@@@@@@@@@@@@@@@@..@@@@@@@@@@@@@@@@@@@@@@@@@@@@@@.
    ...@@@@@@@@@@..@@@@@@@@....@@@@@@@@@@@@@@@@@@@@@@@@@@@@@.
    ...@@@@@@@@@....@@@@@@@.....@@@@@@@@@@@@@@@@@@@..@@@@@@@.
    ..@@@@@@@@@@....@@@@@@@.....@@@@@@@@@..@@@@@@@...@@@@@@@.
    ..@@@@@@@@@.....@@@@@@@.....@@@@@@@@@...@@@@@@...@@@@@@@.
    ..@@@@@@@@@.....@@@@@@@.....@@@@@@@@@...@@@@@@@.@@@@@@@@.
    ..@@@@@@@@......@@@@@@@......@@@@@@@@....@@@@@@@@@@@@@@..
    ..@@@@@@@@......@@@@@@@......@@@@@@@@.....@@@@@@@@@@.....
    .@@@@@@@@@......@@@@@@@......@@@@@@@@......@@@@@@@.......
    .@@@@@@@@@......@@@@@@@......@@@@@@@@....................
    .@@@@@@@@@@@@@..@@@@@@@......@@@@@@@@....................
    .@@@@@@@@@@@@@@.@@@@@@@@@@@..@@@@@@@@@@@@................
    .@@@@@@@@@@@@@@.@@@@@@@@@@@@.@@@@@@@@@@@@@...............
    .@@@@@@@..@@@@@.@@@@@@...@@@.@@@@@@@.@@@@@@..............
    .@@@@@@@..@@@@@.@@@@@@...@@@.@@@@@@@..@@@@@..............
    .@@@@@@@..@@@@@.@@@@@@...@@@.@@@@@@@..@@@@@..............
    .@@@@@@@@@@@@@@.@@@@@@@@@@@@.@@@@@@@@@@@@@@..............
    .@@@@@@@@@@@@@@.@@@@@@@@@@@@.@@@@@@@@@@@@@@..............
    .@@@@@@@@@@@@@..@@@@@@@@@@@@.@@@@@@@@@@@@@...............
    ..@@@@@@@@@@@@...@@@@@@@@@@@..@@@@@@@@@@@@...............

    shift-up: -1



# [ፃ] ETHIOPIC SYLLABLE TZAA
u+1343:
0x39:
    .............@@@@.......
    .........@@@@@@@@@......
    ....@@@@@@@@@@@@@@@@....
    ...@@@@@@@@@@@@@@@@@@...
    ..@@@@@@@@@@@@@@@@@@@...
    ..@@@@@@@...@@@@@@@@@@..
    .@@@@@@@@...@@@@@@@@@@..
    .@@@@@@@@..@@@@@@@@@@@..
    .@@@@@@@@@@@@@@@@@@@@@..
    .@@@@@@@@@@@@@@@@@@@@@..
    .@@@@@@@@@@@@@@@@@@@@...
    .@@@@@@@@...@@@@@@@@@...
    .@@@@@@@@...@@@@@@@@@...
    ..@@@@@@@..@@@@@@@@@@...
    ..@@@@@@@@@@@@@@@@@@@...
    ...@@@@@@@@@@@@@@@@@....
    ....@@@@@@@@@@@@@@@@....
    ....@@@@@@@@@@@@@@@@....
    ...........@@@@@@@@@....
    ...........@@@@@@@@.....
    ...........@@@@@@@@.....
    ..........@@@@@@@@@.....
    ..........@@@@@@@@......
    ..........@@@@@@@@......
    ..........@@@@@@@@......
    .........@@@@@@@@@......
    .........@@@@@@@@.......
    .........@@@@@@@@.......
    .........@@@@@@@@.......
    .........@@@@@@@@.......
    .........@@@@@@@@.......
    .........@@@@@@@@.......
    .........@@@@@@@........


# [ኽ] ETHIOPIC SYLLABLE KXE
u+12bd:
0x3a:
    ..@@@@@..............@@@@@@@@@........
    .@@@@@@@@............@@@@@@@@@@.......
    .@@@@@@@@@@@@@@@@@@@@@@@@@@@@@@.......
    .@@@@@@@@@@@@@@@@@@@@@@@@@@@@@@.......
    .@@@@@@@@@@@@@@@@@@@@...@@@@@@@.......
    .@@@@@@@@.@@@@@@@@........@@@@........
    .@@@@@@@..@@@@@@@@....................
    ..@@@@....@@@@@@@@....................
    ..........@@@@@@@@....................
    ..........@@@@@@@@......@@@@@@@.......
    ..........@@@@@@@@..@@@@@@@@@@@@@.....
    ..........@@@@@@@@@@@@@@@@@@@@@@@@....
    ..........@@@@@@@@@@@@@@@@@@@@@@@@@...
    ...............@@@@@@@@@...@@@@@@@@...
    ...............@@@@@@@@.....@@@@@@@@..
    ..............@@@@@@@.......@@@@@@@@..
    .............@@@@@@@@.......@@@@@@@@..
    ............@@@@@@@@@.......@@@@@@@@..
    ............@@@@@@@@@.......@@@@@@@@..
    ............@@@@@@@@@@......@@@@@@@@..
    ............@@@@@@@@@@......@@@@@@@@..
    ............@@@@@@@@@@......@@@@@@@...
    ..............@@@@@@@.......@@@@@@@...
    ..............@@@@@@@......@@@@@@@@...
    ............@@@@@@@@.......@@@@@@@@...
    ............@@@@@@@@.......@@@@@@@....
    ...........@@@@@@@@........@@@@@@@....
    ...........@@@@@@@@.......@@@@@@@@....
    ..........@@@@@@@@@.......@@@@@@@@....
    ..........@@@@@@@@@.......@@@@@@@@....
    ..........@@@@@@@@@.......@@@@@@@@....
    ..........@@@@@@@@........@@@@@@@@....
    ..........@@@@@@@@........@@@@@@@@....
    ..........@@@@@@@@........@@@@@@@@....
    ..........@@@@@@@@........@@@@@@@@....
    ..........@@@@@@@@........@@@@@@@@....

    shift-up: -1


0x3b:
    -

    shift-up: 40



# [ ] SPACE
u+0020:
0x3c:
    -

    shift-up: 40



# [!] EXCLAMATION MARK
u+0021:
0x3d:
    .....@@@@@....
    ....@@@@@@@...
    ....@@@@@@@...
    ....@@@@@@@...
    ....@@@@@@@...
    ....@@@@@@@...
    ....@@@@@@@...
    ....@@@@@@@...
    ....@@@@@@@...
    .....@@@@@....
    .....@@@@@....
    .....@@@@@....
    .....@@@@@....
    .....@@@@@....
    .....@@@@@....
    .....@@@@@....
    .....@@@@@....
    .....@@@@@....
    ......@@@.....
    ......@@@.....
    ......@@@.....
    ......@@@.....
    ......@@@.....
    ..............
    ..............
    ......@@@@....
    .....@@@@@@...
    .....@@@@@@...
    .....@@@@@@...
    .....@@@@@@...
    .....@@@@@@...
    .....@@@@@@...
    ......@@@@....


# [ህ] ETHIOPIC SYLLABLE HE
u+1205:
0x3e:
    ..@@@@@@@@........@@@@@@@@
    .@@@@@@@@@........@@@@@@@@
    .@@@@@@@@........@@@@@@@@.
    .@@@@@@@@........@@@@@@@@.
    .@@@@@@@@........@@@@@@@@.
    .@@@@@@@@........@@@@@@@@.
    .@@@@@@@@........@@@@@@@@.
    .@@@@@@@@........@@@@@@@@.
    .@@@@@@@@........@@@@@@@@.
    .@@@@@@@@........@@@@@@@@.
    .@@@@@@@@@.......@@@@@@@@.
    .@@@@@@@@@@......@@@@@@@@.
    ..@@@@@@@@@......@@@@@@@@.
    ...@@@@@@@@......@@@@@@@@.
    ...@@@@@@@.......@@@@@@@..
    ...@@@@@@@......@@@@@@@@..
    ...@@@@@@@......@@@@@@@@..
    ...@@@@@@@......@@@@@@@@..
    ..@@@@@@@@.....@@@@@@@@@..
    ..@@@@@@@@.....@@@@@@@@@..
    ..@@@@@@@@.....@@@@@@@@...
    ..@@@@@@@......@@@@@@@@...
    ..@@@@@@@......@@@@@@@....
    ..@@@@@@@.....@@@@@@@@....
    ..@@@@@@@@...@@@@@@@@.....
    ...@@@@@@@@@@@@@@@@@......
    ...@@@@@@@@@@@@@@@........
    ....@@@@@@@@@@@@@.........
    ....@@@@@@@@@@@@..........
    ........@@@@@.............


# [።] ETHIOPIC FULL STOP
u+1362:
0x3f:
    ......@@@@@.......@@@@@@.........
    .....@@@@@@@.....@@@@@@@@........
    .....@@@@@@@.....@@@@@@@@........
    .....@@@@@@@.....@@@@@@@@........
    .....@@@@@@@.....@@@@@@@@........
    .....@@@@@@@@....@@@@@@@@@.......
    ......@@@@@@@.....@@@@@@@@.......
    .................................
    .................................
    .................................
    .................................
    .......@@@@@.......@@@@@@........
    ......@@@@@@......@@@@@@@........
    ......@@@@@@......@@@@@@@........
    ......@@@@@@......@@@@@@@........
    ......@@@@@@......@@@@@@@........
    ......@@@@@@@.....@@@@@@@@.......
    .......@@@@@@......@@@@@@@.......

    shift-up: 5



# [$] DOLLAR SIGN
u+0024:
0x40:
    ...........@.........
    ..........@@.........
    .........@@@.........
    ........@@@@@@@@.....
    ......@@@@@@@@@@@@...
    .....@@@@@@@@@@@@@@..
    ...@@@@@@@@@..@@@@@..
    ...@@@@@.@@@...@@@@..
    ..@@@@@@.@@@...@@@@..
    ..@@@@@@.@@@....@@@..
    ..@@@@@@@@@@....@@@..
    ..@@@@@@@@@@.........
    ..@@@@@@@@@@.........
    ...@@@@@@@@@.........
    ....@@@@@@@@@@.......
    ....@@@@@@@@@@@@.....
    ......@@@@@@@@@@@....
    .......@@@@@@@@@@@...
    .........@@@@@@@@@@..
    .........@@@@@@@@@@@.
    .........@@@@@@@@@@@.
    .........@@@.@@@@@@@.
    ...@@....@@@..@@@@@@.
    ..@@@....@@@..@@@@@@.
    .@@@@....@@@...@@@@@.
    ..@@@@...@@@...@@@@@.
    ..@@@@@..@@@...@@@@@.
    ..@@@@@@@@@@.@@@@@@..
    ..@@@@@@@@@@@@@@@@...
    ...@@@@@@@@@@@@@@....
    .....@@@@@@@@@@......
    .........@@@.........
    .........@@@.........
    .........@@@.........
    .........@@@.........

    shift-up: 2



# [%] PERCENT SIGN
u+0025:
0x41:
    ........@@@@.........@@@.....
    ......@@@@@@@@.....@@@@@.....
    .....@@@@@@@@@@@@@@@@@@@.....
    ....@@@@@@@@@@@@@@@@@@@......
    ...@@@@@@.@@@@@@@@@@@@@......
    ..@@@@@@...@@@....@@@@.......
    ..@@@@@....@@@....@@@@.......
    @@@@@@@....@@@...@@@@........
    @@@@@@.....@@@...@@@@........
    @@@@@@....@@@@..@@@@.........
    @@@@@@....@@@@..@@@@.........
    @@@@@.....@@@..@@@@..........
    @@@@@....@@@@.@@@@@..........
    @@@@@@...@@@..@@@@.....@@@@@.
    @@@@@@@@@@@@.@@@@@...@@@@@@@.
    .@@@@@@@@@@..@@@@...@@@@@@@@@
    .@@@@@@@@...@@@@...@@@@@@@@@@
    ...@@@@@@...@@@@..@@@@@@..@@@
    ...........@@@@..@@@@@@....@@
    ..........@@@@..@@@@@@.....@@
    ..........@@@@..@@@@@......@@
    .........@@@@..@@@@@@......@@
    .........@@@@..@@@@@@.....@@@
    .........@@@...@@@@@......@@.
    .........@@@...@@@@@.....@@@.
    ........@@@....@@@@@@....@@@.
    .......@@@@....@@@@@@..@@@@@.
    .......@@@.....@@@@@@@@@@@@..
    ......@@@@......@@@@@@@@@@...
    ......@@@........@@@@@@@@....

    shift-up: 1



# [«] LEFT-POINTING DOUBLE ANGLE QUOTATION MARK
u+00ab:
0x42:
    .......@@......@@.........
    ......@@@.....@@@@........
    .....@@@@....@@@@@........
    ....@@@@@...@@@@@@........
    ...@@@@@@..@@@@@@.........
    ...@@@@@@..@@@@@@.........
    ...@@@@....@@@@...........
    ...@@@@....@@@@...........
    .@@@@@....@@@@............
    .@@@@@....@@@@............
    .@@@@....@@@@.............
    .@@@@....@@@@.............
    .@@@@@...@@@@@............
    .@@@@@...@@@@@............
    ..@@@@@...@@@@@...........
    ..@@@@@...@@@@@...........
    ...@@@@@@..@@@@@@.........
    ...@@@@@@..@@@@@@@........
    ...@@@@@@..@@@@@@@........
    ....@@@@@...@@@@@@........
    .....@@@@....@@@@.........

    shift-up: 7



# [ሀ] ETHIOPIC SYLLABLE HA
u+1200:
0x43:
    ..................@@@@@@@...
    ....@@@@@@.......@@@@@@@@@..
    ...@@@@@@@@......@@@@@@@@@..
    ...@@@@@@@@......@@@@@@@@@..
    ...@@@@@@@@......@@@@@@@@@..
    ...@@@@@@@@......@@@@@@@@@..
    ...@@@@@@@@......@@@@@@@@@..
    ...@@@@@@@@......@@@@@@@@@..
    ...@@@@@@@@......@@@@@@@@@..
    ...@@@@@@@.......@@@@@@@@@..
    ...@@@@@@@.......@@@@@@@@@..
    ...@@@@@@@.......@@@@@@@@@..
    ...@@@@@@@.......@@@@@@@@...
    ..@@@@@@@@.......@@@@@@@@...
    ..@@@@@@@@.......@@@@@@@@...
    ..@@@@@@@@......@@@@@@@@@...
    ..@@@@@@@.......@@@@@@@@@...
    ..@@@@@@@.......@@@@@@@@....
    .@@@@@@@@.......@@@@@@@@....
    .@@@@@@@@.......@@@@@@@@....
    .@@@@@@@@......@@@@@@@@.....
    .@@@@@@@@......@@@@@@@@.....
    .@@@@@@@@......@@@@@@@@.....
    .@@@@@@@@......@@@@@@@......
    .@@@@@@@@.....@@@@@@@.......
    .@@@@@@@@....@@@@@@@........
    .@@@@@@@@...@@@@@@@@........
    ..@@@@@@@..@@@@@@@@.........
    ..@@@@@@@@@@@@@@@...........
    ..@@@@@@@@@@@@@@............
    ...@@@@@@@@@@@@.............
    .....@@@@@@@@...............

    shift-up: -1



# [(] LEFT PARENTHESIS
u+0028:
0x44:
    ............@@.......
    ...........@@@.......
    ..........@@@@.......
    .........@@@@@.......
    ........@@@..........
    .......@@@...........
    ......@@@@...........
    ......@@@............
    .....@@@@............
    .....@@@@............
    ....@@@@@............
    ....@@@@@............
    ...@@@@@.............
    ...@@@@@.............
    ...@@@@@.............
    ...@@@@@.............
    ..@@@@@@.............
    ..@@@@@@.............
    ..@@@@@@.............
    ..@@@@@@.............
    ..@@@@@@.............
    ..@@@@@@.............
    ..@@@@@@.............
    ...@@@@@@............
    ...@@@@@@............
    ...@@@@@@............
    ....@@@@@............
    ....@@@@@............
    .....@@@@............
    .....@@@@@...........
    ......@@@@@..........
    .......@@@@..........
    .......@@@@@@........
    ........@@@@@@.......
    .........@@@@@.......
    .........@@@@@.......
    ..........@@@@.......

    shift-up: -2



# [)] RIGHT PARENTHESIS
u+0029:
0x45:
    ...........@@.........
    ..........@@@@........
    .........@@@@@@.......
    .........@@@@@@@......
    .........@@@@@@@@.....
    ...........@@@@@@@....
    ............@@@@@@@...
    ............@@@@@@@...
    .............@@@@@@@..
    .............@@@@@@@..
    ..............@@@@@@@.
    ..............@@@@@@@.
    ..............@@@@@@@.
    ..............@@@@@@@.
    ...............@@@@@@@
    ...............@@@@@@@
    ...............@@@@@@@
    ...............@@@@@@@
    ...............@@@@@@@
    ...............@@@@@@@
    ...............@@@@@@@
    ...............@@@@@@@
    ...............@@@@@@@
    ...............@@@@@@@
    ...............@@@@@@.
    ...............@@@@@@.
    ...............@@@@@@.
    ..............@@@@@@..
    ..............@@@@@@..
    ..............@@@@@...
    .............@@@@@@...
    .............@@@@@....
    ............@@@@@@....
    ...........@@@@@@.....
    ..........@@@@@@......
    .........@@@@@@.......
    .........@@@@@........
    .........@@@@.........

    shift-up: -2



# [»] RIGHT-POINTING DOUBLE ANGLE QUOTATION MARK
u+00bb:
0x46:
    .........@........@@......
    ........@@@......@@@@.....
    .......@@@@@....@@@@@@....
    ......@@@@@@...@@@@@@@....
    .......@@@@@....@@@@@@....
    .......@@@@@....@@@@@@....
    .........@@@@.....@@@@@...
    .........@@@@.....@@@@@...
    .........@@@@@.....@@@@@..
    .........@@@@@.....@@@@@..
    ..........@@@@......@@@@..
    ..........@@@@......@@@@..
    ..........@@@@......@@@@..
    ..........@@@@......@@@@..
    .........@@@@......@@@@...
    .........@@@@......@@@@...
    ........@@@@.....@@@@@....
    .......@@@@@....@@@@@@....
    .......@@@@@....@@@@@@....
    ......@@@@@....@@@@@@.....
    .......@@@......@@@@......

    shift-up: 7



# [=] EQUALS SIGN
u+003d:
0x47:
    ..@@@@@@@@@@@@@@@@..
    .@@@@@@@@@@@@@@@@@..
    .@@@@@@@@@@@@@@@@@..
    .@@@@@@@@@@@@@@@@@..
    ....................
    ....................
    ....................
    ....................
    ....................
    ..@@@@@@@@@@@@@@@@..
    .@@@@@@@@@@@@@@@@@..
    .@@@@@@@@@@@@@@@@@..
    .@@@@@@@@@@@@@@@@@..

    shift-up: 6



# [ዘ] ETHIOPIC SYLLABLE ZA
u+12d8:
0x48:
    .@@@@@@@@.......@@@@@@@@..
    .@@@@@@@@.......@@@@@@@@..
    .@@@@@@@@.......@@@@@@@@..
    .@@@@@@@@.......@@@@@@@@..
    .@@@@@@@@.......@@@@@@@@..
    .@@@@@@@@.......@@@@@@@@..
    .@@@@@@@@.......@@@@@@@@..
    .@@@@@@@@.......@@@@@@@@..
    .@@@@@@@@......@@@@@@@@@..
    .@@@@@@@@@@@@@@@@@@@@@@@..
    .@@@@@@@@@@@@@@@@@@@@@@@..
    .@@@@@@@@@@@@@@@@@@@@@@@..
    .@@@@@@@@@@@@@@@@@@@@@@@..
    .@@@@@@@@@@@@@@@@@@@@@@@..
    .@@@@@@@@......@@@@@@@@@..
    .@@@@@@@@......@@@@@@@@@..
    .@@@@@@@@......@@@@@@@@@..
    .@@@@@@@@......@@@@@@@@@..
    .@@@@@@@@......@@@@@@@@@..
    .@@@@@@@@.......@@@@@@@@..
    .@@@@@@@@.......@@@@@@@@..
    .@@@@@@@@.......@@@@@@@@..
    .@@@@@@@@.......@@@@@@@@..
    .@@@@@@@@.......@@@@@@@@..
    .@@@@@@@@.......@@@@@@@@..
    .@@@@@@@@.......@@@@@@@@..
    .@@@@@@@@.......@@@@@@@@..
    .@@@@@@@@.......@@@@@@@@..
    .@@@@@@@@.......@@@@@@@@..
    .@@@@@@@@.......@@@@@@@@..
    .@@@@@@@........@@@@@@@@..


# [?] QUESTION MARK
u+003f:
0x49:
    ..............@@@@@@........
    ............@@@@@@@@@.......
    ...........@@@@@@@@@@@......
    ..........@@@@@@@@@@@@@.....
    .........@@@@@@@@@@@@@@@....
    .........@@@@@@@@@@@@@@@@...
    .........@@@@@.@@@@@@@@@@...
    ........@@@@@@..@@@@@@@@@@..
    ........@@@@@@...@@@@@@@@@..
    ........@@@@@@...@@@@@@@@@..
    ........@@@@@@...@@@@@@@@@..
    ........@@@@@@...@@@@@@@@...
    ........@@@@@@...@@@@@@@@...
    .................@@@@@@@....
    ................@@@@@@@@....
    ................@@@@@@@.....
    ................@@@@@@@.....
    ...............@@@@@@@......
    ...............@@@@@@.......
    ...............@@@@@@.......
    ..............@@@@@@........
    ..............@@@@@@........
    ..............@@@@@.........
    .............@@@@@..........
    .............@@@@@..........
    ............................
    ............................
    ............................
    ...............@@@@.........
    ..............@@@@@@........
    .............@@@@@@@........
    ............@@@@@@@@........
    ............@@@@@@@@........
    ............@@@@@@@@........
    ............@@@@@@@@........
    ............@@@@@@@@........
    .............@@@@@@.........

    shift-up: -2



# [ሸ] ETHIOPIC SYLLABLE SHA
u+1238:
0x4a:
    .........................@@.
    ........................@@@.
    ...@@@@...............@@@@@.
    ..@@@@@@............@@@@@@@.
    ..@@@@@@@.........@@@@@@@@@.
    ..@@@@@@@@@@@@@@@@@@@@@@@@@.
    ..@@@@@@@@@@@@@@@@@@@@@@@@@.
    ..@@@@@@@@@@@@@@@@@@@@@@@@@.
    ..@@@@@@@@@@@@@@@@.....@@@@.
    ..@@@@@...@@@@@@@........@@.
    ..@@@.....@@@@@@@...........
    ..........@@@@@@@@@@........
    ........@@@@@@@@@@@@........
    ......@@@@@@@.@@@@@@@.......
    .....@@@@@@@...@@@@@@@......
    ....@@@@@@@.....@@@@@@@.....
    ....@@@@@@@.....@@@@@@@.....
    ...@@@@@@@@.....@@@@@@@@....
    ...@@@@@@@.......@@@@@@@....
    ..@@@@@@@@.......@@@@@@@@...
    ..@@@@@@@@.......@@@@@@@@...
    ..@@@@@@@@.......@@@@@@@@...
    ..@@@@@@@........@@@@@@@@...
    ..@@@@@@@........@@@@@@@@...
    ..@@@@@@@........@@@@@@@@...
    ..@@@@@@@........@@@@@@@@...
    ..@@@@@@@........@@@@@@@@...
    ..@@@@@@@........@@@@@@@@...
    ..@@@@@@@........@@@@@@@@...
    ..@@@@@@@........@@@@@@@@...
    ..@@@@@@@........@@@@@@@@...
    ..@@@@@@@........@@@@@@@@...
    ..@@@@@@@........@@@@@@@@...
    ..@@@@@@@........@@@@@@@@...
    ..@@@@@@@........@@@@@@@@...
    ..@@@@@@@........@@@@@@@@...
    ..@@@@@@@........@@@@@@@@...
    ..@@@@@@@........@@@@@@@@...


# [ዥ] ETHIOPIC SYLLABLE ZHE
u+12e5:
0x4b:
    ..@@@..................@@.....................
    .@@@@@@.............@@@@@@....................
    .@@@@@@@...........@@@@@@@....................
    .@@@@@@@@..........@@@@@@@....................
    .@@@@@@@@.........@@@@@@@@....................
    .@@@@@@@@........@@@@@@@@@....................
    .@@@@@@@@@@@@@@@@@@@@@@@@@....................
    .@@@@@@@@@@@@@@@@@@@@@@@@.....................
    ..@@@@@@@@@@@@@@@@@@@@@@......................
    .........@@@@@@@..............................
    ..........@@@@@@@.............................
    .........@@@@@@@@.......................@@@...
    .........@@@@@@@@.............@@@@@@@@@@@@@@..
    ......@@@@@@@@@@@@..........@@@@@@@@@@@@@@@@..
    ...@@@@@@@@@@@@@@@@.........@@@@@@@@@@@@@@@@..
    ..@@@@@@@@@@@@@@@@@@.......@@@@@@@.@@@@@@@@@@.
    ..@@@@@@@@@.@@@@@@@@......@@@@@@@...@@@@@@@@@.
    ..@@@@@@@@..@@@@@@@@......@@@@@@@...@@@@@@@@@.
    .@@@@@@@@...@@@@@@@@.....@@@@@@@.....@@@@@@@@.
    .@@@@@@@@...@@@@@@@@.....@@@@@@........@@@@@@.
    .@@@@@@@@...@@@@@@@@.....@@@@@@...............
    ..@@@@@.....@@@@@@@@.....@@@@@@...............
    ............@@@@@@@@.....@@@@@@...............
    ............@@@@@@@@.....@@@@@@...............
    ............@@@@@@@@@@@@@@@@@@@...............
    ............@@@@@@@@@@@@@@@@@@@...............
    ............@@@@@@@@@@@@@@@@@@@...............
    ............@@@@@@@@@..@@@@@@@@...............
    ............@@@@@@@@....@@@@@@@...............
    ............@@@@@@@@....@@@@@@@...............
    ............@@@@@@@@....@@@@@@@...............
    ............@@@@@@@@....@@@@@@@...............
    ............@@@@@@@@....@@@@@@@...............
    ............@@@@@@@@....@@@@@@@...............
    ............@@@@@@@@....@@@@@@@...............
    ............@@@@@@@@....@@@@@@@...............
    ............@@@@@@@@....@@@@@@@...............
    ............@@@@@@@@....@@@@@@@...............
    ............@@@@@@@@....@@@@@@@...............
    ............@@@@@@@@....@@@@@@@...............

    shift-up: -1



# [0] DIGIT ZERO
u+0030:
0x4c:
    .........@@@@@@@@@.......
    .........@@@@@@@@@@......
    ........@@@@@@@@@@@@.....
    .......@@@@@@@@@@@@@@....
    ......@@@@@..@@@@@@@@....
    .....@@@@@....@@@@@@@@...
    ....@@@@@@....@@@@@@@@...
    ....@@@@@......@@@@@@@...
    ...@@@@@@......@@@@@@@...
    ...@@@@@@......@@@@@@@@..
    ...@@@@@@......@@@@@@@@..
    ..@@@@@@@.......@@@@@@@..
    ..@@@@@@@.......@@@@@@@..
    ..@@@@@@@.......@@@@@@@..
    ..@@@@@@@.......@@@@@@@..
    ..@@@@@@@.......@@@@@@@..
    ..@@@@@@@.......@@@@@@@..
    ..@@@@@@@.......@@@@@@@..
    ..@@@@@@@.......@@@@@@@..
    ..@@@@@@@.......@@@@@@@..
    ..@@@@@@@.......@@@@@@@..
    ..@@@@@@@.......@@@@@@...
    ...@@@@@@.......@@@@@@...
    ...@@@@@@......@@@@@@@...
    ...@@@@@@@.....@@@@@@....
    ....@@@@@@@....@@@@@@....
    ....@@@@@@@@...@@@@@@....
    .....@@@@@@@@@@@@@@@.....
    ......@@@@@@@@@@@@@......
    .......@@@@@@@@@@@.......
    ........@@@@@@@@.........


# [1] DIGIT ONE
u+0031:
0x4d:
    ...........@@@.......
    .........@@@@@.......
    .......@@@@@@@.......
    ......@@@@@@@@.......
    .....@@@@@@@@@.......
    .....@@@@@@@@@.......
    .........@@@@@.......
    .........@@@@@.......
    .........@@@@@.......
    .........@@@@@.......
    .........@@@@@.......
    .........@@@@@.......
    .........@@@@@.......
    .........@@@@@.......
    .........@@@@@.......
    .........@@@@@.......
    .........@@@@@.......
    .........@@@@@.......
    .........@@@@@.......
    .........@@@@@.......
    .........@@@@@.......
    .........@@@@@.......
    .........@@@@@.......
    .........@@@@@.......
    .........@@@@@.......
    .........@@@@@@......
    .......@@@@@@@@@@@...
    ......@@@@@@@@@@@@...
    .....@@@@@@@@@@@@@...


# [2] DIGIT TWO
u+0032:
0x4e:
    .........@@@@@@@@@@.......
    .........@@@@@@@@@@@......
    ........@@@@@@@@@@@@@.....
    .......@@@@@@@@@@@@@@.....
    ......@@@@@@@@@@@@@@@.....
    .....@@@@@@@@@@@@@@@@@....
    .....@@@@....@@@@@@@@@....
    ....@@@@@.....@@@@@@@@....
    ....@@@@.......@@@@@@@....
    ...@@@@@.......@@@@@@@....
    ...@@@@@.......@@@@@@@....
    ...............@@@@@@@....
    ...............@@@@@@.....
    ...............@@@@@@.....
    ...............@@@@@@.....
    ..............@@@@@@......
    ..............@@@@@@......
    .............@@@@@@.......
    .............@@@@@........
    ...........@@@@@..........
    ..........@@@@@...........
    ..........@@@@@........@..
    .........@@@@@........@@..
    .........@@@@........@@@..
    ........@@@@@@@@@@@@@@@@..
    .......@@@@@@@@@@@@@@@@@..
    ......@@@@@@@@@@@@@@@@@...
    .....@@@@@@@@@@@@@@@@@@...
    ....@@@@@@@@@@@@@@@@@@....
    ...@@@@@@@@@@@@@@@@@@@....

    shift-up: 1



# [3] DIGIT THREE
u+0033:
0x4f:
    .........@@@@@@@......
    .......@@@@@@@@@@@....
    ......@@@@@@@@@@@@....
    .....@@@@@@@@@@@@@....
    ....@@@@@@@@@@@@@@@...
    ...@@@@@...@@@@@@@@...
    ...@@@@....@@@@@@@@...
    ..@@@@@.....@@@@@@@...
    ..@@@@......@@@@@@@...
    ............@@@@@@....
    ............@@@@@@....
    ............@@@@@.....
    ..........@@@@@@@.....
    .........@@@@@@@@@....
    ........@@@@@@@@@@@...
    .......@@@@@@@@@@@@...
    ......@@@@@@@@@@@@@@..
    .........@@@@@@@@@@@..
    ...........@@@@@@@@@..
    .............@@@@@@@..
    ..............@@@@@@..
    ..............@@@@@@..
    ..............@@@@@@..
    ..............@@@@@@..
    ......@.......@@@@@@..
    .....@@@@.....@@@@@...
    ....@@@@@@..@@@@@@@...
    ...@@@@@@@@@@@@@@@....
    ..@@@@@@@@@@@@@@@.....
    ..@@@@@@@@@@@@@@......
    ...@@@@@@@@@@@........

    shift-up: 1



# [4] DIGIT FOUR
u+0034:
0x50:
    ................@@@.......
    ...............@@@@.......
    ..............@@@@@.......
    .............@@@@@@.......
    ............@@@@@@@.......
    ............@@@@@@@.......
    ...........@@@@@@@@.......
    ..........@@@@@@@@@.......
    ..........@@@@@@@@@.......
    .........@@@@@@@@@@.......
    .........@@@@@@@@@@.......
    .........@@@@@@@@@@.......
    ........@@@@.@@@@@@.......
    .......@@@@..@@@@@@.......
    .......@@@@..@@@@@@.......
    ......@@@@...@@@@@@.......
    .....@@@@....@@@@@@.......
    .....@@@@....@@@@@@.......
    ....@@@@@@@@@@@@@@@@@@@...
    ..@@@@@@@@@@@@@@@@@@@@@...
    ..@@@@@@@@@@@@@@@@@@@@@...
    ..@@@@@@@@@@@@@@@@@@@@@...
    ..@@@@@@@@@@@@@@@@@@@@@...
    .............@@@@@@.......
    .............@@@@@@.......
    .............@@@@@@.......
    .............@@@@@@.......
    .............@@@@@@.......
    .............@@@@@@.......
    .............@@@@@@.......

    shift-up: 1



# [5] DIGIT FIVE
u+0035:
0x51:
    ...................@@.
    .........@@@@@@@@@@@@.
    ........@@@@@@@@@@@@@.
    .......@@@@@@@@@@@@@..
    .......@@@@@@@@@@@@...
    ......@@@@@@@@@@@@@...
    ......@@@@............
    .....@@@@@@...........
    .....@@@@@@@@@........
    ....@@@@@@@@@@@@......
    ....@@@@@@@@@@@@@.....
    ....@@@@@@@@@@@@@@....
    ...@@@@@@@@@@@@@@@@...
    ...@@@@@@@@@@@@@@@@...
    ........@@@@@@@@@@@...
    .........@@@@@@@@@@@..
    ...........@@@@@@@@@..
    ............@@@@@@@@..
    .............@@@@@@@..
    .............@@@@@@@..
    ..............@@@@@@..
    ..............@@@@@@..
    ..............@@@@@@..
    ..............@@@@@@..
    .....@@@......@@@@@...
    ....@@@@@....@@@@@@...
    ...@@@@@@@@.@@@@@@....
    ..@@@@@@@@@@@@@@@@....
    ..@@@@@@@@@@@@@@@.....
    ..@@@@@@@@@@@@@.......
    ...@@@@@@@@@@.........

    shift-up: 1



# [6] DIGIT SIX
u+0036:
0x52:
    ....................@@@...
    ..............@@@@@@@@@...
    ............@@@@@@@@@@@...
    ...........@@@@@@@@@@.....
    ..........@@@@@@@@........
    .........@@@@@@@@.........
    .........@@@@@@...........
    ........@@@@@@............
    .......@@@@@@.............
    ......@@@@@@..............
    .....@@@@@@@.@@@@@@.......
    .....@@@@@@@@@@@@@@@@.....
    ....@@@@@@@@@@@@@@@@@@....
    ....@@@@@@@@@@@@@@@@@@....
    ....@@@@@@@@@@@@@@@@@@@...
    ....@@@@@@@@.@@@@@@@@@@...
    ...@@@@@@@.....@@@@@@@@@..
    ...@@@@@@@......@@@@@@@@..
    ...@@@@@@.......@@@@@@@@..
    ...@@@@@@.......@@@@@@@@..
    ...@@@@@@........@@@@@@@..
    ...@@@@@@@.......@@@@@@@..
    ...@@@@@@@.......@@@@@@@..
    ....@@@@@@@......@@@@@@@..
    ....@@@@@@@......@@@@@@...
    ....@@@@@@@@.....@@@@@@...
    .....@@@@@@@@@..@@@@@@@...
    ......@@@@@@@@@@@@@@@@....
    ......@@@@@@@@@@@@@@@.....
    ........@@@@@@@@@@@@......
    .........@@@@@@@@@........

    shift-up: 1



# [7] DIGIT SEVEN
u+0037:
0x53:
    ......@@@@@@@@@@@@@@@@..
    .....@@@@@@@@@@@@@@@@@..
    ....@@@@@@@@@@@@@@@@@@..
    ....@@@@@@@@@@@@@@@@@@..
    ....@@@@@@@@@@@@@@@@@@..
    ...@@@@@@.......@@@@@...
    ...@@@@@.......@@@@@@...
    ..@@@@@........@@@@@@...
    ...............@@@@@....
    ..............@@@@@@....
    ..............@@@@@@....
    ..............@@@@@.....
    .............@@@@@@.....
    .............@@@@@@.....
    .............@@@@@......
    ............@@@@@@......
    ............@@@@@@......
    ............@@@@@@......
    ...........@@@@@@.......
    ...........@@@@@@.......
    ..........@@@@@@........
    ..........@@@@@@........
    ..........@@@@@@........
    .........@@@@@@.........
    .........@@@@@@.........
    .........@@@@@@.........
    .........@@@@@..........
    .........@@@@@..........
    .........@@@@@..........
    .........@@@@...........

    shift-up: 1



# [8] DIGIT EIGHT
u+0038:
0x54:
    .........@@@@@@@.......
    .......@@@@@@@@@@@@....
    ......@@@@@@@@@@@@@....
    .....@@@@@.@@@@@@@@@...
    ....@@@@@....@@@@@@@...
    ...@@@@@@....@@@@@@@...
    ...@@@@@@.....@@@@@@...
    ..@@@@@@@.....@@@@@@...
    ..@@@@@@@.....@@@@@@...
    ..@@@@@@@@....@@@@@@...
    ..@@@@@@@@@@.@@@@@@@...
    ...@@@@@@@@@@@@@@@@....
    ...@@@@@@@@@@@@@@@.....
    ....@@@@@@@@@@@@@......
    .....@@@@@@@@@@@@......
    ......@@@@@@@@@@@@.....
    .......@@@@@@@@@@@@....
    ......@@@@@@@@@@@@@@...
    .....@@@@@@@@@@@@@@@...
    ....@@@@@.@@@@@@@@@@...
    ...@@@@@@...@@@@@@@@@..
    ..@@@@@@@....@@@@@@@@..
    ..@@@@@@@.....@@@@@@@..
    ..@@@@@@@.....@@@@@@@..
    ..@@@@@@@.....@@@@@@@..
    ..@@@@@@@.....@@@@@@@..
    ..@@@@@@@@@...@@@@@@...
    ...@@@@@@@@@@@@@@@@@...
    ....@@@@@@@@@@@@@@@....
    .....@@@@@@@@@@@@@.....
    .......@@@@@@@@@.......

    shift-up: 1



# [9] DIGIT NINE
u+0039:
0x55:
    ..........@@@@@@........
    ........@@@@@@@@@@@.....
    .......@@@@@@@@@@@@@....
    ......@@@@@@@@@@@@@@....
    .....@@@@@...@@@@@@@@...
    ....@@@@@....@@@@@@@@...
    ...@@@@@@.....@@@@@@@...
    ...@@@@@@.....@@@@@@@@..
    ...@@@@@@.....@@@@@@@@..
    ..@@@@@@@......@@@@@@@..
    ..@@@@@@@......@@@@@@@..
    ..@@@@@@@......@@@@@@@..
    ..@@@@@@@......@@@@@@@..
    ..@@@@@@@......@@@@@@@..
    ..@@@@@@@@.....@@@@@@@..
    ...@@@@@@@@....@@@@@@@..
    ...@@@@@@@@@@@@@@@@@@@..
    ....@@@@@@@@@@@@@@@@@@..
    ....@@@@@@@@@@@@@@@@@@..
    .....@@@@@@@@@@@@@@@@...
    ..............@@@@@@....
    .............@@@@@@@....
    .............@@@@@@.....
    ............@@@@@@@.....
    ...........@@@@@@@......
    ..........@@@@@@@.......
    ........@@@@@@@@........
    ......@@@@@@@@@.........
    .....@@@@@@@@...........
    ....@@@@@@@@............
    ...@@@@@@...............

    shift-up: 1



# [ፀ] ETHIOPIC SYLLABLE TZA
u+1340:
0x56:
    .............@@@@@.....
    .........@@@@@@@@@@....
    ........@@@@@@@@@@@@...
    .....@@@@@@@@@@@@@@@@..
    .....@@@@@@@@@@@@@@@@..
    ....@@@@@@@.@@@@@@@@@@.
    ...@@@@@@@...@@@@@@@@@.
    ...@@@@@@@...@@@@@@@@@.
    ...@@@@@@....@@@@@@@@@.
    ..@@@@@@@....@@@@@@@@..
    ..@@@@@@@....@@@@@@@@..
    ..@@@@@@@...@@@@@@@@@..
    .@@@@@@@@@.@@@@@@@@@@..
    .@@@@@@@@@@@@@@@@@@@@..
    .@@@@@@@@@@@@@@@@@@@@..
    .@@@@@@@@@@@@@@@@@@@@..
    .@@@@@@@@..@@@@@@@@@@..
    .@@@@@@@@...@@@@@@@@@..
    .@@@@@@@@...@@@@@@@@...
    .@@@@@@@@..@@@@@@@@@...
    .@@@@@@@@..@@@@@@@@@...
    .@@@@@@@@..@@@@@@@@@...
    .@@@@@@@@..@@@@@@@@....
    .@@@@@@@@.@@@@@@@@.....
    .@@@@@@@@@@@@@@@@......
    .@@@@@@@@@@@@@@@.......
    .@@@@@@@@@@@@@@........
    ..@@@@@@@@@@...........
    ..@@@@@@@@.............
    ....@@@@...............


# [ኅ] ETHIOPIC SYLLABLE XE
u+1285:
0x57:
    ...............@@@@@........
    ..............@@@@@@@.......
    .............@@@@@@@@.......
    ...........@@@@@@@@@@.......
    ........@@@@@@@@@@@@@.......
    ........@@@@@@@@@@@@@.......
    .....@@@@@@@@@@@@@@@@.......
    ....@@@@@@@@@@@@@@@@@.......
    ...@@@@@@@@@@@@@@@@@@.......
    ...@@@@@@@..@@@@@@@@@@@@@@..
    ..@@@@@@@...@@@@@@@@@@@@@@@.
    ..@@@@@@@....@@@@@@@@@@@@@@.
    .@@@@@@@@..........@@@@@@@@.
    .@@@@@@@@..........@@@@@@@@.
    .@@@@@@@...........@@@@@@@@.
    ..@@@@@............@@@@@@@@.
    ...................@@@@@@@..
    ...................@@@@@@@..
    ..................@@@@@@@@..
    ..................@@@@@@@@..
    .................@@@@@@@@...
    .................@@@@@@@@...
    .................@@@@@@@@...
    ................@@@@@@@@@...
    ................@@@@@@@@@...
    ................@@@@@@@@@...
    ................@@@@@@@@@...
    ................@@@@@@@@....
    ................@@@@@@@@....
    ................@@@@@@@@....
    ................@@@@@@@@....
    .................@@@@@@@....


# [ዝ] ETHIOPIC SYLLABLE ZE
u+12dd:
0x58:
    .........................@@@@@@.
    ........................@@@@@@@.
    .....@@@@@@@@@@@@.......@@@@@@@.
    ...@@@@@@@@@@@@@@@......@@@@@@@.
    ..@@@@@@@@@@@@@@@@......@@@@@@@.
    .@@@@@@@@.@@@@@@@@@.....@@@@@@@.
    .@@@@@@@@..@@@@@@@@.....@@@@@@@.
    .@@@@@@@@..@@@@@@@@.....@@@@@@@.
    ..@@@@@@...@@@@@@@@@...@@@@@@@@.
    ..@@@@@....@@@@@@@@@..@@@@@@@@@.
    ...@@.......@@@@@@@@@@@@@@@@@@@.
    ............@@@@@@@@@@@@@@@@@@@.
    ............@@@@@@@@@@@@@@@@@@..
    ...........@@@@@@@@....@@@@@@@..
    ...........@@@@@@@@....@@@@@@@..
    ...........@@@@@@@@....@@@@@@@..
    ...........@@@@@@@@....@@@@@@@..
    ...........@@@@@@@.....@@@@@@@..
    ...........@@@@@@@.....@@@@@@@..
    ...........@@@@@@@.....@@@@@@@..
    ..........@@@@@@@@.....@@@@@@@..
    ..........@@@@@@@@.....@@@@@@@..
    ..........@@@@@@@@....@@@@@@@@..
    ..........@@@@@@@@....@@@@@@@...
    ..........@@@@@@@@....@@@@@@@...
    ..........@@@@@@@@....@@@@@@@...
    ..........@@@@@@@@....@@@@@@@...
    ..........@@@@@@@@....@@@@@@@...
    ..........@@@@@@@@....@@@@@@@...
    ..........@@@@@@@@....@@@@@@@...
    ..........@@@@@@@.....@@@@@@@...


# [+] PLUS SIGN
u+002b:
0x59:
    ........@@@..........
    .......@@@@..........
    .......@@@@..........
    .......@@@@..........
    .......@@@@..........
    .......@@@@..........
    .......@@@@..........
    .......@@@@..........
    .......@@@@..........
    ..@@@@@@@@@@@@@@@....
    .@@@@@@@@@@@@@@@@....
    .@@@@@@@@@@@@@@@@....
    .@@@@@@@@@@@@@@@@....
    .@@@@@@@@@@@@@@@@....
    .......@@@@..........
    .......@@@@..........
    .......@@@@..........
    .......@@@@..........
    .......@@@@..........
    .......@@@@..........
    .......@@@@..........
    .......@@@@..........

    shift-up: 4



# [ሽ] ETHIOPIC SYLLABLE SHE
u+123d:
0x5a:
    .........................@@@...
    ...@@@..................@@@@@@.
    .@@@@@@@..............@@@@@@@@.
    .@@@@@@@@............@@@@@@@@@.
    .@@@@@@@@@@@@@@@@@@@@@@@@@@@@@.
    .@@@@@@@@@@@@@@@@@@@@@@@@@@@@@.
    .@@@@@@@@@@@@@@@@@@@@@@@@@@@@@.
    .@@@@@@@@@@@@@@@@@@@@@@@@@@@@@.
    .@@@@@@@...@@@@@@@@@@@..@@@@...
    ..@@@@@.....@@@@@@@@@@.........
    .............@@@@@@@@@@........
    ..............@@@@@@@@@@.......
    ...............@@@@@@@@@@@.....
    .............@@@@@@@@@@@@@@@...
    ............@@@@@@...@@@@@@@...
    ..........@@@@@@@....@@@@@@@...
    .........@@@@@@@@....@@@@@@@...
    .........@@@@@@@.....@@@@@@@...
    .........@@@@@@@.....@@@@@@@...
    .........@@@@@@@.....@@@@@@@...
    ........@@@@@@@@.....@@@@@@@...
    ........@@@@@@@.....@@@@@@@@...
    ........@@@@@@@.....@@@@@@@@...
    ........@@@@@@@.....@@@@@@@@...
    .......@@@@@@@@.....@@@@@@@@...
    .......@@@@@@@@.....@@@@@@@@...
    .......@@@@@@@@....@@@@@@@@@...
    .......@@@@@@@.....@@@@@@@@@...
    .......@@@@@@@.....@@@@@@@@@...
    .......@@@@@@@.....@@@@@@@@@...
    .......@@@@@@@.....@@@@@@@@....
    .......@@@@@@@.....@@@@@@@@....
    .......@@@@@@@.....@@@@@@@@....
    .......@@@@@@@.....@@@@@@@@....
    .......@@@@@@@@....@@@@@@@@@...
    .......@@@@@@@@....@@@@@@@@@...
    ........@@@@@@@....@@@@@@@@@...


# [ፕ] ETHIOPIC SYLLABLE PE
u+1355:
0x5b:
    ..@@@@@@@@@@@@@@@@@@@@@@@@@@@@@@@@..
    .@@@@@@@@@@@@@@@@@@@@@@@@@@@@@@@@@@.
    .@@@@@@@@@@@@@@@@@@@@@@@@@@@@@@@@@@.
    .@@@@@@@@@@@@@@@@@@@@@@@@@@@@@@@@@@.
    .@@@@@@@@...@@@@@@@@@@.....@@@@@@@@.
    .@@@@@@@@....@@@@@@@.......@@@@@@@@.
    .@@@@@@@@....@@@@@@@........@@@@@@@.
    .@@@@@@@.....@@@@@@@........@@@@@@@.
    .@@@@@@......@@@@@@@..........@@@@..
    .............@@@@@@@................
    .............@@@@@@@................
    .............@@@@@@@@@..............
    ...............@@@@@@@..............
    ...............@@@@@@@..............
    ...............@@@@@@@..............
    ...............@@@@@@@..............
    ...............@@@@@@@..............
    ...............@@@@@@@..............
    ...............@@@@@@@..............
    ...............@@@@@@@..............
    ...............@@@@@@@..............
    ...............@@@@@@@..............
    ...............@@@@@@@..............
    ...............@@@@@@@..............
    ...............@@@@@@@..............
    ...............@@@@@@@..............
    ...............@@@@@@@..............
    ...............@@@@@@@..............
    ...............@@@@@@@..............
    ...............@@@@@@@..............

    shift-up: 1



# [፤] ETHIOPIC SEMICOLON
u+1364:
0x5c:
    .....@@@@@@@@@@@@@@@....
    .....@@@@@@@@@@@@@@@....
    ........................
    ........................
    ........................
    ........................
    .........@@@@@..........
    ........@@@@@@@.........
    ........@@@@@@@.........
    ........@@@@@@@.........
    ........@@@@@@@.........
    ........@@@@@@@.........
    .........@@@@@..........
    ........................
    ........................
    ........................
    ........................
    ........................
    .........@@@@@@.........
    .........@@@@@@@........
    .........@@@@@@@........
    .........@@@@@@@........
    .........@@@@@@@........
    .........@@@@@@.........
    ........................
    ........................
    ........................
    ........................
    .....@@@@@@@@@@@@@@@....
    .....@@@@@@@@@@@@@@@....
    .....@@@@@@@@@@@@@@@....


# [ሕ] ETHIOPIC SYLLABLE HHE
u+1215:
0x5d:
    .........@@@@@@@....................
    .........@@@@@@@....................
    .........@@@@@@@....................
    .........@@@@@@@....................
    .........@@@@@@@....................
    .........@@@@@@@@@@@@@@.............
    .........@@@@@@@@@@@@@@.............
    ...............@@@@@@@@.............
    ...............@@@@@@@@.............
    ...............@@@@@@@@.............
    ...............@@@@@@@@.............
    ...............@@@@@@@@.............
    ...............@@@@@@@@.............
    ...............@@@@@@@@.............
    ...............@@@@@@@@@@@@@@@......
    ............@@@@@@@@@@@@@@@@@@@@@...
    .........@@@@@@@@@@@@@@@@@@@@@@@@...
    .......@@@@@@@@@@@@@@@@@@@@@@@@@@@..
    ......@@@@@@@@@@@@@@@@@...@@@@@@@@..
    .....@@@@@@@..@@@@@@@@@....@@@@@@@..
    ...@@@@@@@.....@@@@@@@@.....@@@@@@..
    ..@@@@@@@......@@@@@@@@.....@@@@@@..
    ..@@@@@@@......@@@@@@@@.....@@@@@@..
    .@@@@@@@@......@@@@@@@@.....@@@@@@..
    .@@@@@@@@......@@@@@@@@.....@@@@@@..
    .@@@@@@@@......@@@@@@@@.....@@@@@@..
    .@@@@@@@@......@@@@@@@@.....@@@@@@..
    .@@@@@@@@......@@@@@@@@.....@@@@@@..
    .@@@@@@@@......@@@@@@@@.....@@@@@@@.
    .@@@@@@@@......@@@@@@@@.....@@@@@@@.
    .@@@@@@@@......@@@@@@@@.....@@@@@@@.
    .@@@@@@@@......@@@@@@@@.....@@@@@@@.


# [ጥ] ETHIOPIC SYLLABLE THE
u+1325:
0x5e:
    ................@@@@@@@@@@@.......
    ..........@@@@@@@@@@@@@@@@@@@@....
    .......@@@@@@@@@@@@@@@@@@@@@@@@...
    .....@@@@@@@@@@@@@@@@@@@@@@@@@@@..
    ....@@@@@@@@@@@@@@@@@@@@@@@@@@@@..
    ...@@@@@@@...@@@@@@@@....@@@@@@@@.
    ..@@@@@@@@...@@@@@@@.....@@@@@@@@.
    .@@@@@@@@....@@@@@@@.....@@@@@@@@.
    .@@@@@@@@...@@@@@@@@.....@@@@@@@@.
    @@@@@@@@@...@@@@@@@@.....@@@@@@@@.
    @@@@@@@@@...@@@@@@@@.....@@@@@@@@.
    @@@@@@@@@...@@@@@@@@@@...@@@@@@@@.
    @@@@@@@@.....@@@@@@@@@@..@@@@@@@@.
    @@@@@@@@......@@@@@@@@@...@@@@@@..
    .@@@@@@........@@@@@@@............
    ...............@@@@@@@............
    ...............@@@@@@@............
    ..............@@@@@@@@............
    ..............@@@@@@@@............
    ..............@@@@@@@@............
    ..............@@@@@@@.............
    ..............@@@@@@@.............
    .............@@@@@@@@.............
    .............@@@@@@@@.............
    .............@@@@@@@@.............
    .............@@@@@@@@.............
    .............@@@@@@@@.............
    .............@@@@@@@@.............
    .............@@@@@@@@.............
    ..............@@@@@@..............

    shift-up: 1



# [ሥ] ETHIOPIC SYLLABLE SZE
u+1225:
0x5f:
    ..........................................@@...
    ................@@@@........@@@@@......@@@@@@@.
    ...............@@@@@@@.....@@@@@@@.....@@@@@@@.
    ..............@@@@@@@@.....@@@@@@@.....@@@@@@@.
    ..............@@@@@@@@.....@@@@@@@.....@@@@@@@.
    ..............@@@@@@@@.....@@@@@@@.....@@@@@@@.
    .............@@@@@@@@......@@@@@@@.....@@@@@@@.
    .............@@@@@@@@......@@@@@@@.....@@@@@@@.
    ............@@@@@@@@@......@@@@@@@....@@@@@@@@.
    ...........@@@@@@@@@......@@@@@@@@...@@@@@@@@..
    ..........@@@@@@@@@@.....@@@@@@@@@@@@@@@@@@@...
    ..........@@@@@@@@@@....@@@@@@@@@@@@@@@@@@@....
    .........@@@@@@@@@@@@@@@@@@@@@@@@@@@@@@@@@@....
    .........@@@@@@@@@@@@@@@@@@@@@@.@@@@@@@........
    ........@@@@@@@@@@@@@@@@@@@....................
    .......@@@@@@@.................................
    ......@@@@@@@@.................................
    .....@@@@@@@@..................................
    ....@@@@@@@@...................................
    ...@@@@@@@@....................................
    ...@@@@@@@.....................................
    ..@@@@@@@@.....................................
    .@@@@@@@@......................................
    .@@@@@@@@......................................
    .@@@@@@@@......................................
    .@@@@@@@.......................................
    ..@@@@@........................................

    shift-up: 2



# [ሣ] ETHIOPIC SYLLABLE SZAA
u+1223:
0x60:
    .......@@.........@@@@@@@......@@@@@...
    .....@@@@@@@.....@@@@@@@@@...@@@@@@@@..
    ....@@@@@@@@....@@@@@@@@@@..@@@@@@@@@..
    ....@@@@@@@@.....@@@@@@@@@..@@@@@@@@@@.
    ....@@@@@@@@.....@@@@@@@@@...@@@@@@@@@.
    ....@@@@@@@@....@@@@@@@@@@...@@@@@@@@@.
    ....@@@@@@@@....@@@@@@@@@....@@@@@@@@@.
    ....@@@@@@@.....@@@@@@@@@....@@@@@@@@@.
    ...@@@@@@@@.....@@@@@@@@@....@@@@@@@@..
    ...@@@@@@@......@@@@@@@@@@..@@@@@@@@@..
    ..@@@@@@@@.....@@@@@@@@@@@@@@@@@@@@@@..
    ..@@@@@@@@.....@@@@@@@@@@@@@@@@@@@@@@..
    .@@@@@@@@.....@@@@@@@@@@@@@@@@@@@@@@...
    .@@@@@@@@....@@@@@@@@@@@@@@@@@@@@@@@...
    .@@@@@@@@@..@@@@@@@@@@..@@..@@@@@@@....
    ..@@@@@@@@@@@@@@@@@@........@@@@@@@....
    ..@@@@@@@@@@@@@@@@@.........@@@@@@@....
    ....@@@@@@@@@@@@...........@@@@@@@.....
    .....@@@@.................@@@@@@@......
    .........................@@@@@@@@......
    .........................@@@@@@@.......
    .........................@@@@@@@.......
    ........................@@@@@@@@.......
    ........................@@@@@@@@.......
    .......................@@@@@@@@........
    .......................@@@@@@@@........
    .......................@@@@@@@@........
    .......................@@@@@@@@........
    .......................@@@@@@@@........
    ........................@@@@@@@........
    .........................@@@@@.........


# [ም] ETHIOPIC SYLLABLE ME
u+121d:
0x61:
    ...........@@@@@@@@....@@@@@@@@@@@@@@.....
    .........@@@@@@@@@@@@@@@@@@@@@@@@@@@@@@...
    .......@@@@@@@@@@@@@@@@@@@@@@@@@@@@@@@@@..
    ......@@@@@@@@@@@@@@@@@@@@@@@@@@@@@@@@@@..
    ....@@@@@@@@@@@@@@@@@@@@@@@@@@@@@@@@@@@@..
    ....@@@@@@...@@@@@@@@.@@@@@@@@..@@@@@@@@@.
    ..@@@@@@@....@@@@@@@...@@@@@@....@@@@@@@@.
    ..@@@@@@@....@@@@@@@...@@@@@@@...@@@@@@@@.
    ..@@@@@@@....@@@@@@@...@@@@@@@..@@@@@@@@@.
    ..@@@@@@@...@@@@@@@@...@@@@@@@..@@@@@@@@@.
    .@@@@@@@@...@@@@@@@@...@@@@@@@@.@@@@@@@@..
    .@@@@@@@@...@@@@@@@@...@@@@@@@@@@@@@@@@@..
    .@@@@@@@@...@@@@@@@@....@@@@@@@@@@@@@@@@..
    .@@@@@@@@...@@@@@@@@.....@@@@@@@@@@@@@....
    .@@@@@@@@..@@@@@@@@@.......@@@@@@@@@@.....
    .@@@@@@@@@@@@@@@@@@@.........@@@@@........
    ..@@@@@@@@@@@@@@@@@@......................
    ....@@@@@@@@@@@@@@@.......................
    .........@@@@@@@@@........................
    .........@@@@@@@@@........................
    ........@@@@@@@@..........................
    .......@@@@@@@@...........................
    ......@@@@@@@@@...........................
    ......@@@@@@@@............................
    .....@@@@@@@@.............................
    ...@@@@@@@@@..............................
    ...@@@@@@@@@..............................
    ..@@@@@@@@@...............................
    ..@@@@@@@@@...............................
    ..@@@@@@@@@...............................
    ..@@@@@@@@................................
    ...@@@@@@@................................


# [ዳ] ETHIOPIC SYLLABLE DAA
u+12f3:
0x62:
    ..............@@@@@@@@.......
    ..........@@@@@@@@@@@@@@.....
    ........@@@@@@@@@@@@@@@@@@...
    .......@@@@@@@...@@@@@@@@@...
    ......@@@@@@@@...@@@@@@@@@...
    .....@@@@@@@@....@@@@@@@@@...
    .....@@@@@@@@....@@@@@@@@@...
    .....@@@@@@@....@@@@@@@@@....
    .....@@@@@@@....@@@@@@@@@....
    .....@@@@@@@...@@@@@@@@@@....
    .....@@@@@@@@.@@@@@@@@@@.....
    .....@@@@@@@@@@@@@@@@@@......
    .....@@@@@@@@@@@@@@@@@.......
    .....@@@@@@@@@@@@@@@@........
    .....@@@@@@@@@@@@@...........
    ......@@@@@@@@...............
    ......@@@@@@@................
    ......@@@@@@@@...............
    ......@@@@@@@@...............
    .......@@@@@@@@..............
    .......@@@@@@@@..............
    .......@@@@@@@@@@@@@@@@......
    .....@@@@@@@@@@@@@@@@@@@@@@..
    ..@@@@@@@@@@@@@@@@@@@@@@@@@..
    ..@@@@@@@@@@@@@@@@@@@@@@@@@@.
    .@@@@@@@@..........@@@@@@@@@.
    .@@@@@@@@...........@@@@@@@@.
    .@@@@@@@@...........@@@@@@@@.
    .@@@@@@@@...........@@@@@@@@.
    .....................@@@@@@@.
    .....................@@@@@@@.
    .....................@@@@@@@.
    .....................@@@@@@@.
    .....................@@@@@@@.
    .....................@@@@@@@.

    shift-up: -2



# [ፋ] ETHIOPIC SYLLABLE FAA
u+134b:
0x63:
    ..............@@@@@@@............
    .............@@@@@@@@@...........
    .............@@@@@@@@............
    .............@@@@@@@@............
    .............@@@@@@@@............
    ............@@@@@@@@@............
    ............@@@@@@@@.............
    ...........@@@@@@@@..............
    ..........@@@@@@@@@..............
    ..........@@@@@@@@...............
    .........@@@@@@@@................
    .........@@@@@@@.................
    ........@@@@@@@@.................
    .......@@@@@@@@..................
    ......@@@@@@@@...................
    .....@@@@@@@@....................
    .....@@@@@@@.....................
    ....@@@@@@@@@@@@@@...............
    ...@@@@@@@@@@@@@@@@..............
    ..@@@@@@@@@@@@@@@@@..............
    .@@@@@@@@...@@@@@@@@.......@@@...
    .@@@@@@@@...@@@@@@@@....@@@@@@@..
    .@@@@@@@@...@@@@@@@@...@@@@@@@@@.
    .@@@@@@@@...@@@@@@@@@@@@@@@@@@@@.
    .@@@@@@@@.@@@@@@@@@@@@@@@@@@@@@@.
    .@@@@@@@@@@@@@@@@@@@@@@@@@@@@@@@.
    .@@@@@@@@@@@@@@@@@@@...@@@@@@@@@.
    .@@@@@@@@@@@@@@@@@@@.....@@@@@@@.
    ..@@@@@@@@...@@@@@@@........@@...
    ....@@@@.....@@@@@@@.............
    .............@@@@@@@.............
    .............@@@@@@@.............
    .............@@@@@@@.............
    .............@@@@@@@.............
    .............@@@@@@@@............
    ..............@@@@@@@............

    shift-up: -5



# [ስ] ETHIOPIC SYLLABLE SE
u+1235:
0x64:
    ..........@@..............
    .......@@@@@@@@...........
    .......@@@@@@@@...........
    .......@@@@@@@@...........
    .......@@@@@@@@@..........
    ........@@@@@@@@@.........
    ........@@@@@@@@@@........
    ........@@@@@@@@@@@@......
    .......@@@@@@@@@@@@@@@@...
    ......@@@@@@@@@@@@@@@@@...
    .....@@@@@@@..@@@@@@@@@@..
    ....@@@@@@......@@@@@@@@..
    ...@@@@@@@......@@@@@@@@..
    ..@@@@@@@........@@@@@@@..
    ..@@@@@@@........@@@@@@@@.
    ..@@@@@@@........@@@@@@@@.
    .@@@@@@@@........@@@@@@@@.
    .@@@@@@@@........@@@@@@@@.
    .@@@@@@@@........@@@@@@@@.
    .@@@@@@@@........@@@@@@@@.
    .@@@@@@@@........@@@@@@@@.
    .@@@@@@@@........@@@@@@@@.
    .@@@@@@@@........@@@@@@@@.
    .@@@@@@@@.......@@@@@@@@@.
    .@@@@@@@@.......@@@@@@@@@.
    .@@@@@@@@.......@@@@@@@@@.
    .@@@@@@@@.......@@@@@@@@@.
    .@@@@@@@@.......@@@@@@@@@.
    .@@@@@@@@.......@@@@@@@@@.
    .@@@@@@@@.......@@@@@@@@@.
    .@@@@@@@@.......@@@@@@@@@.
    .@@@@@@@@.......@@@@@@@@@.
    .@@@@@@@@.......@@@@@@@@@.
    .@@@@@@@@.......@@@@@@@@@.
    .@@@@@@@@.......@@@@@@@@..


# [ር] ETHIOPIC SYLLABLE RE
u+122d:
0x65:
    ...............@@@@@@@@@@@@.
    ...........@@@@@@@@@@@@@@@@.
    ........@@@@@@@@@@@@@@@@@@@.
    .......@@@@@@@@@@@@@@@@@@@@.
    ......@@@@@@@@@...@@@@@@@@@.
    .....@@@@@@@@@.....@@@@@@@@.
    ....@@@@@@@@........@@@@@@@.
    ...@@@@@@@@@........@@@@@@@.
    ...@@@@@@@@.................
    ...@@@@@@@@.................
    ..@@@@@@@@@.................
    ..@@@@@@@@..................
    ..@@@@@@@@..................
    ..@@@@@@@@..................
    ..@@@@@@@@..................
    ..@@@@@@@@..................
    .@@@@@@@@...................
    .@@@@@@@@...................
    .@@@@@@@@...................
    .@@@@@@@@...................
    .@@@@@@@@...................
    .@@@@@@@@...................
    .@@@@@@@@...................
    .@@@@@@@@..........@@@@@@@@.
    .@@@@@@@@.........@@@@@@@@@.
    .@@@@@@@@.......@@@@@@@@@@@.
    ..@@@@@@@@@...@@@@@@@@@@@@@.
    ..@@@@@@@@@@@@@@@@@@@@@@@@@.
    ..@@@@@@@@@@@@@@@@@@@@@@@@@.
    ...@@@@@@@@@@@@@@@@@@@@@@@@.
    .......@@@@@@@@@@@@@@@@@@@@.
    ...................@@@@@@@@.
    ....................@@@@@@..

    shift-up: -2



# [ብ] ETHIOPIC SYLLABLE BE
u+1265:
0x66:
    ..........................@@@.......
    ......................@@@@@@@@@.....
    ...................@@@@@@@@@@@@@....
    ................@@@@@@@@@@@@@@@@@...
    ..............@@@@@@@.....@@@@@@@@..
    ..............@@@@@@@.....@@@@@@@@..
    .............@@@@@@@@......@@@@@@@..
    .............@@@@@@@@......@@@@@@@..
    ............@@@@@@@@.......@@@@@@@..
    ............@@@@@@@@.......@@@@@@@..
    ............@@@@@@@@.......@@@@@@@@.
    .........@@@@@@@@@@@.......@@@@@@@@.
    ...@@@@@@@@@@@@@@@@@.......@@@@@@@@.
    ..@@@@@@@@@@@@@@@@@@.......@@@@@@@@.
    .@@@@@@@@@@@@@@@@@@@.......@@@@@@@@.
    .@@@@@@@@@@@@@@@@@@@.......@@@@@@@@.
    ..@@@@@@@@@@@@@@@@@@.......@@@@@@@@.
    ..@@@@@@@@.@@@@@@@@@.......@@@@@@@@.
    ..@@@@@@@..@@@@@@@@@.......@@@@@@@@.
    .@@@@@@@@..@@@@@@@@@.......@@@@@@@@.
    .@@@@@@@@..@@@@@@@@........@@@@@@@@.
    .@@@@@@....@@@@@@@@........@@@@@@@@.
    .@@@@......@@@@@@@@........@@@@@@@..
    ...........@@@@@@@@.......@@@@@@@@..
    ...........@@@@@@@@.......@@@@@@@@..
    ...........@@@@@@@@.......@@@@@@@@..
    ...........@@@@@@@@.......@@@@@@@@..
    ...........@@@@@@@@.......@@@@@@@@..
    ...........@@@@@@@@.......@@@@@@@...
    ...........@@@@@@@@@......@@@@@@@...
    ...........@@@@@@@@@......@@@@@@@...
    ...........@@@@@@@@@......@@@@@@@...
    ...........@@@@@@@@@......@@@@@@@@..
    ...........@@@@@@@@@......@@@@@@@@..
    ...........@@@@@@@@.........@@@@@@..


# [ራ] ETHIOPIC SYLLABLE RAA
u+122b:
0x67:
    ...................@@@@..............
    ................@@@@@@@@.............
    ...............@@@@@@@@@@............
    ...............@@@@@@@@@@............
    ...............@@@@@@@@@@............
    ...............@@@@@@@@@.............
    ..............@@@@@@@@@@.............
    ..............@@@@@@@@@..............
    .............@@@@@@@@@...............
    ............@@@@@@@@@@...............
    ...........@@@@@@@@@@................
    ...........@@@@@@@@@.................
    .........@@@@@@@@@@..................
    .........@@@@@@@@....................
    ........@@@@@@@@@....................
    .......@@@@@@@@@.....................
    ......@@@@@@@@................@@@@...
    ....@@@@@@@@@@.........@@@@@@@@@@@@..
    ...@@@@@@@@@@.........@@@@@@@@@@@@@..
    ...@@@@@@@@@........@@@@@@@@@@@@@@@@.
    ..@@@@@@@@@.......@@@@@@@@@@@@@@@@@@.
    ..@@@@@@@@......@@@@@@@@...@@@@@@@@@.
    .@@@@@@@@@.....@@@@@@@@@....@@@@@@@@.
    .@@@@@@@@.....@@@@@@@@@@.......@@@...
    .@@@@@@@@.....@@@@@@@@@..............
    .@@@@@@@@.....@@@@@@@@@..............
    .@@@@@@@@@...@@@@@@@@@@..............
    ..@@@@@@@@@@@@@@@@@@@@...............
    ..@@@@@@@@@@@@@@@@@@@................
    ...@@@@@@@@@@@@@@@@..................
    ....@@@@@@@@@@@@@....................
    .....@@@@@@@@@@......................
    ........@............................


# [ን] ETHIOPIC SYLLABLE NE
u+1295:
0x68:
    ......@@@@@@@@@@@@@@@.......
    ...@@@@@@@@@@@@@@@@@@@@.....
    ...@@@@@@@@@@@@@@@@@@@@.....
    ...@@@@@@@@@.@@@@@@@@@@.....
    ...@@@@@@@@...@@@@@@@@@.....
    ..@@@@@@@@...@@@@@@@@@@.....
    ..@@@@@@@....@@@@@@@@@@.....
    .@@@@@@@@....@@@@@@@@@......
    .@@@@@@@....@@@@@@@@@.......
    ..@@@@......@@@@@@@@@.......
    ............@@@@@@@@@@......
    ............@@@@@@@@@@@@@@@.
    ............@@@@@@@@@@@@@@@.
    ..................@@@@@@@@@.
    ..................@@@@@@@@@.
    .................@@@@@@@@@@.
    .................@@@@@@@@@..
    .................@@@@@@@@...
    ................@@@@@@@@@...
    ...............@@@@@@@@@....
    ..............@@@@@@@@@.....
    .............@@@@@@@@@@.....
    .............@@@@@@@@@......
    .............@@@@@@@@@......
    ............@@@@@@@@@@......
    ...........@@@@@@@@@@.......
    ...........@@@@@@@@@@.......
    ..........@@@@@@@@@@........
    ..........@@@@@@@@@@........
    ..........@@@@@@@@@@........
    ..........@@@@@@@@@.........
    ..........@@@@@@@@@.........


# [ክ] ETHIOPIC SYLLABLE KE
u+12ad:
0x69:
    ...@@@@@@@..................
    ..@@@@@@@@..................
    ..@@@@@@@@..................
    ..@@@@@@@...................
    ..@@@@@@@...................
    ..@@@@@@@......@@@@@@@@.....
    ..@@@@@@@..@@@@@@@@@@@@@@...
    ..@@@@@@@@@@@@@@@@@@@@@@@@..
    ..@@@@@@@@@@@@@@@@@@@@@@@@@.
    ...@@@@@@@@@@@@...@@@@@@@@@.
    ....@@@@@@@@@@.....@@@@@@@@.
    ......@@@@@@........@@@@@@@.
    .....@@@@@@@........@@@@@@@.
    ....@@@@@@@@.......@@@@@@@@.
    ....@@@@@@@@.......@@@@@@@@.
    ....@@@@@@@@@......@@@@@@@@.
    ....@@@@@@@@@......@@@@@@@@.
    ....@@@@@@@@@......@@@@@@@@.
    .....@@@@@@@.......@@@@@@@@.
    .....@@@@@@@......@@@@@@@@@.
    ....@@@@@@@.......@@@@@@@@@.
    ....@@@@@@@.......@@@@@@@@..
    ...@@@@@@@........@@@@@@@@..
    ...@@@@@@@.......@@@@@@@@@..
    ..@@@@@@@@.......@@@@@@@@...
    ..@@@@@@@@.......@@@@@@@@...
    ..@@@@@@@@.......@@@@@@@@...
    ..@@@@@@@........@@@@@@@@...
    ..@@@@@@@........@@@@@@@@...
    ..@@@@@@@........@@@@@@@@...
    ..@@@@@@@........@@@@@@@@...
    ..@@@@@@@........@@@@@@@@...


# [ቅ] ETHIOPIC SYLLABLE QE
u+1245:
0x6a:
    .......@@@@@......................
    ......@@@@@@@@....................
    ......@@@@@@@@@...................
    ......@@@@@@@@@...................
    ......@@@@@@@@@@@@@@@.............
    ......@@@@@@@@@@@@@@@@............
    ......@@@@@@@@@@@@@@@@@...........
    .......@@@...@@@@@@@@@@...........
    ..............@@@@@@@@@...........
    ...............@@@@@@@@...........
    ..............@@@@@@@@@...........
    ..............@@@@@@@@@@@@@@@.....
    ..........@@@@@@@@@@@@@@@@@@@@....
    ........@@@@@@@@@@@@@@@@@@@@@@@@..
    .....@@@@@@@@@@@@@@@@@@@@@@@@@@@@.
    ....@@@@@@@@@@@@@@@@@@..@@@@@@@@@.
    ...@@@@@@@@@@@@@@@@@@@...@@@@@@@@.
    ...@@@@@@@...@@@@@@@@....@@@@@@@..
    ..@@@@@@@@...@@@@@@@@....@@@@@@@..
    ..@@@@@@@....@@@@@@@@...@@@@@@@...
    ..@@@@@@@@...@@@@@@@@@..@@@@@@@...
    .@@@@@@@@@...@@@@@@@@@@@@@@@@@....
    .@@@@@@@@@@@@@@@@@@@@@@@@@@@......
    ...@@@@@@@@@@@@@@@@@@@@@@.........
    .....@@@@@@@@@@@@@@@..............
    ............@@@@@@@@..............
    ............@@@@@@@@..............
    ............@@@@@@@@..............
    ............@@@@@@@@..............
    ............@@@@@@@@..............
    ............@@@@@@@@..............
    ............@@@@@@@@..............
    ............@@@@@@@@..............
    ............@@@@@@@@..............
    ............@@@@@@@@..............


# [ግ] ETHIOPIC SYLLABLE GE
u+130d:
0x6b:
    ........@@@@@@@@@@@@@@@@@@@@...
    .....@@@@@@@@@@@@@@@@@@@@@@@...
    ...@@@@@@@@@@@@@@@@@@@@@@@@@@..
    ..@@@@@@@@@@@@@@@@@@..@@@@@@@..
    ..@@@@@@@@.@@@@@@@@@..@@@@@@@..
    .@@@@@@@@..@@@@@@@@@...@@@@@@@.
    .@@@@@@@@..@@@@@@@@...@@@@@@@@.
    .@@@@@@@@..@@@@@@@@...@@@@@@@..
    .@@@@@@@@.@@@@@@@@@...@@@@@@@..
    ..@@@@@@@@@@@@@@@@@...@@@@@@@..
    ..@@@@@@@@@@@@@@@@...@@@@@@@@..
    ...@@@@@@@@@@@@@@....@@@@@@@@..
    ....@@@@@@@@@@@......@@@@@@@...
    ......................@@@@@@...
    .....................@@@@@@@...
    ....................@@@@@@@@...
    ....................@@@@@@@@...
    ...................@@@@@@@@....
    ...................@@@@@@@@....
    ..................@@@@@@@@@....
    ..................@@@@@@@@.....
    .................@@@@@@@@@.....
    .................@@@@@@@@@.....
    .................@@@@@@@@......
    .................@@@@@@@@......
    .................@@@@@@@@......
    .................@@@@@@@@......
    ................@@@@@@@@@......
    ................@@@@@@@@@......
    ................@@@@@@@@@......
    .................@@@@@@@@......


# [ና] ETHIOPIC SYLLABLE NAA
u+1293:
0x6c:
    ...............@@@@@@@......
    .......@@@@@@@@@@@@@@@@@@@@.
    .....@@@@@@@@@@@@@@@@@@@@@@.
    ....@@@@@@@@@@@@@@@@@@@@@@@.
    ...@@@@@@@@@@....@@@@@@@@@@.
    ...@@@@@@@@.......@@@@@@@@@.
    ...@@@@@@@@........@@@@@@@@.
    ..@@@@@@@@@.........@@@@@@@.
    ..@@@@@@@@...........@@@@@@.
    .@@@@@@@@@.............@@@..
    .@@@@@@@@@..................
    .@@@@@@@@@..................
    .@@@@@@@@...................
    .@@@@@@@@...................
    .@@@@@@@@@..................
    .@@@@@@@@@@@@@@@@@@.........
    .@@@@@@@@@@@@@@@@@@@........
    ..@@@@@@@@@@@@@@@@@@@.......
    ...@@@@@@@@@@@@@@@@@@@......
    ......@..@@@@@@@@@@@@@......
    ............@@@@@@@@@.......
    .............@@@@@@@@.......
    ............@@@@@@@@@.......
    ............@@@@@@@@........
    ...........@@@@@@@@@........
    ...........@@@@@@@@@........
    ...........@@@@@@@@@........
    ...........@@@@@@@@@........
    ..........@@@@@@@@@@........
    ..........@@@@@@@@@@........
    ...........@@@@@@@@@........
    ...........@@@@@@@@.........


# [ቸ] ETHIOPIC SYLLABLE CA
u+1278:
0x6d:
    ..............................@@@@...
    .............................@@@@@@..
    ............................@@@@@@@@.
    ...........................@@@@@@@@@.
    ......@@@@@@@...........@@@@@@@@@@@@.
    .....@@@@@@@@@@...@@@@@@@@@@@@@@@@@@.
    ......@@@@@@@@@@@@@@@@@@@@@@@@@@@@@@.
    ......@@@@@@@@@@@@@@@@@@@@..@@@@@@@@.
    ......@@@@@@@@@@@@@@@@@@@............
    ......@@@@@@@@...@@@@@@@@............
    ......@@@@@@@....@@@@@@@@............
    ......@@@@@@.....@@@@@@@@............
    .......@@@.......@@@@@@@@............
    .................@@@@@@@@@@@.@@@@@@..
    ...............@@@@@@@@@@@@@@@@@@@@@.
    .........@@@@@@@@@@@@@@@@@@@@@@@@@@@.
    .....@@@@@@@@@@@@@@@@@@@@...@@@@@@@@.
    .....@@@@@@@@@@@@@@@@@@@@...@@@@@@@@.
    .....@@@@@@@@@..@@@@@@@@@...@@@@@@@@.
    .....@@@@@@@@...@@@@@@@@....@@@@@@@@.
    .....@@@@@@@....@@@@@@@@......@@@@@..
    .....@@@@@@@....@@@@@@@@.............
    .....@@@@@@@....@@@@@@@@.............
    .....@@@@@@.....@@@@@@@@.............
    .....@@@@.......@@@@@@@@.............
    ................@@@@@@@@.............
    ................@@@@@@@@.............
    ................@@@@@@@@.............
    ................@@@@@@@@.............
    ................@@@@@@@@.............
    ................@@@@@@@@.............
    ................@@@@@@@@.............
    ................@@@@@@@@.............
    ................@@@@@@@@.............
    ................@@@@@@@@.............
    ................@@@@@@@@.............
    ................@@@@@@@@.............


# [እ] ETHIOPIC SYLLABLE GLOTTAL E
u+12a5:
0x6e:
    ....@@@@@@@.................
    ...@@@@@@@@.................
    ...@@@@@@@@.................
    ...@@@@@@@@.................
    ...@@@@@@@@@@@@@@@..........
    ...@@@@@@@@@@@@@@@..........
    ...@@@@@@@@@@@@@@@..........
    ....@@@@@@@@@@@@@@..........
    ........@@@@@@@@@...........
    ........@@@@@@@@@...........
    ........@@@@@@@@............
    ........@@@@@@@@@@@.........
    ........@@@@@@@@@@@.........
    .........@@@@@@@@@@.........
    ..........@@@@@@@@@.........
    .........@@@@@@@@@..........
    .........@@@@@@@@...........
    ........@@@@@@@@@@@@@.......
    ........@@@@@@@@@@@@@@@@....
    .......@@@@@@@@@@@@@@@@@@...
    ......@@@@@@@@@@@@@@@@@@@...
    .....@@@@@@@@@.@@@@@@@@@@@..
    .....@@@@@@@@...@@@@@@@@@@..
    ....@@@@@@@.......@@@@@@@@..
    ...@@@@@@@@.......@@@@@@@@@.
    ..@@@@@@@@@.......@@@@@@@@@.
    ..@@@@@@@@@.......@@@@@@@@@.
    ..@@@@@@@@@........@@@@@@@@.
    .@@@@@@@@@@........@@@@@@@@.
    .@@@@@@@@@.........@@@@@@@@.
    .@@@@@@@@@.........@@@@@@@@.
    .@@@@@@@@@.........@@@@@@@@.
    .@@@@@@@@@.........@@@@@@@@.
    .@@@@@@@@@..........@@@@@@@.
    ...@@@@@@...........@@@@@@@.


# [ል] ETHIOPIC SYLLABLE LE
u+120d:
0x6f:
    ..........@@@@@@...................
    .........@@@@@@@@@.................
    .........@@@@@@@@@@................
    .........@@@@@@@@@@@...............
    ..........@@@@@@@@@@@..............
    ...........@@@@@@@@@@@@............
    ..........@@@@@@@@@@@@@@...........
    .........@@@@@@@@@@@@@@@...........
    ........@@@@@@@@@@@@@@@@@..........
    .......@@@@@@@@@@@@@@@@@@@.........
    .......@@@@@@@@@@@@@@@@@@@@........
    ......@@@@@@@@@@@@@@@@@@@@@........
    ......@@@@@@@@@...@@@@@@@@@........
    .....@@@@@@@@......@@@@@@@@@.......
    .....@@@@@@@.........@@@@@@@.......
    .....@@@@@@..........@@@@@@@.......
    ....@@@@@@@...........@@@@@@.......
    ....@@@@@@............@@@@@@@......
    ...@@@@@@@............@@@@@@@......
    ...@@@@@@@..@@@@@.....@@@@@@@......
    ..@@@@@@@@@@@@@@@@@....@@@@@@@.....
    ..@@@@@@@@@@@@@@@@@....@@@@@@@.....
    ..@@@@@@@@@@@@@@@@@....@@@@@@@.....
    .@@@@@@@@..@@@@@@@@....@@@@@@@.....
    .@@@@@@@@..@@@@@@@@.....@@@@@@@....
    .@@@@@@@@..@@@@@@@......@@@@@@@....
    .@@@@@@@@@@@@@@@@@.......@@@@@@....
    .@@@@@@@@@@@@@@@@........@@@@@@@@..
    .@@@@@@@@@@@@@@@.........@@@@@@@@@.
    .@@@@@@@@@@...............@@@@@@@@.
    ..@@@@@@@@................@@@@@@@@.
    ...@@@@@...................@@@@@@..


# [ፍ] ETHIOPIC SYLLABLE FE
u+134d:
0x70:
    .............@@@@@@@@@@@@@.......
    .........@@@@@@@@@@@@@@@@@@@@@@..
    .......@@@@@@@@@@@@@@@@@@@@@@@@..
    ......@@@@@@@@@@.@@....@@@@@@@@..
    .....@@@@@@@@@.........@@@@@@@@..
    ....@@@@@@@@............@@@@@@@..
    ....@@@@@@@.............@@@@@@@..
    ...@@@@@@@...............@@@@@@..
    ...@@@@@@@..................@@@..
    ..@@@@@@@@@@@@@@@@...............
    ..@@@@@@@.@@@@@@@@@..............
    .@@@@@@@@..@@@@@@@@..............
    .@@@@@@@@..@@@@@@@@@.............
    .@@@@@@@@...@@@@@@@@.............
    .@@@@@@@@...@@@@@@@@.............
    ..@@@@@@@...@@@@@@@@.............
    ..@@@@@@@...@@@@@@@@.............
    ...@@@@@@@@@@@@@@@@@@@.@@@@......
    ...@@@@@@@@@@@@@@@@@@@@@@@@@@@@@.
    .....@@@@@@@@@@@@@@@@@@@@@@@@@@@.
    ...........@@@@@@@@@..@@@@@@@@@@.
    ............@@@@@@@....@@@@@@@@@.
    ............@@@@@@@.....@@@@@@@@.
    ...........@@@@@@@@......@@@@@@@.
    ...........@@@@@@@@.......@@@@@@.
    ...........@@@@@@@@.........@@@..
    ..........@@@@@@@@@..............
    ..........@@@@@@@@@..............
    ..........@@@@@@@@@..............
    ..........@@@@@@@@@..............
    ...........@@@@@@@...............
    ............@@@@.................


# [ት] ETHIOPIC SYLLABLE TE
u+1275:
0x71:
    .....@@@@@@@@....................
    ......@@@@@@@....................
    ......@@@@@@@@...................
    ......@@@@@@@@...................
    ......@@@@@@@@...................
    .....@@@@@@@@@@@@@@..............
    .....@@@@@@@@@@@@@@@.............
    ......@@@@@@@@@@@@@@.............
    ............@@@@@@@@.............
    ............@@@@@@@@.............
    ............@@@@@@@@.............
    ............@@@@@@@@.............
    ............@@@@@@@@.............
    ............@@@@@@@@.............
    ............@@@@@@@@.............
    ............@@@@@@@@@@@@@@@@@@@..
    @@@@@@@@@@@@@@@@@@@@@@@@@@@@@@@@.
    @@@@@@@@@@@@@@@@@@@@@@@@@@@@@@@@.
    .@@@@@@@@@@@@@@@@@@@....@@@@@@@@.
    .@@@@@@@....@@@@@@@@.....@@@@@@@.
    .@@@@@@@....@@@@@@@@.....@@@@@@@.
    .@@@@@@.....@@@@@@@@......@@@@@@.
    .@@@@@@.....@@@@@@@@......@@@@@@@
    .@@@@@......@@@@@@@@.......@@@@@@
    @@@@@@......@@@@@@@@.............
    @@@@@.......@@@@@@@@.............
    ............@@@@@@@@.............
    ............@@@@@@@@.............
    ............@@@@@@@@.............
    ............@@@@@@@@.............
    ............@@@@@@@@.............
    ............@@@@@@@@.............
    ............@@@@@@@@.............
    ............@@@@@@@@.............
    .............@@@@@@@.............
    .............@@@@@@@@............


# [ይ] ETHIOPIC SYLLABLE YE
u+12ed:
0x72:
    .................@@@@@@@@...........
    ..............@@@@@@@@@@@@@.........
    ...........@@@@@@@@@@@@@@@@@........
    ..........@@@@@@@@...@@@@@@@........
    .........@@@@@@@@....@@@@@@@@.......
    .........@@@@@@@@....@@@@@@@@.......
    .........@@@@@@@.....@@@@@@@........
    .........@@@@@@@....@@@@@@@@........
    ........@@@@@@@@....@@@@@@@@........
    ........@@@@@@@@...@@@@@@@@@........
    ........@@@@@@@@...@@@@@@@@@........
    ........@@@@@@@@..@@@@@@@@@@........
    ........@@@@@@@@@@@@@@@@@@@.........
    ........@@@@@@@@@@@@@@@@@@..........
    ........@@@@@@@@@@@@@@@@............
    .........@@@@@@@@@@@@...............
    .........@@@@@@@....................
    ........@@@@@@@@....................
    ........@@@@@@@@....................
    .........@@@@@@@............@@@.....
    .........@@@@@@@...........@@@@@@@..
    .........@@@@@@@@.........@@@@@@@@..
    .........@@@@@@@@.........@@@@@@@@..
    .........@@@@@@@@@........@@@@@@@@..
    .........@@@@@@@@@........@@@@@@@...
    ....@@@@@@@@@@@@@@@@.....@@@@@@@@...
    ...@@@@@@@@@@@@@@@@@@@@@@@@@@@@@....
    ..@@@@@@@@@...@@@@@@@@@@@@@@@@@.....
    ..@@@@@@@@.......@@@@@@@@@@@@@......
    ..@@@@@@@@..........@@@@@@@@........
    ..@@@@@@@@..........................
    ..@@@@@@@...........................
    .@@@@@@@@...........................
    .@@@@@@@............................
    ..@@@@@.............................

    shift-up: -2



# [ዋ] ETHIOPIC SYLLABLE WAA
u+12cb:
0x73:
    .............@@@@@@@@@@@@@@@.......
    .........@@@@@@@@@@@@@@@@@@@@@@@...
    ........@@@@@@@@@@@@@@@@@@@@@@@@@..
    ......@@@@@@@@@@@@@@@@@@@@@@@@@@@..
    ......@@@@@@@@.@@@@@@@@@..@@@@@@@@.
    .....@@@@@@@@..@@@@@@@@...@@@@@@@@.
    .....@@@@@@@...@@@@@@@....@@@@@@@@.
    ....@@@@@@@@...@@@@@@@.....@@@@@@@.
    ....@@@@@@@@...@@@@@@@.....@@@@@@@.
    ....@@@@@@@....@@@@@@@....@@@@@@@@.
    ....@@@@@@@....@@@@@@@....@@@@@@@..
    ....@@@@@@@@...@@@@@@@...@@@@@@@...
    ....@@@@@@@@...@@@@@@@@..@@@@@@@...
    ....@@@@@@@@...@@@@@@@@@@@@@@@@....
    .....@@@@@@@@@@@@@@@@@@@@@@@@@.....
    ......@@@@@@@@@@@@@@@@@@@@@@@......
    ......@@@@@@@@@@@@@@@@@@@@@@.......
    ........@@@@@@@@@@@@@@.............
    ..............@@@@@@@@.............
    ..............@@@@@@@@.............
    ..............@@@@@@@@.............
    ..............@@@@@@@@.............
    ..............@@@@@@@@.............
    ..............@@@@@@@@.............
    ..............@@@@@@@@.............
    ..............@@@@@@@@.............
    ..............@@@@@@@@.............
    ..............@@@@@@@@.............
    ..............@@@@@@@@.............
    ..............@@@@@@@@.............
    ..............@@@@@@@@.............
    ..............@@@@@@@@.............


# [ጭ] ETHIOPIC SYLLABLE CHE
u+132d:
0x74:
    ................@.@@@@@@@@@@@@@@@@@@@............
    ..............@@@@@@@@@@@@@@@@@@@@@@@@@..........
    .........@@@@@@@@@@@@@@@@@@@@@@@@@@@@@@@.........
    ........@@@@@@@@@...@@@@@@@@....@@@@@@@@.........
    .......@@@@@@@@......@@@@@@@.....@@@@@@@.........
    ......@@@@@@.........@@@@@@@.....@@@@@@@@..@@@...
    .....@@@@@@@.........@@@@@@@.....@@@@@@@@@@@@@@..
    ....@@@@@@@@@@@@....@@@@@@@@.....@@@@@@@@@@@@@@@.
    ....@@@@@@@@@@@@@...@@@@@@@......@@@@@@@@@@@@@@@.
    ...@@@@@@@@@@@@@@..@@@@@@@@......@@@@@@@@..@@@@@.
    ...@@@@@@@@@@@@@@@.@@@@@@@@@.....@@@@@@@....@@@@.
    ..@@@@@@@.@@@@@@@@.@@@@@@@@@....@@@@@@@@....@@@@.
    ..@@@@@@@.@@@@@@@@.@@@@@@@@@....@@@@@@@@@@@@@@@@.
    ..@@@@@@@.@@@@@@@..@@@@@@@@@....@@@@@@@@@@@@@@@..
    .@@@@@@@@@@@@@@@@..@@@@@@@@@....@@@@@@@@@@@@@@@..
    .@@@@@@@@@@@@@@@....@@@@@@@@....@@@@@@@@@@@@@@@..
    ..@@@@@@@@@@@@@......@@@@@@@.....@@@@@@@@........
    ..@@@@@@@@@@@........@@@@@@@.....................
    .....................@@@@@@@.....................
    .....................@@@@@@@.....................
    ....................@@@@@@@@.....................
    ...................@@@@@@@@@@@@@@@...............
    ...................@@@@@@@@@@@@@@@@..............
    ..................@@@@@@@@@@@@@@@@@..............
    ..................@@@@@@@@@@@@@@@@@..............
    .................@@@@@@@@@..@@@@@@@..............
    .................@@@@@@@@@..@@@@@@@..............
    .................@@@@@@@@@@@@@@@@@...............
    .................@@@@@@@@@@@@@@@@................
    .................@@@@@@@@@@@@@@@.................
    ..................@@@@@@@@@@.....................
    ..................@@@@@@.........................

    shift-up: 1



# [ጽ] ETHIOPIC SYLLABLE TSE
u+133d:
0x75:
    .........@@@@@@@...............
    ......@@@@@@@@@@@@@............
    .....@@@@@@@@@@@@@@@...........
    .....@@@@@@@@@@@@@@@....@@@@...
    ....@@@@@@@@@@@@@@@@..@@@@@@@..
    ....@@@@@...@@@@@@@@@@@@@@@@@@.
    ...@@@@@@...@@@@@@@@@@@@@@@@@@.
    ...@@@@@@...@@@@@@@@@@@@@@@@@@.
    ...@@@@@@...@@@@@@@@@..@@@@@@@.
    ..@@@@@@@...@@@@@@@@....@@@@@@.
    ..@@@@@@@..@@@@@@@@@.....@@@@@.
    ...@@@@@@@@@@@@@@@@.......@@@..
    ...@@@@@@@@@@@@@@@@............
    ....@@@@@@@@@@@@@@.............
    .....@@@@@@@@@@@@@.............
    ........@@@@@@@@@@@@...........
    ........@@@@@@@@@@@@@@.........
    ......@@@@@@@@@@@@@@@@.........
    .....@@@@@@@@@@@@@@@@@@........
    .....@@@@@@@..@@@@@@@@@........
    ...@@@@@@@.....@@@@@@@@........
    ...@@@@@@......@@@@@@@@@.......
    ..@@@@@@@.......@@@@@@@@.......
    ..@@@@@@@.......@@@@@@@@.......
    ..@@@@@@@.......@@@@@@@@.......
    .@@@@@@@@.......@@@@@@@@.......
    .@@@@@@@@.......@@@@@@@@.......
    .@@@@@@@@.......@@@@@@@@.......
    .@@@@@@@@.......@@@@@@@@.......
    .@@@@@@@@.......@@@@@@@@.......
    ..@@@@@@@.......@@@@@@@@.......

    shift-up: 1



# [ጮ] ETHIOPIC SYLLABLE CHO
u+132e:
0x76:
    ................@@@@@@@@@@@@@@@@@@@@@...............
    .............@@@@@@@@@@@@@@@@@@@@@@@@@@.............
    ..........@@@@@@@@@@@@@@@@@@@@@@@@@@@@@@@...........
    .........@@@@@@@@@@@@@@@@@@@@@@@@@@@@@@@@@..........
    .........@@@@@@@@@@@@@@@@@@@@@@@@@@@@@@@@@@.........
    ........@@@@@@@@@@@@@@@@@@@@@@@@@@@@@@@@@@@.........
    .......@@@@@@......@@@@@@@..........@@@@@@@.........
    ......@@@@@@@......@@@@@@@..........@@@@@@@.........
    .....@@@@@@@.......@@@@@@@@@@@......@@@@@@@@@@@@@...
    .....@@@@@@........@@@@@@@@@@@@.....@@@@@@@@@@@@@@..
    ....@@@@@@.........@@@@@@@@@@@@@...@@@@@@@@@@@@@@@..
    ....@@@@@@.........@@@@@@@@@@@@@...@@@@@@@@@@@@@@@@.
    ....@@@@@@.........@@@@@@@@@@@@@@..@@@@@@@@.@@@@@@@.
    ...@@@@@@..........@@@@@@...@@@@@..@@@@@@@@..@@@@@@.
    ...@@@@@@..........@@@@@@...@@@@@..@@@@@@@@..@@@@@..
    ..@@@@@@@..........@@@@@@@..@@@@@..@@@@@@@@.@@@@@@..
    ..@@@@@@@..........@@@@@@@@@@@@@@..@@@@@@@@@@@@@@...
    ..@@@@@@@..........@@@@@@@@@@@@@...@@@@@@@@@@@@@@...
    ..@@@@@@@...........@@@@@@@@@@@.....@@@@@@@@@@@.....
    ..@@@@@@@............@@@@@@@.........@@@@@@@@@......
    .@@@@@@@@...........................................
    .@@@@@@@@@@@@@@@....................................
    .@@@@@@@@@@@@@@@@...................................
    .@@@@@@@@@@@@@@@@...................................
    .@@@@@@@@@@@@@@@@...................................
    .@@@@@@@.@@@@@@@@...................................
    .@@@@@@@.@@@@@@@@...................................
    .@@@@@@@.@@@@@@@....................................
    .@@@@@@@@@@@@@@@....................................
    .@@@@@@@@@@@@@@.....................................
    .@@@@@@@@@@@@@......................................
    .@@@@@@@@@@@........................................
    ..@@@@@@............................................


# [ኘ] ETHIOPIC SYLLABLE NYA
u+1298:
0x77:
    ....@@@@@...................@@@@@@..
    ...@@@@@@@..................@@@@@@@.
    ...@@@@@@@@@..............@@@@@@@@@.
    ...@@@@@@@@@@@@@@@@@@@@@@@@@@@@@@@@.
    ...@@@@@@@@@@@@@@@@@@@@@@@@@@@@@@@@.
    ...@@@@@@@@@@@@@@@@@@@@@@@@@@@@@@@@.
    ...@@@@@@@@..@@@@@@@@@@...@@@@@@@@@.
    ...@@@@@@@....@@@@@@@@@....@@@@@@@@.
    ....@@@@@.....@@@@@@@@......@@@@@...
    ..............@@@@@@@@..............
    ..............@@@@@@@@..............
    ..............@@@@@@@@..............
    ..............@@@@@@@@..............
    ..............@@@@@@@@@@@@@@........
    ..............@@@@@@@@@@@@@@@.......
    ...................@@@@@@@@@@.......
    ...................@@@@@@@@@@.......
    ....................@@@@@@@@........
    ....................@@@@@@@@........
    ...................@@@@@@@@@........
    ...................@@@@@@@@@........
    ..................@@@@@@@@@.........
    .................@@@@@@@@@@.........
    .................@@@@@@@@@..........
    ................@@@@@@@@@@..........
    ................@@@@@@@@@...........
    ...............@@@@@@@@@............
    ...............@@@@@@@@.............
    ..............@@@@@@@@@.............
    ..............@@@@@@@@..............
    ..............@@@@@@@@..............
    ..............@@@@@@@@..............
    ..............@@@@@@@@..............
    ..............@@@@@@@@..............


# [ቨ] ETHIOPIC SYLLABLE VA
u+1268:
0x78:
    .@@@@@...............@@@@@@.
    .@@@@@@@@@@@@@@@@@@@@@@@@@@.
    .@@@@@@@@@@@@@@@@@@@@@@@@@@.
    .@@@@@@@@@@@@@@@@@@@@@@@@@@.
    .@@@@@@@@@@@@@@@@@@@@@@@@@@.
    .@@@@@@@@@@@@@@@@@@@@@@@@@@.
    .@@@@@@..............@@@@@@.
    ............................
    ............................
    ..........@@@@@@@@@.........
    ........@@@@@@@@@@@@........
    .......@@@@@@@@@@@@@........
    ......@@@@@@@@@@@@@@@.......
    .....@@@@@@..@@@@@@@@@......
    ....@@@@@@....@@@@@@@@......
    ...@@@@@@......@@@@@@@@.....
    ..@@@@@@@......@@@@@@@@.....
    ..@@@@@@@.......@@@@@@@@....
    .@@@@@@@@.......@@@@@@@@....
    .@@@@@@@@.......@@@@@@@@....
    .@@@@@@@@.......@@@@@@@@....
    .@@@@@@@@.......@@@@@@@@....
    .@@@@@@@@.......@@@@@@@@....
    .@@@@@@@@.......@@@@@@@@....
    .@@@@@@@@.......@@@@@@@@....
    .@@@@@@@@.......@@@@@@@@....
    .@@@@@@@@.......@@@@@@@@....
    .@@@@@@@@.......@@@@@@@@....
    .@@@@@@@@.......@@@@@@@@....
    .@@@@@@@@.......@@@@@@@@....
    .@@@@@@@@.......@@@@@@@@....
    .@@@@@@@@.......@@@@@@@@....
    .@@@@@@@@.......@@@@@@@@....
    .@@@@@@@@.......@@@@@@@@....
    .@@@@@@@@.......@@@@@@@@....
    .@@@@@@@@.......@@@@@@@@....
    .@@@@@@@@.......@@@@@@@@....
    .@@@@@@@@.......@@@@@@@@....


# [ጀ] ETHIOPIC SYLLABLE JA
u+1300:
0x79:
    ............................@@@...
    .....@@@@.................@@@@@@@.
    ....@@@@@@@..............@@@@@@@@.
    ...@@@@@@@@@..........@@@@@@@@@@@.
    ...@@@@@@@@@@@@@@@@@@@@@@@@@@@@@@.
    ...@@@@@@@@@@@@@@@@@@@@@@@@@@@@@@.
    ...@@@@@@@@@@@@@@@@@@@@@@@@@@@@@@.
    ...@@@@@@@@@@@@@@@@@@@@..@@@@@@@@.
    ....@@@@@.....@@@@@@@@@@@.........
    .............@@@@@@@@@@@@@........
    ...........@@@@@@@@@@@@@@@........
    ..........@@@@@@@..@@@@@@@@.......
    .........@@@@@@@....@@@@@@@.......
    .........@@@@@@@...@@@@@@@@.......
    .........@@@@@@....@@@@@@@@.......
    ........@@@@@@@....@@@@@@@@.......
    ........@@@@@@@...@@@@@@@@........
    ........@@@@@@@@@@@@@@@@@@........
    ........@@@@@@@@@@@@@@@@@.........
    ........@@@@@@@@@@@@@@@@@.........
    ........@@@@@@@@@@@@@@@...........
    ........@@@@@@@...................
    .........@@@@@@@..................
    .........@@@@@@@..................
    .........@@@@@@@..................
    .........@@@@@@@@.................
    .........@@@@@@@@@................
    .........@@@@@@@@@@@@@@@@@@@@@....
    ........@@@@@@@@@@@@@@@@@@@@@@@...
    .....@@@@@@@@@@@@@@@@@@@@@@@@@@...
    ...@@@@@@@@@@........@@@@@@@@@@@..
    ..@@@@@@@@@@..........@@@@@@@@@@..
    .@@@@@@@@@@............@@@@@@@@@..
    .@@@@@@@@@..............@@@@@@@@..
    .@@@@@@@@@..............@@@@@@@@..
    .@@@@@@@@@..............@@@@@@@@..
    .@@@@@@@@@..............@@@@@@@@..
    .@@@@@@@@@..............@@@@@@@@..
    .@@@@@@@@@...............@@@@@@...


# [፣] ETHIOPIC COMMA
u+1363:
0x7a:
    ......@@@@@@@@@@@@@.....
    ......@@@@@@@@@@@@@.....
    ......@@@@@@@@@@@@@.....
    ........................
    ........................
    ........................
    ........................
    .........@@@@@@.........
    .........@@@@@@@........
    .........@@@@@@@........
    .........@@@@@@@........
    .........@@@@@@@........
    .........@@@@@@@@.......
    .........@@@@@@@@.......
    ........................
    ........................
    ........................
    ........................
    ..........@@@@@@........
    .........@@@@@@@........
    .........@@@@@@@........
    .........@@@@@@@........
    .........@@@@@@@........
    .........@@@@@@@@.......
    ..........@@@@@@@.......

    shift-up: 4



# [ፐ] ETHIOPIC SYLLABLE PA
u+1350:
0x7b:
    .....@@@@@@@@@@@@@@@@@@@@@@@@@@@@@@@@@@..
    ....@@@@@@@@@@@@@@@@@@@@@@@@@@@@@@@@@@@@.
    ....@@@@@@@@@@@@@@@@@@@@@@@@@@@@@@@@@@@@.
    ....@@@@@@@@@@@@@@@@@@@@@@@..@@@@@@@@@@@.
    ....@@@@@@@@@@..@@@@@@@@@@....@@@@@@@@@@.
    ....@@@@@@@@@....@@@@@@@@@....@@@@@@@@@@.
    ....@@@@@@@@.....@@@@@@@@......@@@@@@@@@.
    ....@@@@@@@@.....@@@@@@@@.......@@@@@@@..
    .....@@@@@@......@@@@@@@@................
    .................@@@@@@@@................
    .................@@@@@@@@................
    .................@@@@@@@@................
    .................@@@@@@@@................
    .................@@@@@@@@................
    .................@@@@@@@@................
    .................@@@@@@@@................
    .................@@@@@@@@................
    .................@@@@@@@@................
    .................@@@@@@@@................
    .................@@@@@@@@................
    .................@@@@@@@@................
    .................@@@@@@@@................
    .................@@@@@@@@................
    .................@@@@@@@@................
    .................@@@@@@@@................
    .................@@@@@@@@................
    .................@@@@@@@@................
    .................@@@@@@@@................
    .................@@@@@@@@................
    .................@@@@@@@@................
    ..................@@@@@@@@...............


# [ሐ] ETHIOPIC SYLLABLE HHA
u+1210:
0x7c:
    ...............@@@@@.................
    ..............@@@@@@@................
    ..............@@@@@@@................
    ..............@@@@@@@................
    ..............@@@@@@@................
    ..............@@@@@@@................
    ..............@@@@@@@................
    ..............@@@@@@@................
    ..............@@@@@@@................
    ..............@@@@@@@................
    ..............@@@@@@@................
    ..............@@@@@@@................
    ..............@@@@@@@................
    ..............@@@@@@@@@@@@@@.........
    ...........@@@@@@@@@@@@@@@@@@@@......
    ........@@@@@@@@@@@@@@@@@@@@@@@......
    ......@@@@@@@@@@@@@@@@@@@@@@@@@@.....
    .....@@@@@@@@@@@@@@@@...@@@@@@@@.....
    ....@@@@@@@..@@@@@@@@....@@@@@@@.....
    ...@@@@@@.....@@@@@@@.....@@@@@@.....
    ..@@@@@@......@@@@@@@.....@@@@@@.....
    ..@@@@@@......@@@@@@@.....@@@@@@.....
    .@@@@@@@......@@@@@@@.....@@@@@@.....
    .@@@@@@@......@@@@@@@.....@@@@@@.....
    .@@@@@@@......@@@@@@@.....@@@@@@.....
    .@@@@@@@......@@@@@@@.....@@@@@@.....
    .@@@@@@@......@@@@@@@.....@@@@@@.....
    .@@@@@@@......@@@@@@@.....@@@@@@@....
    .@@@@@@@......@@@@@@@.....@@@@@@@....
    .@@@@@@@......@@@@@@@.....@@@@@@@....
    .@@@@@@@......@@@@@@@.....@@@@@@@....


# [ጠ] ETHIOPIC SYLLABLE THA
u+1320:
0x7d:
    ...........@@@@@@@@@@@@@@@@@@@@......
    .........@@@@@@@@@@@@@@@@@@@@@@......
    ........@@@@@@@@@@@@@@@@@@@@@@@@.....
    ......@@@@@@@@@@@@@@@@@@@@@@@@@@@....
    .....@@@@@@@@@@@@@@@@@...@@@@@@@@....
    ....@@@@@@@@..@@@@@@@@.....@@@@@@@...
    ....@@@@@@@@..@@@@@@@......@@@@@@@...
    ...@@@@@@@....@@@@@@@.......@@@@@@@..
    ...@@@@@@@....@@@@@@@.......@@@@@@@..
    ..@@@@@@@.....@@@@@@@.......@@@@@@@..
    ..@@@@@@@.....@@@@@@@@......@@@@@@@..
    .@@@@@@@@.....@@@@@@@@......@@@@@@@..
    .@@@@@@@@.....@@@@@@@@......@@@@@@@..
    .@@@@@@@@.....@@@@@@@@......@@@@@@@..
    .@@@@@@@@.....@@@@@@@@......@@@@@@@..
    .@@@@@@@@.....@@@@@@@@......@@@@@@@..
    .@@@@@@@@.....@@@@@@@@......@@@@@@@..
    .@@@@@@@@.....@@@@@@@@......@@@@@@@..
    .@@@@@@@@.....@@@@@@@@......@@@@@@@..
    .@@@@@@@@.....@@@@@@@@......@@@@@@@..
    .@@@@@@@@.....@@@@@@@@......@@@@@@@..
    .@@@@@@@@.....@@@@@@@@......@@@@@@@..
    .@@@@@@@@.....@@@@@@@@......@@@@@@@..
    .@@@@@@@@.....@@@@@@@@......@@@@@@@..
    .@@@@@@@@......@@@@@@@......@@@@@@@..
    .@@@@@@@.......@@@@@@@......@@@@@@@..


# [ሠ] ETHIOPIC SYLLABLE SZA
u+1220:
0x7e:
    .....@@@@@@@.....@@@@@@@@@...@@@@@@@@@.
    .....@@@@@@@.....@@@@@@@@@...@@@@@@@@@.
    ....@@@@@@@@.....@@@@@@@@@...@@@@@@@@@.
    ....@@@@@@@@.....@@@@@@@@@...@@@@@@@@@.
    ....@@@@@@@@.....@@@@@@@@@...@@@@@@@@@.
    ....@@@@@@@@.....@@@@@@@@@...@@@@@@@@@.
    ....@@@@@@@@.....@@@@@@@@....@@@@@@@@@.
    ....@@@@@@@.....@@@@@@@@@....@@@@@@@@@.
    ...@@@@@@@@.....@@@@@@@@@....@@@@@@@@@.
    ...@@@@@@@......@@@@@@@@@@..@@@@@@@@@..
    ..@@@@@@@@.....@@@@@@@@@@@@@@@@@@@@@...
    ..@@@@@@@@.....@@@@@@@@@@@@@@@@@@@@....
    .@@@@@@@@......@@@@@@@@@@@@@@@@@@@.....
    .@@@@@@@@.....@@@@@@@@@@@@@@@@@@@......
    .@@@@@@@@....@@@@@@@@@@@@@@@@@.........
    .@@@@@@@@@..@@@@@@@@@@.................
    ..@@@@@@@@@@@@@@@@@@...................
    ..@@@@@@@@@@@@@@@@@....................
    ..@@@@@@@@@@@@@@@@.....................
    ....@@@@@@@@@@@@.......................
    .....@@@@..............................


# [ማ] ETHIOPIC SYLLABLE MAA
u+121b:
0x7f:
    ...........@@@@@@.....@@@@@@@@@@@..........
    ........@@@@@@@@@@@@@@@@@@@@@@@@@@@@.......
    ......@@@@@@@@@@@@@@@@@@@@@@@@@@@@@@@@.....
    ....@@@@@@@@@@@@@@@@@@@@@@@@@@@@@@@@@@.....
    ...@@@@@@@@@@@@@@@@.@@@@@@@@.@@@@@@@@@@....
    ...@@@@@@@@@@@@@@@..@@@@@@@@..@@@@@@@@@....
    ..@@@@@@@..@@@@@@@..@@@@@@@@..@@@@@@@@@....
    ..@@@@@@@..@@@@@@@..@@@@@@@@..@@@@@@@@@....
    .@@@@@@@..@@@@@@@...@@@@@@@@..@@@@@@@@.....
    .@@@@@@@.@@@@@@@@...@@@@@@@@..@@@@@@@@.....
    @@@@@@@..@@@@@@@@...@@@@@@@@..@@@@@@@@.....
    @@@@@@@..@@@@@@@@...@@@@@@@@@@@@@@@@@@.....
    @@@@@@@..@@@@@@@@...@@@@@@@@@@@@@@@@@......
    @@@@@@@@@@@@@@@@.....@@@@@@@@@@@@@@@@......
    @@@@@@@@@@@@@@@@............@@@@@@@@@......
    .@@@@@@@@@@@@@@.............@@@@@@@@.......
    .@@@@@@@@@@@@...............@@@@@@@@.......
    ..@@@@@@@@@@................@@@@@@@@.......
    ............................@@@@@@@........
    ............................@@@@@@@........
    ...........................@@@@@@@.........
    ..........................@@@@@@@@.........
    ..........................@@@@@@@..........
    ..........................@@@@@@@..........
    .........................@@@@@@@@..........
    .........................@@@@@@@@..........
    ........................@@@@@@@@...........
    ........................@@@@@@@@...........
    ........................@@@@@@@@...........
    .......................@@@@@@@@@...........
    .......................@@@@@@@@@...........
    .......................@@@@@@@@............
    .......................@@@@@@@@............


# [መ] ETHIOPIC SYLLABLE MA
u+1218:
0xa0:
    ...............@@@@@@@@@@@@@@@@@@@@@@@@@@........
    ..........@@@@@@@@@@@@@@@@@@@@@@@@@@@@@@@@@@.....
    .........@@@@@@@@@@@@@@@@@@@@@@@@@@@@@@@@@@@@@...
    ........@@@@@@@@@@@@@@@@@@@@@@@@@@@@@@@@@@@@@@...
    ......@@@@@@@@@@@@@@@@@@@@@@@@@@@@@@@@@@@@@@@@@..
    ......@@@@@@@@...@@@@@@@@@@.@@@@@@@@.@@@@@@@@@@..
    .....@@@@@@@@....@@@@@@@@@..@@@@@@@....@@@@@@@@..
    ....@@@@@@@@.....@@@@@@@@@..@@@@@@@....@@@@@@@@..
    ....@@@@@@@@.....@@@@@@@@...@@@@@@@....@@@@@@@@..
    ...@@@@@@@@.....@@@@@@@@@..@@@@@@@@...@@@@@@@@@..
    ..@@@@@@@@.....@@@@@@@@@...@@@@@@@....@@@@@@@@...
    ..@@@@@@@@....@@@@@@@@@....@@@@@@@....@@@@@@@@...
    .@@@@@@@@@...@@@@@@@@@@....@@@@@@@...@@@@@@@@@...
    .@@@@@@@@@..@@@@@@@@@@....@@@@@@@@@@@@@@@@@@@....
    .@@@@@@@@@..@@@@@@@@@@....@@@@@@@@@@@@@@@@@@@....
    .@@@@@@@@@@@@@@@@@@@@@....@@@@@@@@@@@@@@@@@@@....
    .@@@@@@@@@@@@@@@@@@@@......@@@@@@@@@@@@@@@@......
    ..@@@@@@@@@@@@@@@@@@........@@@@@@@@@@@@@........
    ....@@@@@@@@@@@@@@@..........@@@@@@@@@@..........
    .....@@@@@@@@@@..................................

    shift-up: 5



# [ደ] ETHIOPIC SYLLABLE DA
u+12f0:
0xa1:
    ...............@@@@@...........
    .............@@@@@@@@@@........
    ..........@@@@@@@@@@@@@@@......
    ........@@@@@@@@@@@@@@@@@@.....
    ........@@@@@@@@@@@@@@@@@@.....
    .......@@@@@@@@...@@@@@@@@@....
    ......@@@@@@@@....@@@@@@@@@....
    ......@@@@@@@@...@@@@@@@@@@....
    ......@@@@@@@....@@@@@@@@@@....
    ......@@@@@@@...@@@@@@@@@@.....
    .....@@@@@@@@...@@@@@@@@@@.....
    .....@@@@@@@@..@@@@@@@@@@......
    .....@@@@@@@@@@@@@@@@@@@.......
    ......@@@@@@@@@@@@@@@@@........
    ......@@@@@@@@@@@@@@@@.........
    ......@@@@@@@@@@@@@............
    ......@@@@@@@@@................
    .......@@@@@@@.................
    .......@@@@@@@.................
    .......@@@@@@@@................
    .......@@@@@@@@................
    ........@@@@@@@@@..............
    ........@@@@@@@@@@.............
    .......@@@@@@@@@@@@@@@@@@@@....
    ...@@@@@@@@@@@@@@@@@@@@@@@@@...
    .@@@@@@@@@@@@@@@@@@@@@@@@@@@...
    .@@@@@@@@@........@@@@@@@@@@...
    .@@@@@@@@...........@@@@@@@@...
    .@@@@@@@@............@@@@@@@@..
    .@@@@@@@@............@@@@@@@@..
    @@@@@@@@..............@@@@@@@..
    @@@@@@@@...............@@@@@@..
    .........................@@@...


# [ፊ] ETHIOPIC SYLLABLE FI
u+134a:
0xa2:
    ..............@@@@@@@..........
    .............@@@@@@@@..........
    .............@@@@@@@@..........
    .............@@@@@@@@..........
    .............@@@@@@@@..........
    .............@@@@@@@@..........
    ............@@@@@@@@...........
    ............@@@@@@@@...........
    ...........@@@@@@@@............
    ..........@@@@@@@@@............
    ..........@@@@@@@@.............
    .........@@@@@@@@..............
    .........@@@@@@@...............
    ........@@@@@@@@...............
    .......@@@@@@@@................
    ......@@@@@@@@.................
    .....@@@@@@@@..................
    .....@@@@@@@@@@@@@.............
    ....@@@@@@@@@@@@@@@@...........
    ...@@@@@@@@@@@@@@@@@.....@@@@..
    ..@@@@@@@@.@@@@@@@@@.....@@@@@.
    .@@@@@@@@....@@@@@@@....@@@@@@.
    .@@@@@@@@....@@@@@@@....@@@@@@.
    .@@@@@@@@....@@@@@@@....@@@@@@.
    .@@@@@@@@...@@@@@@@@@@@@@@@@@@.
    .@@@@@@@@..@@@@@@@@@@@@@@@@@@..
    .@@@@@@@@@@@@@@@@@@@@@@@@@@@@..
    .@@@@@@@@@@@@@@@.@@@@@@@@@@@@..
    .@@@@@@@@@@@@...........@@@@...
    ..@@@@@@@@.....................
    ....@@@@.......................

    shift-up: 1



# [ሰ] ETHIOPIC SYLLABLE SA
u+1230:
0xa3:
    .........@@@@@@@...........
    .........@@@@@@@@..........
    .........@@@@@@@@..........
    .........@@@@@@@@..........
    .........@@@@@@@@..........
    .........@@@@@@@@..........
    .........@@@@@@@@@@@.......
    ......@@@@@@@@@@@@@@@@.....
    .....@@@@@@@@@@@@@@@@@.....
    ....@@@@@@@@@@@@@@@@@@@....
    ...@@@@@@@...@@@@@@@@@@....
    ..@@@@@@@.....@@@@@@@@@....
    ..@@@@@@@......@@@@@@@@@...
    .@@@@@@@@......@@@@@@@@@...
    .@@@@@@@@......@@@@@@@@@...
    .@@@@@@@@......@@@@@@@@@...
    .@@@@@@@@.......@@@@@@@@...
    .@@@@@@@@.......@@@@@@@@...
    .@@@@@@@@.......@@@@@@@@...
    .@@@@@@@@.......@@@@@@@@...
    .@@@@@@@@.......@@@@@@@@...
    .@@@@@@@@.......@@@@@@@@...
    .@@@@@@@@.......@@@@@@@@...
    .@@@@@@@@.......@@@@@@@@...
    .@@@@@@@@.......@@@@@@@@...
    .@@@@@@@@.......@@@@@@@@...
    .@@@@@@@@.......@@@@@@@@...
    .@@@@@@@@.......@@@@@@@@...
    .@@@@@@@@.......@@@@@@@@...
    .@@@@@@@@.......@@@@@@@@...
    .@@@@@@@@.......@@@@@@@@...
    .@@@@@@@@.......@@@@@@@@...
    ..@@@@@@.........@@@@@@@...


# [ረ] ETHIOPIC SYLLABLE RA
u+1228:
0xa4:
    ..................@@@@@.....
    .................@@@@@@@....
    ...............@@@@@@@@@@...
    ...............@@@@@@@@@@...
    ...............@@@@@@@@@@...
    ...............@@@@@@@@@....
    ...............@@@@@@@@@....
    ...............@@@@@@@@.....
    ..............@@@@@@@@@.....
    .............@@@@@@@@@......
    ............@@@@@@@@@.......
    ..........@@@@@@@@@@........
    .........@@@@@@@@@@.........
    .........@@@@@@@@@..........
    ........@@@@@@@@@...........
    .......@@@@@@@@@............
    ......@@@@@@@@@.............
    ....@@@@@@@@@...............
    ....@@@@@@@@@...............
    ...@@@@@@@@@................
    ...@@@@@@@@.................
    ..@@@@@@@@..................
    ..@@@@@@@@..................
    .@@@@@@@@............@@@@...
    .@@@@@@@@.........@@@@@@@@@.
    .@@@@@@@@........@@@@@@@@@@.
    .@@@@@@@@........@@@@@@@@@@.
    .@@@@@@@@@...@.@@@@@@@@@@@@.
    ..@@@@@@@@@@@@@@@@@@@@@@@@@.
    ..@@@@@@@@@@@@@@@@@@@@@@@@@.
    ..@@@@@@@@@@@@@@@@@@@@@@@@@.
    ....@@@@@@@@@@@@@@@@@@@@@@@.
    ......@@@@@@..........@@@@..


# [በ] ETHIOPIC SYLLABLE BA
u+1260:
0xa5:
    .......@@@@@@@@@@@@@......
    ......@@@@@@@@@@@@@@@@....
    .....@@@@@@@@@@@@@@@@@....
    ....@@@@@@@@@@@@@@@@@@@...
    ...@@@@@@@...@@@@@@@@@@...
    ..@@@@@@@.....@@@@@@@@@...
    ..@@@@@@@......@@@@@@@@@..
    .@@@@@@@@......@@@@@@@@@..
    .@@@@@@@@......@@@@@@@@@..
    .@@@@@@@@......@@@@@@@@@..
    .@@@@@@@@.......@@@@@@@@..
    .@@@@@@@@.......@@@@@@@@..
    .@@@@@@@@.......@@@@@@@@..
    .@@@@@@@@.......@@@@@@@@..
    .@@@@@@@@.......@@@@@@@@..
    .@@@@@@@@.......@@@@@@@@..
    .@@@@@@@@.......@@@@@@@@..
    .@@@@@@@@.......@@@@@@@@..
    .@@@@@@@@.......@@@@@@@@..
    .@@@@@@@@.......@@@@@@@@..
    .@@@@@@@@.......@@@@@@@@..
    .@@@@@@@@.......@@@@@@@@..
    .@@@@@@@@.......@@@@@@@@..
    .@@@@@@@@.......@@@@@@@@..
    .@@@@@@@@.......@@@@@@@@..
    .@@@@@@@@.......@@@@@@@@..
    .@@@@@@@@.......@@@@@@@@..
    .@@@@@@@@.......@@@@@@@@..
    .@@@@@@@@.......@@@@@@@@..
    .@@@@@@@@.......@@@@@@@@..
    ..@@@@@@@........@@@@@@@..


# [ሪ] ETHIOPIC SYLLABLE RI
u+122a:
0xa6:
    ................@@@@@@@@....
    ...............@@@@@@@@@....
    ...............@@@@@@@@@....
    ...............@@@@@@@@@....
    ..............@@@@@@@@@@....
    ..............@@@@@@@@@.....
    ..............@@@@@@@@@.....
    .............@@@@@@@@@@.....
    .............@@@@@@@@@......
    ............@@@@@@@@@.......
    ...........@@@@@@@@@........
    ...........@@@@@@@@@........
    .........@@@@@@@@@@.........
    .........@@@@@@@@@..........
    ........@@@@@@@@@...........
    .......@@@@@@@@@............
    ......@@@@@@@@..............
    ....@@@@@@@@@@..............
    ...@@@@@@@@@@...............
    ..@@@@@@@@@........@@@@@@@..
    ..@@@@@@@@........@@@@@@@@@.
    .@@@@@@@@@........@@@@@@@@@.
    .@@@@@@@@@........@@@@@@@@@.
    .@@@@@@@@........@@@@@@@@@@.
    .@@@@@@@@........@@@@@@@@@..
    .@@@@@@@@.......@@@@@@@@@...
    .@@@@@@@@@...@@@@@@@@@@@@...
    ..@@@@@@@@@@@@@@@@@@@@@.....
    ..@@@@@@@@@@@@@@@@@@@@......
    ...@@@@@@@@@@@@@@@@@@.......
    ....@@@@@@@@@@@@@@@@........
    .....@@@@@@@@@@@@@..........

    shift-up: -1



# [ነ] ETHIOPIC SYLLABLE NA
u+1290:
0xa7:
    .....@@@@@@...........
    ....@@@@@@@...........
    ....@@@@@@@...........
    ....@@@@@@@...........
    ....@@@@@@@...........
    ....@@@@@@@...........
    ...@@@@@@@@...........
    ...@@@@@@@@...........
    ...@@@@@@@@...........
    ...@@@@@@@@...........
    ...@@@@@@@@@@@@@@@....
    ...@@@@@@@@@@@@@@@@@@.
    ...@@@@@@@@@@@@@@@@@@.
    ....@@@@@@@@@@@@@@@@@@
    ...........@@@@@@@@@@@
    ...........@@@@@@@@@@@
    ............@@@@@@@@@.
    ............@@@@@@@@@.
    ...........@@@@@@@@@..
    ...........@@@@@@@@@..
    ...........@@@@@@@@...
    .........@@@@@@@@@@...
    .........@@@@@@@@@....
    ........@@@@@@@@@@....
    ........@@@@@@@@@@....
    ........@@@@@@@@@.....
    .......@@@@@@@@@@.....
    .......@@@@@@@@@@.....
    .......@@@@@@@@@......
    .......@@@@@@@@@......
    .......@@@@@@@@@......
    .......@@@@@@@@@......
    ........@@@@@@@@@.....


# [ከ] ETHIOPIC SYLLABLE KA
u+12a8:
0xa8:
    ..@@@@@@@...................
    .@@@@@@@@...................
    .@@@@@@@@...................
    .@@@@@@@@...................
    .@@@@@@@@...................
    .@@@@@@@@...................
    .@@@@@@@@...................
    .@@@@@@@@@@@@@@@@@@@........
    .@@@@@@@@@@@@@@@@@@@@@......
    .@@@@@@@@@@@@@@@@@@@@@@.....
    ..@@@@@@@@@@@@@@@@@@@@@@....
    .....@@@@@@@....@@@@@@@@....
    ....@@@@@@@.....@@@@@@@@@...
    ..@@@@@@@@......@@@@@@@@@...
    ..@@@@@@@.......@@@@@@@@@...
    .@@@@@@@@.......@@@@@@@@@...
    .@@@@@@@@.......@@@@@@@@@...
    .@@@@@@@@.......@@@@@@@@@...
    .@@@@@@@@.......@@@@@@@@@...
    .@@@@@@@@.......@@@@@@@@@...
    .@@@@@@@@.......@@@@@@@@@...
    .@@@@@@@@.......@@@@@@@@@...
    .@@@@@@@@.......@@@@@@@@@...
    .@@@@@@@@.......@@@@@@@@@...
    .@@@@@@@@.......@@@@@@@@@...
    .@@@@@@@@.......@@@@@@@@@...
    .@@@@@@@@.......@@@@@@@@@...
    .@@@@@@@@.......@@@@@@@@@...
    .@@@@@@@@.......@@@@@@@@@...
    .@@@@@@@@.......@@@@@@@@@...
    .@@@@@@@@.......@@@@@@@@@...
    .@@@@@@@@.......@@@@@@@@@...
    .@@@@@@@@........@@@@@@@@...


# [ቀ] ETHIOPIC SYLLABLE QA
u+1240:
0xa9:
    ..................@@@@@@............
    .................@@@@@@@@...........
    .................@@@@@@@@...........
    .................@@@@@@@@...........
    .................@@@@@@@@...........
    .................@@@@@@@@...........
    .................@@@@@@@@...........
    .................@@@@@@@@@@@@@@@....
    ...............@@@@@@@@@@@@@@@@@@...
    ..........@@@@@@@@@@@@@@@@@@@@@@@@..
    .........@@@@@@@@@@@@@@@@@@@@@@@@@@.
    .......@@@@@@@@@@@@@@@@@@..@@@@@@@@.
    .....@@@@@@@@@..@@@@@@@@....@@@@@@@.
    .....@@@@@@@@...@@@@@@@@....@@@@@@@.
    ....@@@@@@@@....@@@@@@@@....@@@@@@..
    ...@@@@@@@@@....@@@@@@@@...@@@@@@@..
    ...@@@@@@@@@....@@@@@@@@...@@@@@@...
    ...@@@@@@@@@....@@@@@@@@@@@@@@@@....
    ...@@@@@@@@@@..@@@@@@@@@@@@@@@@.....
    ....@@@@@@@@@@@@@@@@@@@@@@@@@.......
    ....@@@@@@@@@@@@@@@@@@@@@@@@........
    .....@@@@@@@@@@@@@@@@@@@............
    ........@@@@@@@@@@@@@@@@............
    ..............@@@@@@@@@@............
    ...............@@@@@@@@@............
    ...............@@@@@@@@@............
    ...............@@@@@@@@@............
    ...............@@@@@@@@@............
    ...............@@@@@@@@@............
    ...............@@@@@@@@@............
    ...............@@@@@@@@@............
    ...............@@@@@@@@@............
    ...............@@@@@@@@@............
    ...............@@@@@@@@@............
    ...............@@@@@@@@@............


# [ገ] ETHIOPIC SYLLABLE GA
u+1308:
0xaa:
    .............@@@@@@@@......
    .......@@@@@@@@@@@@@@@.....
    ...@@@@@@@@@@@@@@@@@@@@....
    .@@@@@@@@@@@@@@@@@@@@@@....
    .@@@@@@@@@@@@@@@@@@@@@@....
    .@@@@@@@@@@...@@@@@@@@@@...
    .@@@@@@@@@.....@@@@@@@@@...
    .@@@@@@@@......@@@@@@@@@...
    .@@@@@@@@......@@@@@@@@@...
    ..@@@@@@@......@@@@@@@@@...
    ..@@@@@........@@@@@@@@@...
    ..@@@@.........@@@@@@@@@...
    ...............@@@@@@@@@...
    ...............@@@@@@@@....
    ...............@@@@@@@@....
    ...............@@@@@@@@....
    ..............@@@@@@@@@....
    ..............@@@@@@@@@....
    ..............@@@@@@@@.....
    ..............@@@@@@@@.....
    .............@@@@@@@@@.....
    .............@@@@@@@@@.....
    .............@@@@@@@@@.....
    .............@@@@@@@@@.....
    .............@@@@@@@@@.....
    .............@@@@@@@@@.....
    .............@@@@@@@@@.....
    .............@@@@@@@@@.....
    .............@@@@@@@@@.....
    .............@@@@@@@@@.....
    .............@@@@@@@@......


# [ሃ] ETHIOPIC SYLLABLE HAA
u+1203:
0xab:
    ...@@@@@@@.........@@@@@@@@.
    ...@@@@@@@........@@@@@@@@@.
    ...@@@@@@@@.......@@@@@@@@@.
    ....@@@@@@@.......@@@@@@@@..
    ....@@@@@@@.......@@@@@@@@..
    ....@@@@@@@.......@@@@@@@@..
    ....@@@@@@@......@@@@@@@@@..
    ....@@@@@@@......@@@@@@@@@..
    ....@@@@@@@......@@@@@@@@@..
    ....@@@@@@@......@@@@@@@@@..
    ....@@@@@@@.....@@@@@@@@@...
    ....@@@@@@@@....@@@@@@@@@...
    .....@@@@@@@@@@@@@@@@@@@@...
    .....@@@@@@@@@@@@@@@@@@@@...
    .......@@@@@@@@@@@@@@@@@....
    ........@@@@@@@@@@@@@@@@....
    ...............@@@@@@@@@....
    ...............@@@@@@@@@....
    ...............@@@@@@@@@....
    ...............@@@@@@@@.....
    ..............@@@@@@@@@.....
    ..............@@@@@@@@......
    .............@@@@@@@@@......
    .............@@@@@@@@@......
    .............@@@@@@@@.......
    ............@@@@@@@@@.......
    ............@@@@@@@@@.......
    ............@@@@@@@@@.......
    ............@@@@@@@@@.......
    ............@@@@@@@@@.......
    ............@@@@@@@@@.......
    ............@@@@@@@@@.......


# [ዠ] ETHIOPIC SYLLABLE ZHA
u+12e0:
0xac:
    ....@@@@@@@@....................@@@@@@@@...
    ...@@@@@@@@@@@...............@@@@@@@@@@@@..
    ..@@@@@@@@@@@@@@............@@@@@@@@@@@@@..
    ..@@@@@@@@@@@@@@@...........@@@@@@@@@@@@@..
    .@@@@@@@@@@@@@@@@@.........@@@@@@@@@@@@@@@.
    .@@@@@@@@.@@@@@@@@........@@@@@...@@@@@@@@.
    .@@@@@@@@.@@@@@@@@........@@@@@...@@@@@@@@.
    .@@@@@@@..@@@@@@@@.......@@@@@@....@@@@@@@.
    .@@@@@@@..@@@@@@@@.......@@@@@@.....@@@@@@.
    .@@@@@@...@@@@@@@@.......@@@@@@............
    .@@@@@....@@@@@@@@.......@@@@@@............
    ..........@@@@@@@@.......@@@@@@............
    ..........@@@@@@@@......@@@@@@@............
    ..........@@@@@@@@@@@@@@@@@@@@@............
    ..........@@@@@@@@@@@@@@@@@@@@@............
    ..........@@@@@@@@@@@@@@@@@@@@@............
    ..........@@@@@@@@@....@@@@@@@@............
    ..........@@@@@@@@......@@@@@@@............
    ..........@@@@@@@@......@@@@@@@............
    ..........@@@@@@@@......@@@@@@@............
    ..........@@@@@@@@......@@@@@@@............
    ..........@@@@@@@@......@@@@@@@............
    ..........@@@@@@@@......@@@@@@@............
    ..........@@@@@@@@......@@@@@@@............
    ..........@@@@@@@@......@@@@@@@............
    ..........@@@@@@@@......@@@@@@@............
    ..........@@@@@@@@......@@@@@@@............
    ..........@@@@@@@@......@@@@@@@............
    ..........@@@@@@@@......@@@@@@@............
    ..........@@@@@@@@......@@@@@@@............
    ..........@@@@@@@@......@@@@@@@............


# [አ] ETHIOPIC SYLLABLE GLOTTAL A
u+12a0:
0xad:
    .......@@@@@@@@@................
    ......@@@@@@@@@@@...............
    ......@@@@@@@@@@@...............
    ......@@@@@@@@@@@...............
    .......@@@@@@@@@@...............
    ........@@@@@@@@@...............
    ........@@@@@@@@@...............
    .......@@@@@@@@@@...............
    .......@@@@@@@@@@...............
    .......@@@@@@@@@@@@@@@..........
    .......@@@@@@@@@@@@@@@@.........
    ........@@@@@@@@@@@@@@@.........
    ..........@.@@@@@@@@@@..........
    ............@@@@@@@@@...........
    ...........@@@@@@@@@............
    ..........@@@@@@@@@@............
    ..........@@@@@@@@@@.@@@@@......
    .........@@@@@@@@@@@@@@@@@@@....
    ........@@@@@@@@@@@@@@@@@@@@....
    .......@@@@@@@@@@@@@@@@@@@@@@...
    .......@@@@@@@@@@@@@@@@@@@@@@...
    ......@@@@@@@@@....@@@@@@@@@@...
    ......@@@@@@@@@.....@@@@@@@@@...
    .....@@@@@@@@@......@@@@@@@@@@..
    .....@@@@@@@@@.......@@@@@@@@@..
    ....@@@@@@@@@@.......@@@@@@@@@..
    ....@@@@@@@@@.........@@@@@@@@..
    ...@@@@@@@@@@.........@@@@@@@@..
    ...@@@@@@@@@@..........@@@@@@@@.
    ..@@@@@@@@@@...........@@@@@@@@.
    ..@@@@@@@@@@...........@@@@@@@@.
    ..@@@@@@@@@............@@@@@@@@.
    ..@@@@@@@@.............@@@@@@@@.
    ...@@@@@@@..............@@@@@@@.


# [ለ] ETHIOPIC SYLLABLE LA
u+1208:
0xae:
    ..........@@@@@@...........
    ..........@@@@@@...........
    .........@@@@@@@@..........
    .........@@@@@@@@@.........
    .........@@@@@@@@@.........
    ..........@@@@@@@@@........
    ..........@@@@@@@@@@.......
    .........@@@@@@@@@@@@......
    ........@@@@@@@@@@@@@......
    .......@@@@@@@@@@@@@@@.....
    .......@@@@@@@@@@@@@@@.....
    ......@@@@@@@@@@@@@@@@.....
    .....@@@@@@@@@@@@@@@@@@....
    .....@@@@@@@@@@@@@@@@@@....
    ....@@@@@@@@...@@@@@@@@....
    ...@@@@@@@@.....@@@@@@@@...
    ...@@@@@@@@.....@@@@@@@@...
    ...@@@@@@@@.....@@@@@@@@...
    ..@@@@@@@@......@@@@@@@@...
    ..@@@@@@@@......@@@@@@@@...
    ..@@@@@@@@......@@@@@@@@...
    ..@@@@@@@.......@@@@@@@@...
    .@@@@@@@@.......@@@@@@@@...
    .@@@@@@@@.......@@@@@@@@...
    .@@@@@@@@.......@@@@@@@@...
    .@@@@@@@@.......@@@@@@@@...
    .@@@@@@@@.......@@@@@@@@...
    .@@@@@@@@.......@@@@@@@@...
    .@@@@@@@@.......@@@@@@@@...
    .@@@@@@@@.......@@@@@@@@...
    .@@@@@@@@.......@@@@@@@@...
    .@@@@@@@@.......@@@@@@@@...
    .@@@@@@@@.......@@@@@@@@...
    ..@@@@@@@.......@@@@@@@@...


# [ፈ] ETHIOPIC SYLLABLE FA
u+1348:
0xaf:
    ...............@@@@@@@............
    ..............@@@@@@@@@...........
    ..............@@@@@@@@@...........
    ..............@@@@@@@@@...........
    ..............@@@@@@@@............
    ..............@@@@@@@@............
    ..............@@@@@@@@............
    .............@@@@@@@@@............
    .............@@@@@@@@.............
    ............@@@@@@@@..............
    ...........@@@@@@@@@..............
    ...........@@@@@@@@...............
    ..........@@@@@@@@................
    .........@@@@@@@@.................
    .........@@@@@@@@.................
    ........@@@@@@@@..................
    .......@@@@@@@@...................
    .......@@@@@@@....................
    ......@@@@@@@@@@@@@...............
    ....@@@@@@@@@@@@@@@@@.............
    ...@@@@@@@@@@@@@@@@@@@............
    ...@@@@@@@@@@@@@@@@@@@............
    ..@@@@@@@@..@@@@@@@@@@......@@@...
    ..@@@@@@@@..@@@@@@@@@@...@@@@@@@..
    .@@@@@@@@@..@@@@@@@@@@..@@@@@@@@@.
    .@@@@@@@@@..@@@@@@@@@@@@@@@@@@@@@.
    .@@@@@@@@@.@@@@@@@@@@@@@@@@@@@@@@.
    .@@@@@@@@@@@@@@@@@@@@@@@@@@@@@@@@.
    .@@@@@@@@@@@@@@@@.......@@@@@@@@@.
    ..@@@@@@@@@@@@............@@@@@@@.
    ...@@@@@@@@.................@@@@..
    .....@@@@.........................

    shift-up: -1



# [ተ] ETHIOPIC SYLLABLE TA
u+1270:
0xb0:
    .................@@@@@@@..............
    .................@@@@@@@..............
    ................@@@@@@@@@.............
    ................@@@@@@@@@.............
    ................@@@@@@@@@.............
    ................@@@@@@@@@.............
    ................@@@@@@@@@.............
    ................@@@@@@@@@.............
    ................@@@@@@@@@.....@@@@@...
    ................@@@@@@@@@@@@@@@@@@@@..
    ............@@@@@@@@@@@@@@@@@@@@@@@@@.
    ......@@@@@@@@@@@@@@@@@@@@@@@@@@@@@@@.
    ....@@@@@@@@@@@@@@@@@@@@@@@@@@@@@@@@@.
    ...@@@@@@@@@@@@@@@@@@@@@@...@@@@@@@@@.
    ...@@@@@@@@@...@@@@@@@@@@...@@@@@@@@@.
    ...@@@@@@@@@....@@@@@@@@@...@@@@@@@@@.
    ...@@@@@@@@.....@@@@@@@@@....@@@@@@@..
    ...@@@@@@@@.....@@@@@@@@@.............
    ...@@@@@@@......@@@@@@@@@.............
    ...@@@@@@.......@@@@@@@@@.............
    ...@@@@@@.......@@@@@@@@@.............
    ................@@@@@@@@@.............
    ................@@@@@@@@@.............
    ................@@@@@@@@@.............
    ................@@@@@@@@@.............
    ................@@@@@@@@@.............
    ................@@@@@@@@@.............
    ................@@@@@@@@@.............
    ................@@@@@@@@@.............
    ................@@@@@@@@@.............
    ................@@@@@@@@@.............
    ................@@@@@@@@@.............
    ................@@@@@@@@@.............
    ................@@@@@@@@@.............

0xb1:
    ............@@@@@@@@........
    ..........@@@@@@@@@@@@......
    .........@@@@@@@@@@@@@@@....
    .........@@@@@@@@@@@@@@@@...
    ........@@@@@@@@@@@@@@@@@@..
    .......@@@@@@@@...@@@@@@@@@.
    .......@@@@@@@.....@@@@@@@@.
    ......@@@@@@@@.....@@@@@@@@.
    ......@@@@@@@.....@@@@@@@@@.
    .....@@@@@@@@.....@@@@@@@@@.
    .....@@@@@@@@....@@@@@@@@@@.
    .....@@@@@@@@....@@@@@@@@@..
    .....@@@@@@@@....@@@@@@@@@..
    ......@@@@@@@...@@@@@@@@@...
    .......@@@@@@@@@@@@@@@@@....
    .......@@@@@@@@@@@@@@@......
    .......@@@@@@@@@@@@@@.......
    .......@@@@@@@@@@@@.........
    ........@@@@@@@@@...........
    ........@@@@@@@@@@..........
    .........@@@@@@@@@..........
    .........@@@@@@@@@..........
    ..........@@@@@@@@..........
    ..........@@@@@@@@..........
    ..........@@@@@@@@..........
    ..........@@@@@@@@..........
    ..........@@@@@@@@..........
    ..........@@@@@@@@..........
    ..........@@@@@@@@..........
    ..........@@@@@@@@..........
    ..........@@@@@@@@..........
    ..........@@@@@@@@..........
    ..........@@@@@@@@..........


# [ወ] ETHIOPIC SYLLABLE WA
u+12c8:
0xb2:
    ........................@@@@......
    .............@@@@@@@@@@@@@@@@@....
    .........@@@@@@@@@@@@@@@@@@@@@@...
    ........@@@@@@@@@@@@@@@@@@@@@@@...
    ......@@@@@@@@@@@@@@@@@@@@@@@@@@..
    ....@@@@@@@..@@@@@@@@....@@@@@@@..
    ....@@@@@@...@@@@@@@@....@@@@@@@..
    ...@@@@@@@...@@@@@@@@....@@@@@@@..
    ...@@@@@@...@@@@@@@@@....@@@@@@@..
    ..@@@@@@@...@@@@@@@@@....@@@@@@@..
    ..@@@@@@@...@@@@@@@@@....@@@@@@@..
    ..@@@@@@@...@@@@@@@@@....@@@@@@@..
    .@@@@@@@@...@@@@@@@@@....@@@@@@@..
    .@@@@@@@@...@@@@@@@@.....@@@@@@@..
    .@@@@@@@@...@@@@@@@@.....@@@@@@@..
    .@@@@@@@@...@@@@@@@@.....@@@@@@@..
    .@@@@@@@@...@@@@@@@@.....@@@@@@...
    .@@@@@@@@...@@@@@@@@....@@@@@@@...
    .@@@@@@@@...@@@@@@@@....@@@@@@@...
    .@@@@@@@@...@@@@@@@@....@@@@@@....
    .@@@@@@@@..@@@@@@@@@@..@@@@@@@....
    .@@@@@@@@..@@@@@@@@@@@@@@@@@@.....
    .@@@@@@@@.@@@@@@@@@@@@@@@@@@@.....
    .@@@@@@@@@@@@@@@@@@@@@@@@@@@@.....
    ..@@@@@@@@@@@@@@@.....@@@@@@......
    ...@@@@@@@@.......................
    .....@@@@.........................

    shift-up: 1



# [ጨ] ETHIOPIC SYLLABLE CHA
u+1328:
0xb3:
    .....................@@.@@@.................
    ............@@@@@@@@@@@@@@@@@@@@@...........
    ..........@@@@@@@@@@@@@@@@@@@@@@@@@.........
    .........@@@@@@@@@@@@@@@@@@@@@@@@@@@........
    ........@@@@@@@@@@@@@@@...@.@@@@@@@@........
    ......@@@@@@...@@@@@@@........@@@@@@@.......
    .....@@@@@@....@@@@@@@........@@@@@@@@......
    .....@@@@@......@@@@@@.........@@@@@@@......
    ....@@@@@@......@@@@@@.........@@@@@@@......
    ...@@@@@@.......@@@@@@.........@@@@@@@@.....
    ...@@@@@@.......@@@@@@.........@@@@@@@@.....
    ..@@@@@@@.......@@@@@@.........@@@@@@@@.....
    .@@@@@@@@.......@@@@@@.........@@@@@@@@.....
    .@@@@@@@@.......@@@@@@.........@@@@@@@......
    .@@@@@@@........@@@@@@.........@@@@@@@......
    .@@@@@@@........@@@@@@.........@@@@@@@......
    @@@@@@@@.......@@@@@@@.........@@@@@@@......
    @@@@@@@@.......@@@@@@@@........@@@@@@@......
    @@@@@@@@@@@@...@@@@@@@@@@@@@..@@@@@@@@@.....
    @@@@@@@@@@@@@..@@@@@@@@@@@@@@.@@@@@@@@@@@@..
    @@@@@@@@@@@@@@.@@@@@@@@@@@@@@.@@@@@@@@@@@@@.
    @@@@@@@@@@@@@@.@@@@@@@@@@@@@@.@@@@@@@@@@@@@@
    @@@@@@@@..@@@@.@@@@@@@..@@@@@.@@@@@@@@@@@@@@
    @@@@@@@@..@@@@.@@@@@@@..@@@@@.@@@@@@@@..@@@@
    @@@@@@@@@@@@@@.@@@@@@@..@@@@..@@@@@@@@..@@@@
    @@@@@@@@@@@@@@.@@@@@@@@@@@@@..@@@@@@@@@@@@@.
    .@@@@@@@@........@@@@@@@@@.....@@@@@@@@@@...

    shift-up: -1



# [ጸ] ETHIOPIC SYLLABLE TSA
u+1338:
0xb4:
    .........@@@@@@@...........
    ......@@@@@@@@@@@@@........
    .....@@@@@@@@@@@@@@@.......
    .....@@@@@@@@@@@@@@@.......
    ....@@@@@@@@@@@@@@@@.......
    ....@@@@@...@@@@@@@@@......
    ...@@@@@@...@@@@@@@@@......
    ...@@@@@@...@@@@@@@@@......
    ...@@@@@@...@@@@@@@@@......
    ..@@@@@@@...@@@@@@@@.......
    ..@@@@@@@..@@@@@@@@@.......
    ...@@@@@@@@@@@@@@@@........
    ...@@@@@@@@@@@@@@@@........
    ....@@@@@@@@@@@@@@.........
    .....@@@@@@@@@@@@@.........
    ........@@@@@@@@@@@@.......
    ........@@@@@@@@@@@@@@.....
    ......@@@@@@@@@@@@@@@@.....
    .....@@@@@@@@@@@@@@@@@@....
    .....@@@@@@@..@@@@@@@@@....
    ...@@@@@@@.....@@@@@@@@....
    ...@@@@@@......@@@@@@@@@...
    ..@@@@@@@.......@@@@@@@@...
    ..@@@@@@@.......@@@@@@@@...
    ..@@@@@@@.......@@@@@@@@...
    .@@@@@@@@.......@@@@@@@@...
    .@@@@@@@@.......@@@@@@@@...
    .@@@@@@@@.......@@@@@@@@...
    .@@@@@@@@.......@@@@@@@@...
    .@@@@@@@@.......@@@@@@@@...
    ..@@@@@@@.......@@@@@@@@...

    shift-up: 1



# [ኸ] ETHIOPIC SYLLABLE KXA
u+12b8:
0xb5:
    .......................@@@@.....
    ......................@@@@@@....
    ....................@@@@@@@@....
    .@@@@@@............@@@@@@@@@....
    .@@@@@@...........@@@@@@@@@@....
    .@@@@@@...@@@@@@@@@@@@@@@@@@....
    .@@@@@@@@@@@@@@@@@@@@@@@@@@@....
    .@@@@@@@@@@@@@@@@@@@@@@@@@@@....
    .@@@@@@@@@@@@@@@@@@@@@@@@@@@....
    .@@@@@@@@@@@@@@@@@..............
    .@@@@@@@.@@@@@@@@...............
    .@@@@@@..@@@@@@@@...............
    .@@@@@...@@@@@@@@...............
    ..@@.....@@@@@@@@...............
    .........@@@@@@@@@@@@@@@@@@@....
    .........@@@@@@@@@@@@@@@@@@@....
    .........@@@@@@@@@@@@@@@@@@@@...
    ..........@@@@@@@@@@@@@@@@@@@@..
    .............@@@@@@@...@@@@@@@..
    ............@@@@@@@....@@@@@@@@.
    ...........@@@@@@@......@@@@@@@.
    ..........@@@@@@@@......@@@@@@@.
    ..........@@@@@@@@......@@@@@@@.
    .........@@@@@@@@@......@@@@@@@.
    .........@@@@@@@@@......@@@@@@@.
    .........@@@@@@@@.......@@@@@@@.
    .........@@@@@@@@.......@@@@@@@.
    .........@@@@@@@@.......@@@@@@@.
    .........@@@@@@@@.......@@@@@@@.
    .........@@@@@@@@.......@@@@@@@.
    .........@@@@@@@@.......@@@@@@@.
    .........@@@@@@@@.......@@@@@@@.
    .........@@@@@@@@.......@@@@@@@.
    .........@@@@@@@@.......@@@@@@@.
    .........@@@@@@@@.......@@@@@@@.
    .........@@@@@@@@.......@@@@@@@.
    .........@@@@@@@@.......@@@@@@@.
    .........@@@@@@@@.......@@@@@@@.
    .........@@@@@@@@.......@@@@@@@.
    .........@@@@@@@@.......@@@@@@@.


# [ኖ] ETHIOPIC SYLLABLE NO
u+1296:
0xb6:
    .............@@@@@@@@@@@@@@@.......
    .........@@@@@@@@@@@@@@@@@@@@@@@...
    .......@@@@@@@@@@@@@@@@@@@@@@@@@@..
    ......@@@@@@@@@@@@@@@@@@@@@@@@@@@..
    .....@@@@@@@....@@@@@@@@@@@@@@@@@@.
    ....@@@@@@@.....@@@@@@@@...@@@@@@@.
    ...@@@@@@@......@@@@@@@@...@@@@@@@.
    ..@@@@@@@@......@@@@@@@@@.@@@@@@@@.
    ..@@@@@@@.......@@@@@@@@@@@@@@@@@..
    ..@@@@@@@........@@@@@@@@@@@@@@@@..
    .@@@@@@@@.........@@@@@@@@@@@@@@...
    .@@@@@@@@..........@@@@@@@@@@@.....
    .@@@@@@@@..........................
    .@@@@@@@@..........................
    .@@@@@@@@@@@...@@@@................
    ..@@@@@@@@@@@@@@@@@@...............
    ..@@@@@@@@@@@@@@@@@@@..............
    ...@@@@@@@@@@@@@@@@@@..............
    .........@@@@@@@@@@@@..............
    ............@@@@@@@@@..............
    ............@@@@@@@@...............
    ............@@@@@@@@...............
    ............@@@@@@@@...............
    ............@@@@@@@@...............
    ............@@@@@@@@...............
    ...........@@@@@@@@@...............
    ...........@@@@@@@@@...............
    ...........@@@@@@@@@...............
    ...........@@@@@@@@@...............
    ...........@@@@@@@@@...............
    ...........@@@@@@@@@...............
    ............@@@@@@@@...............


# [ቭ] ETHIOPIC SYLLABLE VE
u+126d:
0xb7:
    ......@@@@@@@................@@@@@@@.
    ......@@@@@@@@@@@@@@@@@@@@@@@@@@@@@@.
    ......@@@@@@@@@@@@@@@@@@@@@@@@@@@@@@.
    ......@@@@@@@@@@@@@@@@@@@@@@@@@@@@@@.
    ......@@@@@@@@@@@@@@@@@@@@@@@@@@@@@@.
    ......@@@@@@@@@@@@@@@@@@@@@@@@@@@@@@.
    ......@@@@@@@@...............@@@@@@@.
    ......@@@@....................@@@@@@.
    ......@@@........................@@@.
    .....................................
    ..................@@@@@@@@@..........
    ...............@@@@@@@@@@@@@.........
    ..............@@@@@@@@@@@@@@.........
    .............@@@@@@@@@@@@@@@@........
    ............@@@@@@@..@@@@@@@@@.......
    ...........@@@@@@@....@@@@@@@@.......
    ...........@@@@@@......@@@@@@@@......
    ..........@@@@@@@......@@@@@@@@......
    ..........@@@@@@@.......@@@@@@@@.....
    .........@@@@@@@@.......@@@@@@@@.....
    .........@@@@@@@@.......@@@@@@@@.....
    .........@@@@@@@........@@@@@@@@.....
    .........@@@@@@@........@@@@@@@@.....
    .........@@@@@@@........@@@@@@@@.....
    ..@@@@@@@@@@@@@@........@@@@@@@@.....
    .@@@@@@@@@@@@@@@........@@@@@@@@.....
    .@@@@@@@@@@@@@@@........@@@@@@@@.....
    .@@@@@@@@@@@@@@@........@@@@@@@......
    .@@@@@...@@@@@@@........@@@@@@@......
    .@@@@@...@@@@@@@........@@@@@@@......
    .@@@@....@@@@@@@........@@@@@@@......
    .........@@@@@@@........@@@@@@@......
    .........@@@@@@@........@@@@@@@......
    .........@@@@@@@........@@@@@@@......
    .........@@@@@@@........@@@@@@@......
    .........@@@@@@@........@@@@@@@......
    .........@@@@@@@........@@@@@@@......
    .........@@@@@@@........@@@@@@@......
    .........@@@@@@@........@@@@@@@......
    .........@@@@@@@........@@@@@@@......


# [ጰ] ETHIOPIC SYLLABLE PHA
u+1330:
0xb8:
    .........@@@@@...........
    .........@@@@@@..........
    .........@@@@@@..........
    .........@@@@@@..........
    .........@@@@@@..........
    .........@@@@@@..........
    .........@@@@@@..........
    .......@@@@@@@@@@@@......
    ......@@@@@@@@@@@@@@.....
    .....@@@@@@@@@@@@@@@.....
    ....@@@@@@@@@@@@@@@@.....
    ....@@@@@...@@@@@@@@@....
    ...@@@@@@...@@@@@@@@@....
    ...@@@@@@...@@@@@@@@@....
    ...@@@@@@...@@@@@@@@@....
    ..@@@@@@@...@@@@@@@@.....
    ..@@@@@@@..@@@@@@@@@.....
    ...@@@@@@@@@@@@@@@@......
    ...@@@@@@@@@@@@@@@@......
    ....@@@@@@@@@@@@@@.......
    .....@@@@@@@@@@@@@.......
    ........@@@@@@@@@@@@.....
    ........@@@@@@@@@@@@@@...
    ......@@@@@@@@@@@@@@@@...
    .....@@@@@@@@@@@@@@@@@@..
    .....@@@@@@@..@@@@@@@@@..
    ...@@@@@@@.....@@@@@@@@..
    ...@@@@@@......@@@@@@@@@.
    ..@@@@@@@.......@@@@@@@@.
    ..@@@@@@@.......@@@@@@@@.
    ..@@@@@@@.......@@@@@@@@.
    .@@@@@@@@.......@@@@@@@@.
    .@@@@@@@@.......@@@@@@@@.
    .@@@@@@@@.......@@@@@@@@.
    .@@@@@@@@.......@@@@@@@@.
    .@@@@@@@@.......@@@@@@@@.
    ..@@@@@@@.......@@@@@@@@.

    shift-up: 1



# [ፖ] ETHIOPIC SYLLABLE PO
u+1356:
0xb9:
    ...........................@@@@@@@@@@@@@@..
    .........@@@@@@@@@@@@@@@@@@@@@@@@@@@@@@@@..
    ........@@@@@@@@@@@@@@@@@@@@@@@@@@@@@@@@@@.
    ........@@@@@@@@@@@@@@@@@@@@@.@@@@@@@@@@@@.
    ........@@@@@@@@@@@@@@@@@@@@....@@@@@@@@@@.
    ........@@@@@@@@...@@@@@@@@@.....@@@@@@@@@.
    ........@@@@@@@@...@@@@@@@@@.....@@@@@@@@@.
    ........@@@@@@@....@@@@@@@@@.......@@@@@@..
    ........@@@@@@.....@@@@@@@@@........@@@....
    ........@@@@@......@@@@@@@@................
    ........@@.........@@@@@@@@................
    ...................@@@@@@@.................
    ..................@@@@@@@@.................
    .................@@@@@@@@..................
    ................@@@@@@@@...................
    ..............@@@@@@@@@....................
    ..............@@@@@@@@@....................
    ............@@@@@@@@@......................
    ...........@@@@@@@@@.......................
    .........@@@@@@@@@.........................
    .......@@@@@@@@@...........................
    .....@@@@@@@@@@............................
    ....@@@@@@@@@..............................
    ....@@@@@@@@...............................
    ...@@@@@@@@@...............................
    ..@@@@@@@@.................................
    .@@@@@@@@..................................
    .@@@@@@@@..................................
    .@@@@@@@@..................................
    .@@@@@@@@..................................
    .@@@@@@@@..................................
    ..@@@@@@@..................................

    shift-up: -1



# [፳] ETHIOPIC NUMBER TWENTY
u+1373:
0xba:
    ........@@@@@@@@@@@@@@@@@.....
    .......@@@@@......@@@@@@@.....
    ......@@@@@@.......@@@@@@@....
    ......@@@@@@........@@@@@.....
    .......@@.....................
    ..............................
    ...@@@@@@@@@@@@@@@@@@@@@@@@@@.
    ..@@@@@@@@@@@@@@@@@@@@@@@@@@@@
    .@@@@@@@@...@@@@@@@@..@@@@@@@@
    .@@@@@@@@..@@@@@@@@....@@@@@@@
    @@@@@@@@...@@@@@@@@.....@@@@@@
    .@@@@@@....@@@@@@@@......@@@@@
    .@@@@@.....@@@@@@@..........@.
    ..........@@@@@@@.............
    .........@@@@@@@@.............
    .........@@@@@@...............
    .........@@@@@@...............
    ........@@@@@@................
    .......@@@@@@.................
    ......@@@@@@@...@@@@..........
    ......@@@@@@...@@@@@@@........
    .....@@@@@@....@@@@@@@@.......
    ....@@@@@@......@@@@@@@.......
    ...@@@@@@.......@@@@@@@@......
    ..@@@@@@@.......@@@@@@@@......
    .@@@@@@@@.......@@@@@@@@......
    .@@@@@@@@.......@@@@@@@@......
    .@@@@@@@@........@@@@@@@......
    .@@@@@@@@.......@@@@@@@@......
    .@@@@@@@@.......@@@@@@@@......
    ..@@@@@@@........@@@@@@@......
    ...@@@@@..........@@@@@@......
    ...................@@.........
    ..............................
    ..............................
    .................@@...........
    ...@@@@@.......@@@@@@@........
    ..@@@@@@@@@@@@@@@@@@@@........
    ..@@@@@@@@@@@@@@@@@@@@........
    ..@@@@@..........@@@@@........
    ....@.........................

    shift-up: -6



# [፴] ETHIOPIC NUMBER THIRTY
u+1374:
0xbb:
    ...........................@@@@.......
    ...............@@@@@@@@@@@@@@@@@......
    ..........@@@@@@@@@@@@@@@@@@@@@@......
    ..........@@@@@@@@..........@@@@......
    ..........@@@@@@......................
    ......................................
    ......................................
    ......................................
    ......................@@@@.@@@@@......
    ...................@@@@@@@.@@@@@@@....
    ..................@@@@@@@...@@@@@@....
    .........@@@.....@@@@@@@@...@@@@@@@...
    .........@@@@....@@@@@@@@...@@@@@@@...
    ........@@@@@...@@@@@@@@....@@@@@@@...
    .......@@@@@....@@@@@@@@....@@@@@@@...
    ......@@@@@@....@@@@@@@@....@@@@@@@...
    ......@@@@@@....@@@@@@@@....@@@@@@@...
    .....@@@@@@@....@@@@@@@@....@@@@@@@...
    ....@@@@@@@@....@@@@@@@@....@@@@@@@...
    ....@@@@@@@@....@@@@@@@@....@@@@@@@...
    ....@@@@@@@@....@@@@@@@@....@@@@@@....
    .....@@@@@@@....@@@@@@@@....@@@@@@....
    .....@@@@@@@...@@@@@@@@.....@@@@@@....
    .....@@@@@@@...@@@@@@@@....@@@@@@@....
    .....@@@@@@@...@@@@@@@@....@@@@@@@....
    ......@@@@@@....@@@@@@.....@@@@@@@....
    .......@@@@@@...@@@@@.......@@@@@@....
    .......@@@@@@@@@@@@.........@@@@@@....
    .........@@@................@@@@@@....
    ............................@@@.......
    ......................................
    ......................................
    ......................................
    ............................@@........
    ..........................@@@@@.......
    .............@@@@@@@@@@@@@@@@@@@......
    ..........@@@@@@@@@@@@@@@@@@@@@@......
    ..........@@@@@@@..........@@@@.......
    ..........@@@@@@@...........@@........
    ..........@@@@@@......................
    ............@.........................

    shift-up: -7



# [፵] ETHIOPIC NUMBER FORTY
u+1375:
0xbc:
    ........................@@@@@.........
    ........................@@@@@@........
    .........@@@@@@@@@@@@@@@@@@@@@........
    .........@@@@@@@@@@@@@@@@@@@@@........
    ........@@@@@@............@@@.........
    ........@@@@..........................
    .........@@...........................
    ......................................
    .................@@@@@@.....@@@@@.....
    .........@@.....@@@@@@@....@@@@@@.....
    .......@@@@@....@@@@@@@....@@@@@@.....
    ......@@@@@@...@@@@@@@@....@@@@@@.....
    .....@@@@@@@...@@@@@@@@...@@@@@@@.....
    .....@@@@@@@...@@@@@@@@...@@@@@@@.....
    ....@@@@@@@....@@@@@@@@@@@@@@@@@@.....
    ....@@@@@@@....@@@@@@@@@@@@@@@@@@.....
    .....@@@@@@...@@@@@@@@...@@@@@@@......
    ....@@@@@@@...@@@@@@@@...@@@@@@@......
    ....@@@@@@@...@@@@@@@....@@@@@@@......
    .....@@@@@@...@@@@@@.....@@@@@@@......
    ......@@@@@@@@@@@........@@@@@@.......
    ......@@@@@@@@@@.........@@@@@@.......
    ........@@@..............@@@@@@.......
    .........................@@@@@@.......
    ........................@@@@@@........
    .......................@@@@@@@........
    .......................@@@@@@@........
    .......................@@@@@@@........
    .......................@@@@@@@........
    .......................@@@@@@@........
    .......................@@@@@@@........
    ........................@@@@@.........
    .........................@@@..........
    ......................................
    ......................................
    ......................@@@@@@..........
    .........@@..........@@@@@@@..........
    .........@@@@@@@@@@@@@@@@@@@..........
    .......@@@@@@@@@@@@@@@@@@@@@..........
    ......@@@@@@@..........@@@@@..........
    ......@@@@@@..........................

    shift-up: -5



# [፶] ETHIOPIC NUMBER FIFTY
u+1376:
0xbd:
    .........................@............
    .....................@@@@@@@..........
    .............@@......@@@@@@@..........
    ..........@@@@@@@@@@@@@@@@@@..........
    .........@@@@@@@@@@@@@@@@@@@..........
    .........@@@@@@.......................
    ..........@@@.........................
    ...........@...........@@@@@..........
    ......................@@@@@@@.........
    ...........@@@@@@.....@@@@@@@.........
    ..........@@@@@@@.....@@@@@@@.........
    ..........@@@@@@@@....@@@@@@..........
    .........@@@@@@@@.....@@@@@@..........
    .........@@@@@@@@.....@@@@@@..........
    .........@@@@@@@@....@@@@@@@..........
    .........@@@@@@@@@...@@@@@@@..........
    ..........@@@@@@@@...@@@@@@@..........
    ..........@@@@@@@@@..@@@@@@@..........
    ...........@@@@@@@@..@@@@@@@..........
    ...........@@@@@@@@@@@@@@@@@..........
    .............@@@@...@@@@@@@@..........
    ....................@@@@@@@@..........
    ....................@@@@@@@@..........
    ....................@@@@@@@...........
    ...................@@@@@@@@...........
    ...................@@@@@@@@...........
    ...................@@@@@@@@...........
    ...................@@@@@@@@...........
    ...................@@@@@@@@...........
    ...................@@@@@@@@...........
    ....................@@@@@@@...........
    ....................@@@@@@@...........
    .....................@@@@@............
    ......................@...............
    ......................................
    ......................................
    .......................@@@@@..........
    ..............@@@@@@@@@@@@@@@.........
    ............@@@@@@@@@@@@@@@@@.........
    ..........@@@@@@@.......@@@@..........
    .........@@@@@@@@.....................
    .........@@@@@@@......................
    ..........@@@@@.......................

    shift-up: -6



# [፷] ETHIOPIC NUMBER SIXTY
u+1377:
0xbe:
    ............................@.........
    ..........................@@@@@.......
    ............@@@@@@@@@@@@@@@@@@@.......
    ..........@@@@@@@@@@@@@@@@@@@@@@......
    ..........@@@@@.......................
    ...........@@@........................
    ......................................
    ............................@@@@@@@@..
    .............@@@@@@@@@@@@@@@@@@@@@@@..
    ........@@@@@....@@@@@@@@...@@@@@@@@..
    ........@@@@@....@@@@@@@@....@@@@@@@..
    .......@@@@@@...@@@@@@@@@.....@@@@@@..
    ......@@@@@@@...@@@@@@@@........@@@...
    ......@@@@@@....@@@@@@@@..............
    .......@@@@......@@@@@@@..............
    ........@.........@@@@@@@.............
    ..................@@@@@@@@............
    ..................@@@@@@@@............
    ..................@@@@@@@@............
    ..................@@@@@@@.............
    .................@@@@@@@@.............
    .................@@@@@@@@.............
    .................@@@@@@@@.............
    ................@@@@@@@@..............
    ................@@@@@@@....@@@@@......
    ...............@@@@@@@@@@@@@@@@@@.....
    .........@@@@@@@@@@@@@@@@@@@@@@@@.....
    ......@@@@@@@@.............@@@@@@.....
    ......@@@@@@@...............@@@@@.....
    ......@@@@@@................@@@@@.....
    ......@@@@@@..........................
    .......@@@............................
    ......................................
    ......................................
    ..........................@@@@........
    .........................@@@@@@.......
    ..........@@@@@@@@@@@@@@@@@@@@@.......
    .........@@@@@@@@@@@@@@@@@@@@@@.......
    .........@@@@@@@..........@@@@........
    ..........@@@@@.......................
    ...........@@.........................

    shift-up: -6



# [፸] ETHIOPIC NUMBER SEVENTY
u+1378:
0xbf:
    ........................@@@@..........
    ...........@@@@@@@@@@@@@@@@@@.........
    ..........@@@@@@@@@@@@@@@@@@@@........
    ..........@@@@@@@.......@@@@@@........
    ...........@@@........................
    ......................................
    ......................................
    .......................@@@@@@@@.......
    ................@@@@@@@@@@@@@@@@@@....
    ............@@@@@..@@@@@@@..@@@@@@@...
    ...........@@@@@...@@@@@@@..@@@@@@@...
    ..........@@@@@....@@@@@@@..@@@@@@@...
    .........@@@@@....@@@@@@@@..@@@@@@@...
    ........@@@@@@....@@@@@@@@..@@@@@@@...
    .......@@@@@@.....@@@@@@@@..@@@@@@....
    ......@@@@@@@.....@@@@@@@@..@@@@@.....
    ......@@@@@@.......@@@@@@@@@@@@@......
    .....@@@@@@@........@@@@@@............
    .....@@@@@@@..........@@..............
    .....@@@@@@...........................
    .....@@@@@@...........................
    ....@@@@@@@...........................
    ....@@@@@@@...........................
    ...@@@@@@@............................
    ...@@@@@@@..............@@............
    ...@@@@@@@@...........@@@@............
    ...@@@@@@@@........@@@@@@@@...........
    ....@@@@@@@.......@@@@@@@@@...........
    .....@@@@@@@.....@@@@@@@@@@...........
    ......@@@@@@@@@@@@@@@@@@@@@...........
    .......@@@@@@@@@@@@@@@@@@@@...........
    ......................@@@.............
    ......................................
    ......................................
    ......................@...............
    ........@@@@@@@@@@@@@@@@@@@...........
    ........@@@@@@@@@@@@@@@@@@@...........
    .......@@@@@@........@@@@@@...........
    .......@@@@@...........@@@@...........
    .........@............................

    shift-up: -5



# [፹] ETHIOPIC NUMBER EIGHTY
u+1379:
0xc0:
    ............................@@@.............
    ............@@@@@@@@@@@@@@@@@@@@............
    ...........@@@@@@@@@@@@@@@@@@@@@@...........
    ..........@@@@@@@...........@@@@@...........
    ...........@@@@@.............@@.............
    ............................................
    ............................................
    ............................................
    ...@@@@@@@@@@@@@@@@@@@@@@@@@@@@@@@@@@@@@@...
    ...@@@@@@@@@@@@@@@@@@@@@@@@@@@@@@@@@@@@@@@..
    ..@@@@@@@....@@@@@@@...@@@@@@....@@@@@@@@@..
    .@@@@@@@@....@@@@@@@...@@@@@@.....@@@@@@@@..
    .@@@@@@@@....@@@@@@@...@@@@@@......@@@@@@@..
    .@@@@@@@.....@@@@@@....@@@@@@........@@@@@..
    .@@@@@@.....@@@@@@@....@@@@@................
    ..@@@@......@@@@@@@...@@@@@@................
    ............@@@@@@@...@@@@@@................
    ............@@@@@@@...@@@@@@................
    ............@@@@@@....@@@@@@................
    ............@@@@@@....@@@@@@................
    ............@@@@@@...@@@@@@@................
    ............@@@@@@...@@@@@@@................
    ...........@@@@@@@...@@@@@@@................
    ...........@@@@@@@...@@@@@@@................
    ...........@@@@@.....@@@@@@@................
    ..........@@@@@@....@@@@@@@@................
    ..........@@@@@@....@@@@@@@.................
    ..........@@@@@@@...@@@@@@@.................
    .........@@@@@@@@....@@@@@@.................
    ..........@@@@@@@....@@@@@@@................
    ..........@@@@@@@....@@@@@@.................
    ...........@@...............................
    ............................................
    ............................................
    ............................................
    ...........@............@@@@@...............
    .........@@@@@@@@@@@@@@@@@@@@@..............
    ........@@@@@@@@@@@@@@@@@@@@@@..............
    ........@@@@@@............@@@@..............
    .........@@@@@..............@@..............

    shift-up: -4



# [፺] ETHIOPIC NUMBER NINETY
u+137a:
0xc1:
    ......................@@@.............
    .............@@@@@@@@@@@@@@...........
    .........@@@@@@@@@@@@@@@@@@...........
    .........@@@@@@.......@@@@@...........
    .........@@@@@@........@@@............
    ......................................
    ......................................
    ..................@@@@@@@.............
    .............@.@@@@@@@@@@@............
    .........@@@@@@@@@@@@@@@@@............
    ........@@@@@@@...@@@@@@@@............
    .......@@@@@@@@...@@@@@@@@............
    ........@@@@@@....@@@@@@@@............
    ........@@@@@.....@@@@@@@.............
    ........@@@@......@@@@@@@.............
    .........@@.......@@@@@@@.............
    ..................@@@@@@@.............
    ....................@@@@@@@...........
    ....................@@@@@@@...........
    ....................@@@@@@@...........
    ....................@@@@@@@...........
    ...................@@@@@@@............
    ...................@@@@@@@............
    ...................@@@@@@@............
    ..................@@@@@@@@............
    ..................@@@@@@@.............
    .................@@@@@@@@.............
    .................@@@@@@@@.............
    ................@@@@@@@@@.............
    ................@@@@@@@@@.............
    ................@@@@@@@@@.............
    .................@@@@@@@@.............
    ..................@@@.................
    ......................................
    ......................................
    ......................................
    ......................@@@@@@..........
    ...........@@@@@@@@@@@@@@@@@..........
    ..........@@@@@@@@@@@@@@@@@@..........
    ..........@@@@@@.......@@@@@..........
    .........@@@@@@.......................
    .........@@@@@........................
    ...........@..........................

    shift-up: -7



# [፻] ETHIOPIC NUMBER HUNDRED
u+137b:
0xc2:
    ......................@@@@@@..........
    ..........@@@@@@@@@@@@@@@@@@..........
    .........@@@@@@@@@@@@@@@@@@@..........
    .........@@@@@.........@@@@@..........
    ..........@...........................
    ......................................
    ...............@@@@@@@@@..............
    .............@@@@@@@@@@@@.............
    ............@@@@...@@@@@@@............
    ..........@@@@@@...@@@@@@@@...........
    ..........@@@@@....@@@@@@@@...........
    .........@@@@@@....@@@@@@@@...........
    .........@@@@@@....@@@@@@@@...........
    .........@@@@@@@...@@@@@@@............
    .........@@@@@@@...@@@@@@.............
    .........@@@@@@@...@@@@@..............
    .........@@@@@@@...@@@@...............
    .........@@@@@@@...@@@................
    .........@@@@@@@@.....................
    ..........@@@@@@@.....................
    ..........@@@@@@@@....................
    ..........@@@@@@@@....................
    ..........@@@@@@@@....................
    ..........@@@@@@@@....................
    ...........@@@@@@@....................
    ...........@@@@@@@....................
    ...........@@@@@@@....................
    ...........@@@@@@@....................
    ...........@@@@@@@@...................
    ...........@@@@@@@@...................
    ............@@@@@@@...................
    ............@@@@.@@...................
    ......................................
    ......................................
    ......................................
    .....................@@@@.............
    ........@@@@@@@@@@@@@@@@@@............
    .......@@@@@@@@@@@@@@@@@@@............
    ......@@@@@@........@@@@@@............
    .......@@@@@.........@@@@@............
    ........@@............................

    shift-up: -6



# [፼] ETHIOPIC NUMBER TEN THOUSAND
u+137c:
0xc3:
    ............@@@@@@@@@@@@@@@@@@........
    ..........@@@@@@@@@@@@@@@@@@@@........
    .........@@@@@@..........@@@@@@.......
    .........@@@@@@..........@@@@@@.......
    ..........@...........................
    ......................................
    ................................@@....
    .........@@@@@@@@@........@@@@@@@@@@..
    .........@@@@@@@@@@.....@@@@@@@@@@@@..
    ........@@@...@@@@@....@@@@@...@@@@@..
    .......@@@@...@@@@@@...@@@@@...@@@@@..
    ......@@@@....@@@@@@..@@@@@@..@@@@@@..
    .....@@@@@....@@@@@...@@@@@@..@@@@@@..
    .....@@@@@....@@@@@..@@@@@@@..@@@@@@..
    ....@@@@@@....@@@@@..@@@@@@@..@@@@@...
    ....@@@@@@@...@@@@...@@@@@@@..@@@@....
    ....@@@@@@@...@@@....@@@@@@@@@@@@.....
    ....@@@@@@@@@@@@@.....@@@@@@@@@@......
    ....@@@@@@@@@@........@@@@@@..........
    .....@@@@@@@..........@@@@@@@.........
    .....@@@@@@@...........@@@@@@.........
    .....@@@@@@@...........@@@@@@.........
    ......@@@@@@.@@@@@@@@@@@@@@@@.........
    ......@@@@@@...........@@@@@@.........
    ......@@@@@@...........@@@@@@.........
    ......@@@@@@...........@@@@@@.........
    ......@@@@@@...........@@@@@@.........
    ......@@@@@@...........@@@@@@@........
    ......@@@@@@...........@@@@@@@........
    .......@@@@@...........@@@@@@.........
    .......@@@@@............@@@@..........
    ........@@@@..........................
    ........@.............................
    ......................................
    ......................................
    .......................@@@@@..........
    ..........@............@@@@@..........
    .........@@@...........@@@@@..........
    .......@@@@@@@@@@@@@@@@@@@@@..........
    .......@@@@@@@@@@@@@@@@@@@@@..........
    ........@@@...........................

    shift-up: -6



# [ሖ] ETHIOPIC SYLLABLE HHO
u+1216:
0xc4:
    ................@@@@@...............
    ...............@@@@@@@..............
    ...............@@@@@@@..............
    ...............@@@@@@@..............
    ...............@@@@@@@..............
    ...............@@@@@@@..............
    ...............@@@@@@@..............
    ...............@@@@@@@..............
    ...............@@@@@@@..............
    ...............@@@@@@@..............
    ...............@@@@@@@..............
    ...............@@@@@@@..............
    ...............@@@@@@@@@@@@@@.......
    ............@@@@@@@@@@@@@@@@@@@@....
    .........@@@@@@@@@@@@@@@@@@@@@@@....
    .......@@@@@@@@@@@@@@@@@@@@@@@@@@...
    ......@@@@@@@@@@@@@@@@...@@@@@@@@...
    .....@@@@@@@..@@@@@@@@....@@@@@@@...
    ....@@@@@@@....@@@@@@@....@@@@@@@...
    ...@@@@@@@.....@@@@@@@.....@@@@@@...
    ..@@@@@@@......@@@@@@@.....@@@@@@...
    .@@@@@@@@......@@@@@@@.....@@@@@@...
    .@@@@@@@@......@@@@@@@.....@@@@@@...
    .@@@@@@@@......@@@@@@@@....@@@@@@@..
    .@@@@@@@@......@@@@@@@@....@@@@@@@..
    .@@@@@@@@...........................
    .@@@@@@@@...........................
    .@@@@@@@@...........................
    .@@@@@@@@...........................
    .@@@@@@@@...........................
    .@@@@@@@@...........................
    .@@@@@@@@...........................
    .@@@@@@@@...........................
    ..@@@@@@@...........................

    shift-up: -1



# [ሎ] ETHIOPIC SYLLABLE LO
u+120e:
0xc5:
    ..........@@@@............................
    .........@@@@@@...........................
    ........@@@@@@@@@.........................
    ........@@@@@@@@@.........................
    .........@@@@@@@@@........................
    .........@@@@@@@@@@.......................
    .........@@@@@@@@@@@......................
    .......@@@@@@@@@@@@@............@@@@@@....
    .......@@@@@@@@@@@@@@.........@@@@@@@@@@..
    ......@@@@@@@@@@@@@@@.....@@@@@@@@@@@@@@..
    .....@@@@@@@@@@@@@@@@@@@@@@@@@@@@@@@@@@@@.
    .....@@@@@@@@@@@@@@@@@@@@@@@@@@@@@@@@@@@@.
    ....@@@@@@@@.@@@@@@@@@@@@@@@@@@...@@@@@@@.
    ....@@@@@@@@..@@@@@@@@@@@@@@@@....@@@@@@@.
    ....@@@@@@....@@@@@@@@@..@@@@@....@@@@@@@.
    ...@@@@@@@.....@@@@@@@@..@@@@@@..@@@@@@@@.
    ...@@@@@@@.....@@@@@@@@...@@@@@@@@@@@@@@..
    ...@@@@@@@.....@@@@@@@@...@@@@@@@@@@@@@...
    ...@@@@@@.......@@@@@@@....@@@@@@@@@@.....
    ..@@@@@@@.......@@@@@@@.....@@@@@@@.......
    ..@@@@@@@.......@@@@@@@...................
    ..@@@@@@@.......@@@@@@@...................
    .@@@@@@@@.......@@@@@@@@..................
    .@@@@@@@@.......@@@@@@@@..................
    .@@@@@@@@.......@@@@@@@@..................
    ..@@@@@@@.......@@@@@@@@..................
    ..@@@@@@@.......@@@@@@@@..................
    ..@@@@@@@.......@@@@@@@@..................
    ..@@@@@@@@......@@@@@@@@@.................
    ..@@@@@@@@......@@@@@@@@@@................
    ..@@@@@@@@@......@@@@@@@@@................
    ...@@@@@@@@......@@@@@@@@@................
    ...@@@@@@@........@@@@@@@.................


# [ዴ] ETHIOPIC SYLLABLE DEE
u+12f4:
0xc6:
    ................@@@@@@@@..................
    ............@@@@@@@@@@@@@@................
    .........@@@@@@@@@@@@@@@@@@@..............
    .........@@@@@@@...@@@@@@@@@..............
    ........@@@@@@@@...@@@@@@@@@..............
    .......@@@@@@@@....@@@@@@@@@..............
    .......@@@@@@@@....@@@@@@@@@..............
    .......@@@@@@@....@@@@@@@@@...............
    .......@@@@@@@....@@@@@@@@@...............
    .......@@@@@@@...@@@@@@@@@@...............
    .......@@@@@@@@.@@@@@@@@@@................
    .......@@@@@@@@@@@@@@@@@@.................
    .......@@@@@@@@@@@@@@@@@..................
    .......@@@@@@@@@@@@@@@@...................
    .......@@@@@@@@@@@@@......................
    ........@@@@@@@@..........................
    ........@@@@@@@@..........................
    ........@@@@@@@@..........................
    ........@@@@@@@@..........................
    .........@@@@@@@@.........................
    .........@@@@@@@@.........................
    .........@@@@@@@@@@@@@@@@@@@..............
    .......@@@@@@@@@@@@@@@@@@@@@..............
    ....@@@@@@@@@@@@@@@@@@@@@@@@@.....@@@@@...
    ....@@@@@@@@@@@@@@@@@@@@@@@@@.@@@@@@@@@@..
    ...@@@@@@@@..........@@@@@@@@@@@@@@@@@@@@.
    ...@@@@@@@@...........@@@@@@@@@@@@@@@@@@@.
    ..@@@@@@@@............@@@@@@@@@@@@@@@@@@@.
    ..@@@@@@@@............@@@@@@@@@..@@@@@@@@.
    .@@@@@@@@..............@@@@@@@@..@@@@@@@@.
    .@@@@@@@@..............@@@@@@@@..@@@@@@@..
    .@@@@@@@@..............@@@@@@@@@@@@@@@@@..
    .@@@@@@@@..............@@@@@@@@@@@@@@@@...


# [ዶ] ETHIOPIC SYLLABLE DO
u+12f6:
0xc7:
    ................@@@@@@@@........
    ............@@@@@@@@@@@@@@......
    .........@@@@@@@@@@@@@@@@@@@....
    .........@@@@@@@...@@@@@@@@@....
    ........@@@@@@@@...@@@@@@@@@....
    .......@@@@@@@@....@@@@@@@@@....
    .......@@@@@@@@....@@@@@@@@@....
    .......@@@@@@@....@@@@@@@@@.....
    .......@@@@@@@....@@@@@@@@@.....
    .......@@@@@@@...@@@@@@@@@@.....
    .......@@@@@@@@.@@@@@@@@@@......
    .......@@@@@@@@@@@@@@@@@@.......
    .......@@@@@@@@@@@@@@@@@........
    .......@@@@@@@@@@@@@@@@.........
    .......@@@@@@@@@@@@@............
    ........@@@@@@@@................
    ........@@@@@@@.................
    ........@@@@@@@@................
    ........@@@@@@@@................
    .........@@@@@@@@...............
    .........@@@@@@@@...............
    .........@@@@@@@@@@@@@@@@@@@....
    .......@@@@@@@@@@@@@@@@@@@@@....
    ....@@@@@@@@@@@@@@@@@@@@@@@@@...
    ....@@@@@@@@@.@@@@@@@@@@@@@@@@..
    ...@@@@@@@@..........@@@@@@@@@..
    ...@@@@@@@@...........@@@@@@@@..
    ..@@@@@@@@............@@@@@@@@..
    ..@@@@@@@@............@@@@@@@@..
    ..@@@@@@@@......................
    ..@@@@@@@@......................
    ..@@@@@@@@......................
    ..@@@@@@@@......................
    ..@@@@@@@@......................

    shift-up: -1



# [ፎ] ETHIOPIC SYLLABLE FO
u+134e:
0xc8:
    ...................@@@@@@@@@@@.....
    ........@@@@@@@@@@@@@@@@@@@@@@@@...
    ........@@@@@@@@@@@@@@@@@@@@@@@@@..
    ......@@@@@@@@@@@@@@@@@@...@@@@@@..
    .....@@@@@@@...@@@@@@@@.....@@@@@..
    .....@@@@@@....@@@@@@@@.....@@@@@..
    ....@@@@@@@....@@@@@@@@@....@@@@...
    ....@@@@@@@.....@@@@@@@@@@@@@@@....
    ...@@@@@@@.......@@@@@@@@@@@@@.....
    ...@@@@@@@.........@@@@@@@@@@......
    ...@@@@@@@.........................
    ...@@@@@@@.........................
    ...@@@@@@..........................
    ..@@@@@@@..........................
    ..@@@@@@@..........................
    ..@@@@@@@..........................
    ..@@@@@@@@@@@@@@@@.................
    ..@@@@@@@@@@@@@@@@@................
    ..@@@@@@@@@@@@@@@@@@...............
    .@@@@@@@@@@@@@@@@@@@...............
    .@@@@@@@@..@@@@@@@@@...............
    .@@@@@@@@..@@@@@@@@@........@@@....
    .@@@@@@@@..@@@@@@@@@......@@@@@@...
    .@@@@@@@@..@@@@@@@@@@@..@@@@@@@@@..
    .@@@@@@@@..@@@@@@@@@@@@@@@@@@@@@@..
    .@@@@@@@@@@@@@@@@@@@@@@@@@@@@@@@@..
    .@@@@@@@@@@@@@@@@@@@@@@@@@@@@@@@@..
    ..@@@@@@@@@@@@@@@......@@@@@@@@@@..
    ...@@@@@@@@@@............@@@@@@@@..
    ...@@@@@@@................@@@@@@@..
    ...........................@@@@@@..

    shift-up: 1



# [ዕ] ETHIOPIC SYLLABLE PHARYNGEAL E
u+12d5:
0xc9:
    ...........@@@@@........
    ..........@@@@@@@.......
    ..........@@@@@@@.......
    ..........@@@@@@@.......
    ..........@@@@@@@.......
    ..........@@@@@@@.......
    ..........@@@@@@@.......
    ..........@@@@@@@.......
    .........@@@@@@@@.......
    .........@@@@@@@@@......
    .........@@@@@@@@@@@....
    ........@@@@@@@@@@@@....
    ......@@@@@@.@@@@@@@@...
    ......@@@@@...@@@@@@@@..
    .....@@@@@.....@@@@@@@..
    ....@@@@@@.....@@@@@@@..
    ....@@@@@@.....@@@@@@@..
    ...@@@@@@......@@@@@@@..
    ...@@@@@@......@@@@@@@..
    ...@@@@@@......@@@@@@@..
    ..@@@@@@@......@@@@@@@..
    ..@@@@@@@......@@@@@@...
    ..@@@@@@@......@@@@@@...
    ..@@@@@@@.....@@@@@@@...
    ..@@@@@@@.....@@@@@@@...
    ..@@@@@@@....@@@@@@@....
    ..@@@@@@@....@@@@@@@....
    ..@@@@@@@...@@@@@@@.....
    ..@@@@@@@..@@@@@@@......
    ..@@@@@@@@@@@@@@@.......
    ...@@@@@@@@@@@@@........
    ...@@@@@@@@@@@..........
    ....@@@@@@@@............


# [ዖ] ETHIOPIC SYLLABLE PHARYNGEAL O
u+12d6:
0xca:
    ...............@@@@@@...
    ...........@@@@@@@@@@@..
    .........@@@@@@@@@@@@@@.
    ........@@@@@@@@@@@@@@@.
    .......@@@@@@@@@@@@@@@@.
    .......@@@@@@...@@@@@@@.
    ......@@@@@@....@@@@@@@.
    ......@@@@@@.....@@@@@@.
    ......@@@@@@.....@@@@@@.
    ......@@@@@@....@@@@@@@.
    ......@@@@@@....@@@@@@..
    ......@@@@@@....@@@@@@..
    ......@@@@@@...@@@@@@@..
    ......@@@@@@@@@@@@@@@...
    .......@@@@@@@@@@@@@@...
    .......@@@@@@@@@@@@.....
    ........@@@@@@@@@@......
    ........@@@@@@@@........
    .........@@@@...........
    ........@@@@............
    .......@@@@.............
    .....@@@@@..............
    ....@@@@@...............
    ....@@@@@...............
    ...@@@@@@...............
    ...@@@@@@...............
    ..@@@@@@@...............
    ..@@@@@@@...............
    ..@@@@@@@...............
    .@@@@@@@@...............
    .@@@@@@@@...............
    .@@@@@@@@...............
    .@@@@@@@@...............


# [ሬ] ETHIOPIC SYLLABLE REE
u+122c:
0xcb:
    ..................@@@@@@...........
    .................@@@@@@@...........
    ...............@@@@@@@@@@..........
    ...............@@@@@@@@@@..........
    ...............@@@@@@@@@@..........
    ...............@@@@@@@@@...........
    ..............@@@@@@@@@............
    .............@@@@@@@@@@............
    .............@@@@@@@@@.............
    ............@@@@@@@@@..............
    ...........@@@@@@@@@@..............
    ..........@@@@@@@@@@...............
    .........@@@@@@@@@@................
    .........@@@@@@@@..................
    .......@@@@@@@@@...................
    ......@@@@@@@@@....................
    ......@@@@@@@@.....................
    .....@@@@@@@@......................
    ....@@@@@@@@...........@@@@@@@@....
    ...@@@@@@@@.....@@@@@@@@@@@@@@@@...
    ...@@@@@@@@.....@@@@@@@@@@@@@@@@@..
    .@@@@@@@@@....@@@@@@@@@..@@@@@@@@@.
    .@@@@@@@@@...@@@@@@@@@...@@@@@@@@@.
    .@@@@@@@@@...@@@@@@@@@....@@@@@@@@.
    .@@@@@@@@@...@@@@@@@@@...@@@@@@@@..
    .@@@@@@@@@...@@@@@@@@@@.@@@@@@@@...
    .@@@@@@@@@...@@@@@@@@@@@@@@@@@@@...
    ..@@@@@@@@@@@@@@@@@@@@@@@@@@@@@....
    ...@@@@@@@@@@@@@@@@@@@@@@@@@@......
    ....@@@@@@@@@@@@@@@@@@@@@@.........
    .....@@@@@@@@@@...@................
    ......@@@@@@.......................

    shift-up: 1



# [ኀ] ETHIOPIC SYLLABLE XA
u+1280:
0xcc:
    ................@@@@@@@............
    ................@@@@@@@............
    ...............@@@@@@@@@...........
    ...............@@@@@@@@@...........
    ...............@@@@@@@@@...........
    ...............@@@@@@@@@...........
    .....@@@@@@@@@@@@@@@@@@@...........
    ...@@@@@@@@@@@@@@@@@@@@@...........
    ..@@@@@@@@@@@@@@@@@@@@@@...........
    ..@@@@@@@@@@@@@@@@@@@@@@@@@@.......
    ..@@@@@@@@@@..@@@@@@@@@@@@@@.......
    .@@@@@@@@@.....@@@@@@@@@@@@@@......
    .@@@@@@@@............@@@@@@@@......
    .@@@@@@@@............@@@@@@@@......
    .@@@@@@@@............@@@@@@@@......
    .....................@@@@@@@.......
    .....................@@@@@@@.......
    .....................@@@@@@@.......
    .....................@@@@@@@.......
    .....................@@@@@@@.......
    ....................@@@@@@@@.......
    ....................@@@@@@@@.......
    ....................@@@@@@@@.......
    ....................@@@@@@@@.......
    ....................@@@@@@@@.......
    ....................@@@@@@@@.......
    ....................@@@@@@@@.......
    ....................@@@@@@@@.......
    ....................@@@@@@@@.......
    ....................@@@@@@@@.......
    ....................@@@@@@@@.......


# [ኾ] ETHIOPIC SYLLABLE KXO
u+12be:
0xcd:
    ..........................@@@@@.......
    ........................@@@@@@@@......
    .......................@@@@@@@@@......
    ......................@@@@@@@@@@......
    ..@@@@@@@....@@@@@@@@@@@@@@@@@@@......
    .@@@@@@@@@@.@@@@@@@@@@@@@@@@@@@@......
    .@@@@@@@@@@@@@@@@@@@@@@@@@@@@@@@......
    ..@@@@@@@@@@@@@@@@@@@@..@@@@@@@@......
    ..@@@@@@@@@@@@@@@@@@@@................
    ..@@@@@@@@..@@@@@@@@@.................
    .@@@@@@@@...@@@@@@@@@.................
    .@@@@@@@@...@@@@@@@@@.................
    .@@@@@@.....@@@@@@@@@.................
    ............@@@@@@@@@@@@@@@@@@@.......
    ............@@@@@@@@@@@@@@@@@@@@@.....
    ............@@@@@@@@@@@@@@@@@@@@@@....
    .............@@@@@@@@@@@@@@@@@@@@@@...
    ................@@@@@@@@....@@@@@@@...
    ...............@@@@@@@@.....@@@@@@@@..
    ..............@@@@@@@@......@@@@@@@@..
    ..............@@@@@@@@......@@@@@@@@..
    .............@@@@@@@@@......@@@@@@@@..
    .............@@@@@@@@@......@@@@@@@@..
    .............@@@@@@@@@......@@@@@@@@..
    .............@@@@@@@@.......@@@@@@@@..
    ............@@@@@@@@@.......@@@@@@@...
    ............@@@@@@@@@.......@@@@@@@...
    ............@@@@@@@@@.......@@@@@@@...
    ............@@@@@@@@@.......@@@@@@@...
    ............@@@@@@@@@.......@@@@@@@...
    .............@@@@@@@@........@@@@@@@..
    .............@@@@@@@@.................
    .............@@@@@@@@.................
    .............@@@@@@@@.................
    .............@@@@@@@@.................
    .............@@@@@@@@.................
    .............@@@@@@@@.................
    .............@@@@@@@@.................
    .............@@@@@@@@.................
    .............@@@@@@@@.................
    ............@@@@@@@@@.................

    shift-up: -3



# [ጫ] ETHIOPIC SYLLABLE CHAA
u+132b:
0xce:
    ..............@@@@@@@@@@@@@@@@@@@@@@@@...........
    ...........@@@@@@@@@@@@@@@@@@@@@@@@@@@@@.........
    .........@@@@@@@@@@@@@@@@@@@@@@@@@@@@@@@@........
    ........@@@@@@@@@@@@@@@@@@@@@@@@@@@@@@@@@........
    .......@@@@@@@@@...@@@@@@@@@.......@@@@@@@.......
    ......@@@@@@@.......@@@@@@@.........@@@@@@.......
    ....@@@@@@@@........@@@@@@@..........@@@@@@......
    ...@@@@@@@@@@@.....@@@@@@@@@@@@@@....@@@@@@......
    ...@@@@@@@@@@@@....@@@@@@@@@@@@@@....@@@@@@......
    ..@@@@@@@@@@@@@@@..@@@@@@@@@@@@@@@..@@@@@@@......
    .@@@@@@@@@@@@@@@@..@@@@@@@@@@@@@@@..@@@@@@@......
    .@@@@@@@.@@@@@@@@..@@@@@@@..@@@@@@..@@@@@@@......
    .@@@@@@@.@@@@@@@@..@@@@@@@..@@@@@@..@@@@@@@......
    .@@@@@@@.@@@@@@@@..@@@@@@@..@@@@@@.@@@@@@@@......
    .@@@@@@@@@@@@@@@@..@@@@@@@@@@@@@@..@@@@@@@@......
    .@@@@@@@@@@@@@@@...@@@@@@@@@@@@@@..@@@@@@@.......
    .@@@@@@@@@@@@@@....@@@@@@@@@@@@@...@@@@@@@.......
    .@@@@@@@@@@@@@......@@@@@@@@@@.....@@@@@@@.......
    ..@@@@@@..........................@@@@@@@........
    ..................................@@@@@@@..@@....
    .................................@@@@@@@@@@@@@@..
    ................................@@@@@@@@@@@@@@@..
    ................................@@@@@@@@@@@@@@@@.
    ................................@@@@@@@@@@@@@@@@.
    ...............................@@@@@@@@..@@@@@@@.
    ...............................@@@@@@@@...@@@@@@.
    ..............................@@@@@@@@@..@@@@@@..
    ..............................@@@@@@@@@@@@@@@@@..
    ..............................@@@@@@@@@@@@@@@@@..
    ...............................@@@@@@@@@@@@@@....
    ...............................@@@@@@@@@@........


# [ሦ] ETHIOPIC SYLLABLE SZO
u+1226:
0xcf:
    .............................@@@@..
    ...........................@@@@@@@.
    ....@@@@@.......@@@@@@@....@@@@@@@.
    ...@@@@@@@.....@@@@@@@@@...@@@@@@@.
    ..@@@@@@@@@....@@@@@@@@@...@@@@@@@.
    ..@@@@@@@@@...@@@@@@@@@@...@@@@@@@.
    ..@@@@@@@@....@@@@@@@@@@...@@@@@@@.
    ..@@@@@@@@....@@@@@@@@@...@@@@@@@..
    ..@@@@@@@@...@@@@@@@@@@...@@@@@@@..
    ..@@@@@@@....@@@@@@@@@@...@@@@@@@..
    .@@@@@@@@...@@@@@@@@@@@..@@@@@@@...
    .@@@@@@@@...@@@@@@@@@@@@@@@@@@@....
    .@@@@@@@@..@@@@@@@@@@@@@@@@@@@.....
    .@@@@@@@@@@@@@@@@@@@@@@@@@@@@......
    .@@@@@@@@@@@@@@@@@@@@@@@@@@........
    ..@@@@@@@@@@@@@@@@.................
    ...@@@@@@@@@@@@@@@.................
    .........@@@@@@@@..................
    ........@@@@@@@....................
    .......@@@@@@@@....................
    ......@@@@@@@@.....................
    ......@@@@@@@......................
    .....@@@@@@@@......................
    .....@@@@@@@@......................
    ....@@@@@@@@.......................
    ....@@@@@@@........................
    ...@@@@@@@@........................
    ...@@@@@@@@........................
    ...@@@@@@@@........................
    ...@@@@@@@.........................


# [ዮ] ETHIOPIC SYLLABLE YO
u+12ee:
0xd0:
    .........@@@@@@@@.............
    ........@@@@@@@@@@............
    ....@@@@@@@@@@@@@@@@..........
    ...@@@@@@@..@@@@@@@@@.........
    ...@@@@@@....@@@@@@@@.........
    ..@@@@@@@....@@@@@@@@.........
    ..@@@@@@@....@@@@@@@@.........
    ..@@@@@@@...@@@@@@@@..........
    .@@@@@@@@...@@@@@@@@..........
    .@@@@@@@@..@@@@@@@@@@@@@@@@@..
    .@@@@@@@@..@@@@@@@@@@@@@@@@@@.
    .@@@@@@@@..@@@@@@@@@@@@@@@@@@.
    .@@@@@@@@.@@@@@@@@@@@@@@@@@@@.
    ..@@@@@@@@@@@@@@@@..@@@@@@@@@.
    ..@@@@@@@@@@@@@@.....@@@@@@@@.
    ..@@@@@@@@@@@@@.......@@@@@@@.
    ..@@@@@@@@@@@..........@@@@@@.
    ...@@@@@@@@..............@@@..
    ...@@@@@@@@...................
    ....@@@@@@@...................
    ....@@@@@@@...................
    ....@@@@@@@...................
    ....@@@@@@@...................
    ....@@@@@@@...................
    ....@@@@@@@...................
    ....@@@@@@@...................
    ....@@@@@@@...................
    ....@@@@@@@...................
    ....@@@@@@@...................
    ....@@@@@@@...................
    ....@@@@@@@...................
    ....@@@@@@@...................
    ....@@@@@@@...................


# [ጦ] ETHIOPIC SYLLABLE THO
u+1326:
0xd1:
    .........@@@@@@@@@@@@@@@@@@@@@@......
    ........@@@@@@@@@@@@@@@@@@@@@@@@.....
    ......@@@@@@@@@@@@@@@@@@@@@@@@@@@....
    .....@@@@@@@@@@@@@@@@@@@@@@@@@@@@....
    ....@@@@@@@@..@@@@@@@@@...@@@@@@@@...
    ....@@@@@@@@..@@@@@@@@.....@@@@@@@...
    ...@@@@@@@....@@@@@@@@......@@@@@@@..
    ...@@@@@@@....@@@@@@@@......@@@@@@@..
    ..@@@@@@@.....@@@@@@@@......@@@@@@@..
    ..@@@@@@@.....@@@@@@@@......@@@@@@@..
    .@@@@@@@@.....@@@@@@@@......@@@@@@@..
    .@@@@@@@@.....@@@@@@@@......@@@@@@@..
    .@@@@@@@@.....@@@@@@@@......@@@@@@@..
    .@@@@@@@@.....@@@@@@@@......@@@@@@@..
    .@@@@@@@@.....@@@@@@@@......@@@@@@@..
    .@@@@@@@@.....@@@@@@@@......@@@@@@@..
    .@@@@@@@@.....@@@@@@@@......@@@@@@@..
    .@@@@@@@@.....@@@@@@@@......@@@@@@...
    .@@@@@@@@.....@@@@@@@................
    .@@@@@@@@............................
    .@@@@@@@@............................
    .@@@@@@@@............................
    .@@@@@@@@............................
    .@@@@@@@@............................
    .@@@@@@@@............................
    .@@@@@@@@............................
    .@@@@@@@@............................
    .@@@@@@@@............................
    .@@@@@@@@............................
    @@@@@@@@.............................

    shift-up: 1



# [ቆ] ETHIOPIC SYLLABLE QO
u+1246:
0xd2:
    ...............@@@@@@@@.........
    ..............@@@@@@@@@@@.......
    ...........@@@@@@@@@@@@@@@@.....
    ..........@@@@@@...@@@@@@@@.....
    ..........@@@@@@...@@@@@@@......
    ..........@@@@@@@..@@@@@@@......
    ..........@@@@@@@@@@@@@@@.......
    ..........@@@@@@@@@@@@@@........
    ............@@@@@@@@@@..........
    ..............@@@@@@@...........
    ..............@@@@@@@...........
    ..............@@@@@@@..@@@@@....
    ..............@@@@@@@@@@@@@@@...
    ............@@@@@@@@@@@@@@@@@...
    ........@@@@@@@@@@@@@@@@@@@@@@..
    ......@@@@@@@@@@@@@@@@@@@@@@@@@.
    .....@@@@@@@@@@@@@@@..@@@@@@@@@.
    ...@@@@@@@@..@@@@@@....@@@@@@@@.
    ...@@@@@@@...@@@@@@....@@@@@@@@.
    .@@@@@@@@....@@@@@@...@@@@@@@@..
    .@@@@@@@@....@@@@@@...@@@@@@@...
    .@@@@@@@@....@@@@@@@@@@@@@@@....
    ..@@@@@@@@@@@@@@@@@@@@@.........
    ...@@@@@@@@@@@@@@@@.............
    .......@@@@@@@@@@@@.............
    ...........@@@@@@@@.............
    ............@@@@@@@.............
    ............@@@@@@@.............
    ............@@@@@@@.............
    ............@@@@@@@.............
    ............@@@@@@@.............
    ............@@@@@@@.............
    ............@@@@@@@.............
    .............@@@@@@@............


# [ኆ] ETHIOPIC SYLLABLE XO
u+1286:
0xd3:
    ..................@@@@@@@@@@@@@@@@@@@@@......
    ..................@@@@@@@@@@@@@@@@@@@@@@@@...
    ................@@@@@@@@@@@@@@@@@@@@@@@@@@@..
    ...............@@@@@@@@@@@@@@@@@@@@@@@@@@@@..
    ..............@@@@@@@@....@@@@@@@@@@@@@@@@@@.
    ..@@@@@@@@@@@@@@@@@@@.....@@@@@@@...@@@@@@@@.
    .@@@@@@@@@@@@@@@@@@@......@@@@@@@...@@@@@@@@.
    .@@@@@@@@@@@@@@@@@@@......@@@@@@@@.@@@@@@@@@.
    .@@@@@@@@@@@@@@@@@@.......@@@@@@@@@@@@@@@@@..
    .@@@@@@@@..@@@@@@@@........@@@@@@@@@@@@@@@@..
    .@@@@@@@..@@@@@@@@@.........@@@@@@@@@@@@@@...
    .@@@@@....@@@@@@@@@.........@@@@@@@@@@@@.....
    ..@@@@....@@@@@@@@@..........................
    ..........@@@@@@@@@..........................
    ..........@@@@@@@@@@@@...@@@.................
    ...........@@@@@@@@@@@@@@@@@@................
    ...........@@@@@@@@@@@@@@@@@@@...............
    ............@@@@@@@@@@@@@@@@@@...............
    ...................@@@@@@@@@@@...............
    ......................@@@@@@@@...............
    ......................@@@@@@@................
    ......................@@@@@@@................
    ......................@@@@@@@................
    ......................@@@@@@@................
    ......................@@@@@@@................
    .....................@@@@@@@@................
    .....................@@@@@@@@................
    .....................@@@@@@@@................
    .....................@@@@@@@@................
    .....................@@@@@@@@................
    ......................@@@@@@@................

    shift-up: -1


u+e000:
0xd4:
    ..@@@@@..............@@@@@@@@@...
    .@@@@@@@@..........@@@@@@@@@@@@..
    .@@@@@@@@@@@@@@@@@@@@@@@@@@@@@@..
    .@@@@@@@@@@@@@@@@@@@@@@@@@@@@@@..
    .@@@@@@@@@@@@@@@@@@@@...@@@@@@@..
    .@@@@@@@@...@@@@@@@......@@@@@@..
    .@@@@@@@@...@@@@@@@.......@@@@...
    .@@@@@@@....@@@@@@@..............
    ..@@@@......@@@@@@@..............

    shift-up: 31


u+e001:
0xd5:
    .......................@@@@@@@@@@@@@@@@.
    .......................@@@@@@@@@@@@@@@@.
    .......................@@@@@@@@@@@@@@@@@
    .............................@@@@@@@@@@@
    ................................@@@@@@@@
    .................................@@@@@@.
    ..................................@@@@@.
    ...................................@@@..

    shift-up: 6


u+e002:
0xd6:
    .......................@@@@@@@@@@@@.
    .......................@@@@@@@@@@@@@
    .........................@@@@@@@@@@@
    ..........................@@@@@@@@@@
    ...........................@@@@@@@@@
    ............................@@@@@@@@
    .............................@@@@@@@
    ...............................@@@@@
    ...............................@@@@.

    shift-up: 18


u+e003:
0xd7:
    ................................@@@@@...
    .......................@@@@@@@@@@@@@@@@.
    .......................@@@@@@@@@@@@@@@@.
    .......................@@@@@@@@@@@@@@@@@
    .......................@@@@@@@@@@@@@@@@@
    .............................@@@@@@@@@@@
    ................................@@@@@@@@
    .................................@@@@@@.
    ..................................@@@@@.
    ...................................@@@..

    shift-up: -5


u+e004:
0xd8:
    .............@@@.................
    .........@@@@@@@.................
    ...@@@@@@@@@@@@@.................
    ...@@@@@@@@@@@@..................
    ...@@@@@@@@@.....................
    ....@@@@@@@......................
    ....@@@@@@@......................
    ....@@@@@@@......................
    ....@@@@@@.......................
    ...@@@@@@........................

    shift-up: -7


u+e005:
0xd9:
    ................@@@@@@@@...
    ................@@@@@@@@...
    ................@@@@@@@@...
    ................@@@@@@@@...
    ................@@@@@@@@@..
    .................@@@@@@@@..

    shift-up: -5


u+e006:
0xda:
    ..............@@@@@@@@@@@@@@...
    .............@@@@@@@@@@@@@@@@@.
    ............@@@@@@@@@@@@@@@@@@@
    ....@@@@@@@@@@@@@@@@@@@@@@@@@@@
    ...@@@@@@@@@@@@@@@@@@@@@@@@@@@@
    ...@@@@@@@@.............@@@@@@@
    ...@@@@@@@@..............@@@@@@
    ...@@@@@@.................@@@@@
    ....@@@@..................@@@@.

    shift-up: -9


u+e007:
0xdb:
    ...............................@@@@@@...
    ............................@@@@@@@@@@..
    ...........................@@@@@@@@@@@@.
    ..........................@@@@@@@@@@@@@.
    .........................@@@.....@@@@@@.
    ........................@@@@......@@@@@.
    ........................@@@@......@@@@@.
    ........................@@@@.....@@@@@..
    ........................@@@@@@@@@@@@@@..
    ........................@@@@@@@@@@@@@...
    ........................@@@@@@@@@@@.....

u+e008:
0xdc:
    ..........@@@@@@...........
    .........@@@@@@@@..........
    .........@@@@@@@@..........
    .........@@@@@@@@..........
    .........@@@@@@@@..........
    .........@@@@@@@@..........
    .........@@@@@@@@..........
    .........@@@@@@@@..........
    .........@@@@@@@@..........
    .........@@@@@@@@..........
    .........@@@@@@@@..........

    shift-up: 26


u+e009:
0xdd:
    .@@@@@@@@..................
    .@@@@@@@@..................
    .@@@@@@@@..................
    .@@@@@@@@..................
    @@@@@@@@@..................
    @@@@@@@@...................

    shift-up: -5


u+e010:
0xde:
    .........................................@@@@@@...
    ..............................@@@@@@@@@@@@@@@@@@@.
    ..............................@@@@@@@@@@@@@@@@@@@.
    ..............................@@@@@@@@@@@@@@@@@@@@
    ..............................@@@@@@@@@@@@@@@@@@@@
    ..............................@@@@@@@@@@@..@@@@@@@
    ..................................@@@@@@...@@@@@@@
    ...................................@@@@@...@@@@@@@
    ...................................@@@@@@.@@@@@@@@
    ....................................@@@@@@@@@@@@@.
    .....................................@@@@@@@@@....
    ......................................@@@@@@......

    shift-up: 9


u+e011:
0xdf:
    ............................................@@@@..
    ..................................@@@@@@@@@@@@@@@.
    ..................................@@@@@@@@@@@@@@@@
    ..................................@@@@@@@@@@@@@@@@
    ...........................................@@@@@@@
    ............................................@@@@@@
    .............................................@@@@@
    ..............................................@@@.

    shift-up: 6


u+e012:
0xe0:
    ........................................@@@@@@......
    ........................................@@@@@@......
    ........................................@@@@@@......
    ........................................@@@@@@......
    ........................................@@@@@@......
    .......................................@@@@@@@@@@@@.
    .....................................@@@@@@@@@@@@@@.
    .....................................@@@@@@@@@@@@@@.
    .....................................@@@@.@@@@@@@@@.
    .....................................@@@@..@@@@@@@@.
    .....................................@.....@@@@@@@@.
    .............................................@@@@@@@
    ..............................................@@@@@@
    ...............................................@@@@@

    shift-up: 13


u+e013:
0xe1:
    .........................................@@@@@.
    ................................@@@@@@@@@@@@@@.
    ................................@@@@@@@@@@@@@@@
    ................................@@@@@@@@@@@@@@@
    .................................@@@@@@@@@@@@@@
    .................................@@@@@@@@@@@@@@
    .........................................@@@@@@
    ..........................................@@@@@
    ...........................................@@@.

    shift-up: -3


0xe2:
    -

    shift-up: 40


u+e015:
0xe3:
    .......................@@@@@@@
    .......................@@@@@@@
    .......................@@@@@@@
    .......................@@@@@@@
    .......................@@@@@@@
    .......................@@@@@@@

    shift-up: -4


u+e016:
0xe4:
    .........................@@@@@@@@@@@@@@@@...
    ........................@@@@@@@@@@@@@@@@@@@.
    .......................@@@@@@@@@@@@@@@@@@@@@
    ..............@@@@@@@@@@@@@@@@@@@@@@@@@@@@@@
    .............@@@@@@@@@@@@@@@@@@@@@@@@@@@@@@@
    .............@@@@@@@@@..............@@@@@@@@
    .............@@@@@@@@@...............@@@@@@@
    .............@@@@@@@..................@@@@@@
    ..............@@@@.....................@@@@.

    shift-up: -9


u+e017:
0xe5:
    ........................................@@@@@@.
    .....................................@@@@@@@@@.
    ...................................@@@@@@@@@@@@
    ..................................@@@@@@@@@@@@@
    .................................@@@@....@@@@@@
    .................................@@@......@@@@@
    .................................@@@......@@@@@
    .................................@@@@....@@@@@@
    .................................@@@@@@@@@@@@@@
    .................................@@@@@@@@@@@@@.
    .................................@@@@@@@@@@@@..

u+e018:
0xe6:
    ..@@@@@.......................
    @@@@@@@@......................
    @@@@@@@@......................
    @@@@@@@@......................
    @@@@@@@@......................
    @@@@@@@@......................
    @@@@@@@@......................
    @@@@@@@@......................
    @@@@@@@@@.....................
    .@@@@@@@@.....................

    shift-up: -7


u+e019:
0xe7:
    .@@@@@@@@.....................
    .@@@@@@@@.....................
    .@@@@@@@@.....................
    .@@@@@@@@.....................
    .@@@@@@@@.....................
    .@@@@@@@@.....................

    shift-up: -5



# [፩] ETHIOPIC DIGIT ONE
u+1369:
0xe8:
    ..........................@@@@@.......
    ..............@@@@@@@@@@@@@@@@@@......
    ............@@@@@@@@......@@@@@@......
    ............@@@@@@....................
    ......................................
    ......................................
    ......................................
    .................@@@@@@...............
    ................@@@@@@@@..............
    ................@@@@@@@@..............
    ................@@@@@@@@..............
    ................@@@@@@@@..............
    ...............@@@@@@@@...............
    ..............@@@@@@@@@...............
    ..............@@@@@@@@@...............
    .............@@@@@@@@@@@@@@...........
    .............@@@@@@@@..@@@@@..........
    ............@@@@@@@@...@@@@@@.........
    ............@@@@@@@@...@@@@@@@........
    ...........@@@@@@@@.....@@@@@@........
    ...........@@@@@@@@.....@@@@@@@.......
    ..........@@@@@@@@......@@@@@@@.......
    .........@@@@@@@@.......@@@@@@@.......
    .........@@@@@@@@.......@@@@@@@.......
    .........@@@@@@@@.......@@@@@@@.......
    .........@@@@@@@@.......@@@@@@@.......
    .........@@@@@@@@.......@@@@@@........
    .........@@@@@@@@.......@@@@@@........
    .........@@@@@@@@......@@@@@@.........
    ..........@@@@@@@@.....@@@@@..........
    ...........@@@@@@@.....@@@@@..........
    .............@@@@@@@@@@@@.............
    ......................................
    ......................................
    ...........................@..........
    ........................@@@@@.........
    ..........@@@@@@@@@@@@@@@@@@@@........
    .........@@@@@@@@.......@@@@@@........
    .........@@@@@@@.........@@@@@........

    shift-up: -5



